<?xml version="1.0" encoding="UTF-8" standalone="no"?>
<!-- Created with Inkscape (http://www.inkscape.org/) -->

<svg
   width="500"
   height="300"
   viewBox="0 0 132.29167 79.375"
   version="1.1"
   id="svg1"
   inkscape:export-filename="../assets/images/bluesbrkr-card.png"
   inkscape:export-xdpi="96"
   inkscape:export-ydpi="96"
   inkscape:version="1.3.1 (91b66b0783, 2023-11-16, custom)"
   sodipodi:docname="bluesbrkr-card.svg"
   xmlns:inkscape="http://www.inkscape.org/namespaces/inkscape"
   xmlns:sodipodi="http://sodipodi.sourceforge.net/DTD/sodipodi-0.dtd"
   xmlns="http://www.w3.org/2000/svg"
   xmlns:svg="http://www.w3.org/2000/svg">
  <sodipodi:namedview
     id="namedview1"
     pagecolor="#acacac"
     bordercolor="#000000"
     borderopacity="0.25"
     inkscape:showpageshadow="2"
     inkscape:pageopacity="0.0"
     inkscape:pagecheckerboard="0"
     inkscape:deskcolor="#d1d1d1"
     inkscape:document-units="mm"
     inkscape:export-bgcolor="#acacacff"
     inkscape:zoom="2.1694726"
     inkscape:cx="240.84194"
     inkscape:cy="161.79047"
     inkscape:window-width="1920"
     inkscape:window-height="1057"
     inkscape:window-x="-8"
     inkscape:window-y="-8"
     inkscape:window-maximized="1"
     inkscape:current-layer="layer1"
     showgrid="false" />
  <defs
     id="defs1" />
  <g
     inkscape:label="Calque 1"
     inkscape:groupmode="layer"
     id="layer1">
    <path
       id="rect7321-12-0-9-3"
       style="display:inline;fill:#4794cc;fill-opacity:1;stroke:none;stroke-width:0.127274;stroke-dasharray:none;stroke-opacity:1"
       inkscape:label="contour"
       d="m 77.681156,56.407206 c -0.05041,0.0013 -0.101183,0.0052 -0.152655,0.01044 l -22.609288,2.587279 c -0.823497,0.09424 -1.544934,0.755879 -1.544934,1.537512 v 1.093679 H 0.591777 v 0.653235 h 52.782502 v 0.418824 H 0.591777 v 0.352624 H 53.374279 V 63.71134 H 0.591777 v 0.653236 h 52.782502 v 0.418823 H 0.591777 v 0.352624 h 52.782502 v 0.650545 H 0.591777 v 0.653235 h 52.782502 v 0.418822 H 0.591777 v 0.352626 h 52.782502 v 0.650543 H 0.591777 v 0.653255 h 52.782502 v 0.418826 H 0.591777 v 0.352626 h 52.782502 v 3.728255 c 0,0.781631 0.721437,1.278443 1.544934,1.184206 l 22.609288,-2.587285 c 0.823487,-0.09424 1.546961,-0.756546 1.546961,-1.538191 v -0.78699 H 131.69989 V 68.933871 H 79.075462 V 68.515046 H 131.69989 V 67.861813 H 79.075462 V 67.21127 H 131.69989 V 66.858646 H 79.075462 V 66.439822 H 131.69989 V 65.786587 H 79.075462 V 65.136043 H 131.69989 V 64.783419 H 79.075462 V 64.364596 H 131.69989 V 63.71136 H 79.075462 V 63.060818 H 131.69989 V 62.708192 H 79.075462 V 62.28937 H 131.69989 V 61.636134 H 79.075462 v -4.034917 c 0,-0.732781 -0.636229,-1.2146 -1.394306,-1.194338 z m -0.160099,0.676203 c 0.456786,0.0052 0.910731,0.426039 0.91062,0.675536 l -0.0047,12.208839 c -1.5e-4,0.346873 -0.491083,0.944016 -0.970723,0.999102 l -22.3391,2.565659 c -0.531048,0.06103 -1.088825,-0.261276 -1.088952,-0.737683 l -0.0039,-12.326371 c 0.01018,-0.412863 0.481082,-0.783499 0.895077,-0.806586 l 22.510992,-2.573764 c 0.03031,-0.0039 0.06086,-0.0052 0.09126,-0.0052 z m -0.622149,0.404639 c -0.04288,0.0013 -0.08655,0.0038 -0.130344,0.0092 l -21.088676,2.418399 c -0.701213,0.0804 -1.303763,0.611822 -1.303763,1.229461 v 11.044909 c 0,0.617641 0.60255,1.011285 1.303763,0.930877 l 21.088676,-2.418412 c 0.701225,-0.0804 1.301745,-0.611822 1.301745,-1.229462 V 58.428077 c 0,-0.579036 -0.527656,-0.961087 -1.171378,-0.940329 z m -0.0271,0.331017 c 0.507686,-0.01803 0.871111,0.275982 0.870765,0.647158 l -0.01021,11.015181 c -2.91e-4,0.307591 -0.500805,0.806991 -0.974124,0.861972 L 55.679712,72.79149 c -0.560958,0.06509 -0.974443,-0.243145 -0.974113,-0.639051 l 0.0089,-11.04423 c 2.92e-4,-0.361251 0.471344,-0.793907 0.965329,-0.851162 l 21.088391,-2.429878 c 0.03503,-0.0038 0.0695,-0.0065 0.103343,-0.0079 z"
       sodipodi:nodetypes="cccsccccccccccccccccccccccccccccccccsscsccccccccccccccccccccccccccccccccsccccccccccccccccssccssccccccccccccc" />
    <path
       style="display:inline;fill:#232323;fill-opacity:1;stroke:none;stroke-width:0.127274;stroke-dasharray:none;stroke-opacity:1"
       d="m 55.727144,72.034579 c -0.157881,-0.03161 -0.182623,-0.06452 -0.234411,-0.309751 -0.09889,-0.468296 -0.08056,-1.034208 0.05511,-1.702204 0.04327,-0.212977 0.09304,-0.298662 0.229079,-0.394009 0.140459,-0.09858 0.260529,-0.129272 0.521846,-0.133325 0.2302,-0.0038 0.232669,-0.0027 0.352306,0.05738 0.07039,0.03575 0.143208,0.08937 0.175127,0.129532 0.063,0.07876 0.06275,0.07382 0.03729,0.732412 -0.01565,0.405449 -0.0051,0.482972 0.06899,0.516238 0.172762,0.07733 0.624353,0.06476 1.107344,-0.03162 0.428707,-0.08497 0.777436,-0.149699 0.956624,-0.177548 0.08337,-0.01331 0.161269,-0.02966 0.173118,-0.0373 0.04875,-0.03148 0.229143,-0.896765 0.292869,-1.405137 0.09443,-0.752789 0.07878,-1.384206 -0.04366,-1.76832 -0.04378,-0.137472 -0.09202,-0.236514 -0.13053,-0.268426 -0.04124,-0.03433 -0.185222,-0.01146 -0.788077,0.119433 -0.746676,0.163286 -1.203548,0.249166 -1.40697,0.264425 -0.232503,0.01775 -0.8615,-0.0038 -1.056431,-0.0355 -0.255413,-0.04171 -0.464943,-0.138663 -0.549376,-0.254611 -0.03247,-0.04444 -0.03398,-0.124742 -0.04417,-2.349061 -0.0051,-1.266666 -0.01146,-2.567246 -0.01146,-2.890222 l -0.0013,-0.58722 0.05918,-0.08886 c 0.152995,-0.22983 0.473953,-0.374841 0.841608,-0.380255 0.298469,-0.0039 0.484009,0.06554 0.594939,0.2244 0.04315,0.06179 0.04366,0.06723 0.05753,0.620316 0.0076,0.306875 0.01566,1.040026 0.01769,1.629252 l 0.0038,1.071308 -0.05129,0.486988 c -0.05816,0.55125 -0.07268,1.146384 -0.03247,1.323961 0.04645,0.204764 0.07751,0.283337 0.115692,0.292884 0.05231,0.01331 0.353578,-0.02306 0.75552,-0.09067 0.380981,-0.06399 1.454431,-0.253921 1.517252,-0.268415 l 0.03984,-0.0078 v -2.612869 c 0,-1.992549 0.0051,-2.630625 0.02138,-2.687411 0.0336,-0.116976 0.194054,-0.271383 0.371765,-0.358053 0.201486,-0.09821 0.359039,-0.137558 0.57114,-0.14228 0.153338,-0.0038 0.20216,0.0038 0.36614,0.05351 l 0.189192,0.05752 0.0076,3.071721 c 0.0064,2.607867 0.01146,3.138273 0.03666,3.512415 0.04021,0.607193 0.05625,1.69622 0.03029,2.061226 -0.05396,0.758916 -0.209518,1.44637 -0.381719,1.68713 -0.104619,0.146255 -0.261318,0.272819 -0.490321,0.39594 -0.229615,0.123429 -0.388655,0.176567 -0.792888,0.26476 -0.60255,0.131437 -1.179276,0.216452 -1.663234,0.245168 -0.141108,0.0078 -0.475519,0.04702 -0.743149,0.08601 -0.506522,0.07371 -0.999707,0.107253 -1.144863,0.0781 z m 6.977726,-0.903108 c -0.112382,-0.01905 -0.21019,-0.0851 -0.252076,-0.170311 -0.05396,-0.109722 -0.04671,-0.771529 0.01515,-1.374812 0.0924,-0.901258 0.119127,-1.515343 0.119001,-2.729809 -6.4e-5,-0.896088 -0.0076,-1.153947 -0.07077,-2.339669 -0.05855,-1.104882 -0.06987,-1.421459 -0.08171,-2.285476 -0.01146,-0.847514 1.4e-4,-1.14216 0.05652,-1.423375 0.05384,-0.268026 0.113019,-0.373051 0.259624,-0.460356 0.259804,-0.154713 0.638544,-0.22913 1.561645,-0.306822 0.223836,-0.01878 0.629914,-0.06191 0.902394,-0.09547 1.205878,-0.149143 1.726897,-0.196472 2.264829,-0.206099 l 0.442339,-0.0078 0.084,0.04884 c 0.115181,0.0671 0.137225,0.118009 0.137225,0.316939 0,0.29515 -0.0826,1.250099 -0.115818,1.338608 -0.0513,0.136759 -0.611702,0.25168 -1.184725,0.242989 -0.190069,-0.0027 -0.335683,-0.01388 -0.395526,-0.03044 -0.05206,-0.01432 -0.09673,-0.02861 -0.09914,-0.03148 -0.0025,-0.0027 0.02188,-0.297665 0.05395,-0.654706 0.0322,-0.357042 0.04097,-0.26712 0.04544,-0.439385 0.0025,-0.09183 -0.09253,-0.03615 -0.264983,-0.0456 -0.144532,0.0039 -0.545622,0.04118 -0.788879,0.07463 -0.457573,0.0649 -1.218236,0.212888 -1.244034,0.262667 -0.06427,0.124092 -0.01616,1.325033 0.03525,2.297404 0.08196,1.549757 0.109837,2.953211 0.08349,4.19743 -0.02074,0.978887 -0.02914,1.137862 -0.105636,2.006035 -0.07076,0.801909 -0.09775,1.051139 -0.07382,1.096411 0.03957,0.0746 0.231727,0.02564 0.933118,-0.07241 0.238422,-0.03316 0.505874,-0.07125 0.612923,-0.07913 0.469881,-0.0346 0.733299,-0.06983 0.886765,-0.225308 0.162859,-0.16527 0.153492,-0.103372 0.233165,-1.399697 0.03106,-0.506029 0.06835,-2.23875 0.0518,-2.41366 -0.02687,-0.284451 -0.09877,-0.493399 -0.176478,-0.511987 -0.02418,-0.0052 -0.125619,7.64e-4 -0.225389,0.01331 -0.374221,0.05064 -0.726578,0.02875 -0.893916,-0.05543 -0.186851,-0.09404 -0.228711,-0.276614 -0.119001,-0.519228 0.05409,-0.119433 0.183578,-0.290449 0.260452,-0.343597 0.08578,-0.05932 0.489951,-0.117358 1.46787,-0.210735 0.41085,-0.03937 0.509526,-0.01331 0.85977,0.219168 l 0.210713,0.140321 0.01146,0.618062 c 0.0064,0.339944 0.02723,0.864951 0.04697,1.166695 0.08299,1.271291 0.08286,1.873421 -1.9e-4,2.453607 -0.04073,0.284606 -0.133816,0.674343 -0.202098,0.846413 -0.10831,0.273066 -0.376946,0.432003 -0.931297,0.551042 -0.806138,0.173107 -2.135229,0.362198 -3.430961,0.488129 -0.555447,0.05401 -0.871402,0.07098 -0.979292,0.05259 z m 7.340278,-0.890456 c -0.156547,-0.02047 -0.140968,0.05543 -0.164972,-0.804562 -0.02444,-0.877011 -0.04645,-1.306096 -0.144468,-2.819599 -0.139581,-2.155437 -0.162084,-2.675795 -0.16258,-3.760675 -6.1e-4,-1.261835 0.06021,-2.131694 0.21662,-3.100502 0.05511,-0.34107 0.0443,-0.314273 0.146606,-0.363259 0.194283,-0.09313 0.756576,-0.182356 1.188123,-0.188833 0.175204,-0.0027 0.280014,0.0027 0.308383,0.01761 0.115183,0.05777 0.493184,0.790207 0.980069,2.111551 0.150182,0.407562 0.336879,0.845338 0.385625,0.968341 0.231995,0.585485 0.726514,1.832996 1.387688,3.28041 0.707361,1.548503 0.948759,1.965506 0.960646,1.933757 0.021,-0.05624 -0.01539,-2.538981 -0.04085,-3.549603 -0.02049,-0.811801 -0.02252,-1.429201 -0.01018,-3.060878 0.0076,-1.124141 0.02075,-2.058014 0.02762,-2.075258 0.01616,-0.04054 0.101056,-0.09417 0.211618,-0.133451 0.144583,-0.05155 0.403266,-0.08679 0.905158,-0.123303 0.565549,-0.04105 0.542664,-0.04029 0.528857,-0.01657 -0.01461,0.02435 -0.0549,0.527301 -0.08146,1.018523 -0.02992,0.551468 -0.02624,2.20821 0.0079,3.565084 0.03503,1.391794 0.03856,1.487194 0.09202,2.43836 0.101059,1.799742 0.09889,2.630639 -0.0089,3.421286 -0.03604,0.263922 -0.05513,0.324347 -0.118108,0.374297 -0.150565,0.119294 -0.560272,0.202679 -1.03551,0.210812 -0.425857,0.0065 -0.402973,0.02164 -0.502603,-0.313064 -0.203931,-0.684901 -0.623538,-1.26646 -1.283845,-2.534255 -0.549287,-1.054661 -0.420142,-0.874767 -1.59046,-3.548774 -0.484249,-1.106411 -0.825113,-2.045567 -0.833563,-2.05484 -0.02024,-0.02228 0.01616,1.13927 0.03755,2.63872 0.01604,1.118248 0.06134,4.436457 0.07738,5.666568 l 0.0076,0.544902 -0.04454,0.03638 c -0.02457,0.01994 -0.08527,0.04948 -0.13501,0.06527 -0.268663,0.08601 -1.095532,0.184542 -1.311349,0.1562 z"
       id="path3141-3-2-6"
       sodipodi:nodetypes="cssccccssccssscccccsccscssccssccccssccccccsssscccccssscsssccccssscccssccsssssccsssccscscccsssssscccsssscscssssccscccsssssccsssssccccc"
       inkscape:label="logo" />
    <path
       id="path2633"
       style="display:inline;fill:#232323;fill-opacity:1;stroke-width:0.0950732"
       d="m 83.261964,12.320633 -2.188391,1.093286 c -1.203734,0.601381 -2.20105,1.104386 -2.216252,1.118122 -0.01524,0.0137 0.55854,1.356685 1.274997,2.98428 0.71647,1.627588 1.320347,2.959446 1.34162,2.959446 0.07115,0 4.445433,-2.021923 4.522147,-2.090269 0.04161,-0.03708 -0.556267,-1.416647 -1.328903,-3.066049 z m -0.617204,1.043014 c 0.04524,0.01588 0.594923,1.063834 1.221691,2.328914 l 1.139316,2.300445 -1.015753,0.542707 c -1.25417,0.669736 -1.655907,0.738908 -2.10359,0.362208 -0.491098,-0.413089 -0.740591,-1.249732 -0.490618,-1.644474 0.06177,-0.09764 -0.01875,-0.186025 -0.310114,-0.339796 -0.304535,-0.160705 -0.464432,-0.343124 -0.703224,-0.803157 -0.358862,-0.691358 -0.390028,-1.115667 -0.108419,-1.473667 0.196233,-0.249469 2.208469,-1.330121 2.370711,-1.27318 z m -0.809217,1.052099 c -0.177339,0.02276 -0.515255,0.179934 -0.632348,0.321022 -0.134064,0.161538 -0.0059,0.665839 0.293154,1.151434 0.222769,0.361867 0.272185,0.369775 0.759544,0.121138 l 0.368273,-0.187767 -0.32405,-0.643858 c -0.178393,-0.354173 -0.338268,-0.684551 -0.354947,-0.734104 -0.0094,-0.02789 -0.05052,-0.03543 -0.109591,-0.02789 z m -8.376208,1.694748 c -0.796407,0.03277 -3.879731,0.283653 -3.926146,0.328288 -0.03973,0.03819 0.154834,4.753441 0.231384,5.608166 l 0.05146,0.572993 2.155678,-0.365236 c 1.185614,-0.20072 2.172756,-0.382309 2.193842,-0.403398 0.04372,-0.04374 -0.467234,-5.681276 -0.520295,-5.740208 -0.0047,-0.0055 -0.0722,-0.0053 -0.185942,-6.2e-4 z m 9.648182,0.276802 c -0.171748,0 -0.562092,0.42119 -0.562092,0.606306 0,0.116659 0.110529,0.434527 0.245918,0.706247 0.135401,0.271716 0.308871,0.49425 0.385222,0.49425 0.149888,0 0.699579,-0.262279 0.699579,-0.333743 0,-0.105629 -0.713492,-1.47306 -0.768627,-1.47306 z m -7.305344,0.703217 c -0.108419,-0.0013 -0.173845,0.0019 -0.182917,0.0109 -0.05579,0.05525 -1.057351,6.15038 -1.018789,6.199937 0.0094,0.01149 0.95539,0.124277 2.102992,0.250758 1.147603,0.126485 2.17537,0.234602 2.284082,0.240462 0.191122,0.0102 0.206606,-0.09397 0.47729,-3.150848 0.247911,-2.799673 0.263922,-3.168264 0.135683,-3.225347 -0.185743,-0.08266 -3.039312,-0.316831 -3.798341,-0.325865 z m -3.17204,0.647493 c 0.173283,0.01771 0.195002,0.301282 0.410059,1.774699 0.109708,0.75141 0.178686,1.42008 0.15324,1.486385 -0.02543,0.06629 -0.226801,0.137631 -0.447613,0.158695 -0.324179,0.03092 -0.410188,0.006 -0.445796,-0.130229 -0.04137,-0.158367 -0.05896,-0.157071 -0.28407,0.02001 -0.284246,0.223589 -0.846736,0.248241 -1.130244,0.04966 -0.278174,-0.194844 -0.375904,-0.507315 -0.561482,-1.797109 -0.179847,-1.25002 -0.167024,-1.292171 0.391891,-1.294984 l 0.292556,-0.0013 0.115686,0.784381 c 0.230963,1.563042 0.1689,1.430695 0.647491,1.376754 0.230939,-0.02602 0.447883,-0.07538 0.482144,-0.109627 0.03422,-0.03426 -0.0082,-0.541298 -0.09389,-1.126599 -0.0858,-0.585304 -0.147719,-1.069783 -0.138108,-1.076934 0.0094,-0.0071 0.176729,-0.04175 0.371298,-0.07692 0.104082,-0.01882 0.179061,-0.04284 0.236834,-0.03694 z m 4.632382,0.07087 c 0.09693,-0.0052 0.22727,0.01556 0.394916,0.06057 l 0.198061,0.05331 -0.173224,1.110244 c -0.09541,0.61055 -0.242848,1.623296 -0.327684,2.25078 -0.08486,0.627483 -0.181594,1.164682 -0.215022,1.193833 -0.03341,0.02915 -0.210696,0.02915 -0.393708,0 -0.262656,-0.04181 -0.327942,-0.0928 -0.310114,-0.242888 0.01242,-0.104575 0.151365,-1.033291 0.308907,-2.063614 0.15753,-1.030327 0.286496,-1.982572 0.286496,-2.115709 0,-0.158114 0.06974,-0.237987 0.231372,-0.246519 z m 25.218885,0.731078 c -0.97853,0.009 -2.02397,0.02583 -3.345887,0.05996 -10.555945,0.272473 -12.872764,0.509704 -15.119455,1.546956 -2.271271,1.048608 -2.260171,1.040308 -3.370712,2.467617 -0.638149,0.820173 -1.159018,1.345137 -1.586928,1.599651 -0.34836,0.207206 -1.119683,0.243896 -2.146606,0.101761 -0.588054,-0.08139 -1.410364,-0.176425 -1.827397,-0.211389 l -0.758325,-0.0636 -0.192611,-0.570568 c -0.159101,-0.471488 -0.250114,-0.599136 -0.525147,-0.73653 -0.880962,-0.440092 -1.901286,0.0083 -1.901286,0.835864 0,0.314051 -0.134416,0.294082 -0.385234,-0.05815 -0.419822,-0.589585 -0.988255,-0.576563 -1.430055,0.03331 -0.527702,0.728485 -0.73432,2.133251 -0.646881,4.39374 0.06904,1.784354 0.238182,2.555806 0.63114,2.875861 0.425308,0.346404 0.897875,0.53206 1.373114,0.539677 0.369305,0.006 0.495447,-0.04061 0.73956,-0.274381 0.291009,-0.278687 0.29715,-0.280072 0.553008,-0.113271 0.142305,0.09278 0.528406,0.29963 0.85827,0.459725 0.501951,0.243517 0.679208,0.283305 1.087227,0.244096 0.509266,-0.04893 0.623709,-0.136832 0.947314,-0.727444 l 0.162934,-0.296792 0.692922,0.05815 c 1.08779,0.0911 2.364077,0.3733 2.980648,0.658398 0.443616,0.20512 0.778262,0.485994 1.562701,1.311944 1.95675,2.060285 2.810366,2.877523 3.185379,3.050907 0.209162,0.0967 0.765018,0.359144 1.235627,0.583284 0.976605,0.465143 1.226368,0.546875 2.281668,0.746225 1.582334,0.298907 3.482307,0.431113 7.130887,0.49546 2.039324,0.03597 4.114432,0.09855 4.611188,0.139311 0.49675,0.04082 1.544557,0.05666 2.328917,0.03513 0.37135,-0.0102 0.53068,-0.01591 0.87402,-0.02544 v -0.779534 c -1.48063,0.0063 -2.794807,6.2e-4 -2.831037,-0.03331 -0.0218,-0.02031 -1.708137,-0.06509 -3.74746,-0.09933 -4.310067,-0.07241 -6.894675,-0.199411 -8.001887,-0.392492 -0.926978,-0.161651 -1.939121,-0.516956 -3.120562,-1.096316 -0.93428,-0.458146 -1.518502,-0.996276 -2.778954,-2.55726 -1.013174,-1.254759 -2.225394,-2.119889 -3.259256,-2.327098 -0.183023,-0.03667 -0.63216,-0.155433 -0.998195,-0.263478 -0.366035,-0.108044 -1.016902,-0.269734 -1.446417,-0.359178 -0.737192,-0.153521 -0.796172,-0.153201 -1.049064,6.2e-4 -0.147345,0.08961 -0.345277,0.335514 -0.440346,0.54634 -0.228021,0.505762 -0.472239,0.631261 -0.995769,0.513632 -0.282921,-0.06356 -0.514188,-0.206392 -0.757118,-0.468203 -0.564858,-0.608737 -1.400998,-0.658029 -1.689909,-0.09933 -0.157589,0.304737 -0.332372,0.313827 -0.894007,0.04664 -0.450649,-0.214388 -0.566265,-1.274091 -0.338584,-3.099966 0.07537,-0.604281 0.183797,-1.525688 0.241065,-2.047871 0.05732,-0.522176 0.142071,-0.988231 0.188978,-1.03514 0.0504,-0.05033 0.182273,0.02719 0.321624,0.18898 0.209442,0.243158 0.294455,0.272817 0.751069,0.262267 0.672926,-0.01545 0.92733,-0.154103 0.92733,-0.506363 0,-0.434407 0.09224,-0.574811 0.378553,-0.574811 0.296448,0 0.433384,0.126172 0.522721,0.482139 0.0354,0.141289 0.22604,0.350501 0.454271,0.498489 0.32303,0.209454 0.505034,0.255571 1.016362,0.258027 0.342499,0.0015 1.135718,0.06482 1.763201,0.140524 1.88395,0.227313 2.175744,0.203496 3.049685,-0.247124 0.967486,-0.498853 1.718368,-1.065152 1.963688,-1.480937 0.106544,-0.180683 0.498283,-0.560227 0.87039,-0.843737 0.372094,-0.283513 0.783267,-0.597331 0.913991,-0.697161 0.607241,-0.463691 1.782716,-1.186368 2.12661,-1.307702 0.999484,-0.352638 1.925935,-0.500092 4.824396,-0.768025 1.522393,-0.140716 2.796418,-0.170674 7.310184,-0.169598 1.78133,3.11e-4 3.324807,0.0082 4.724447,0.02059 z m -38.453409,0.131437 -1.297409,1.921882 -1.296799,1.921279 0.359179,0.213206 c 0.197522,0.117175 1.407585,0.853063 2.688702,1.635386 1.281104,0.782324 2.350598,1.423589 2.376759,1.425816 0.05931,0.0046 2.319995,-3.220419 2.354349,-3.358601 0.01383,-0.05541 -0.842306,-0.708056 -1.901895,-1.450044 -1.05959,-0.741982 -2.231396,-1.56466 -2.604499,-1.828604 z m 38.453409,1.485174 c -1.07514,0.02195 -2.671827,0.08504 -4.004274,0.162327 -1.669503,0.09683 -3.179542,0.152744 -3.355568,0.124169 -0.312142,-0.05065 -2.255776,0.07465 -2.837102,0.18292 -0.247406,0.04607 -0.307992,0.11571 -0.400975,0.463359 -0.06786,0.253714 -0.284199,0.603512 -0.569347,0.920058 l -0.459733,0.509998 0.08181,0.475473 c 0.04501,0.261454 0.08205,1.288158 0.0824,2.28167 6.22e-4,1.693821 -0.02989,2.225078 -0.296787,5.133904 -0.05755,0.627484 -0.09201,1.629176 -0.0763,2.225946 l 0.02848,1.085413 0.290118,0.102969 c 0.790498,0.281779 1.350152,1.022822 1.441564,1.908558 0.03012,0.291593 0.08029,0.545929 0.112053,0.565116 0.03176,0.01916 0.528383,0.06523 1.103579,0.10236 0.575196,0.03713 1.323968,0.102301 1.663853,0.145367 0.339885,0.04305 1.366586,0.05163 2.281667,0.01877 0.915081,-0.03283 2.498242,-0.06377 3.517902,-0.06905 0.49235,-0.0025 0.95348,-0.01494 1.39674,-0.03271 v -0.309514 c -0.18832,0.0075 -0.33786,0.01752 -0.54089,0.02421 -5.72428,0.189082 -7.715536,0.169133 -8.841994,-0.08844 -0.27774,-0.0635 -0.337552,-0.122732 -0.362202,-0.357966 -0.09658,-0.921531 -0.375857,-1.349165 -1.281667,-1.964283 l -0.571773,-0.388252 0.06177,-2.007288 c 0.03399,-1.103816 0.109123,-2.306311 0.167177,-2.672343 0.05802,-0.366035 0.116624,-1.912134 0.13022,-3.436131 l 0.02485,-2.771074 0.293763,-0.366447 c 0.161539,-0.20158 0.395126,-0.558985 0.519087,-0.794073 0.189787,-0.359901 0.284492,-0.439677 0.598427,-0.503942 0.205071,-0.04197 1.848964,-0.116354 3.652977,-0.165355 1.804013,-0.049 4.028625,-0.12705 4.943715,-0.173229 0.38879,-0.0196 0.80982,-0.03229 1.20654,-0.03998 z m -37.197188,0.513028 c 0.23817,-5.7e-5 0.526495,0.12936 0.961848,0.388252 0.805443,0.478973 1.372516,1.004993 1.372516,1.272575 0,0.337684 -0.466202,1.157298 -0.861305,1.514247 -0.424441,0.38346 -0.390227,0.375825 -0.885533,0.199275 -0.516802,-0.184216 -0.552539,-0.248432 -0.331317,-0.597827 0.202187,-0.319338 0.313407,-0.377063 0.414302,-0.213811 0.122683,0.19851 0.333755,0.0811 0.566932,-0.316782 0.132928,-0.22682 0.241676,-0.437241 0.241676,-0.467598 0,-0.07015 -0.665776,-0.485 -0.703823,-0.438526 -0.01559,0.01905 -0.253279,0.387508 -0.527561,0.818907 -0.274295,0.431386 -0.550805,0.784377 -0.61479,0.784377 -0.184606,0 -0.917461,-0.669395 -1.015753,-0.927931 -0.116155,-0.305527 0.226754,-1.077464 0.722599,-1.626302 0.234057,-0.259029 0.422038,-0.388804 0.660209,-0.388856 z m -0.199878,0.871598 c -0.08627,1.3e-5 -0.157073,0.112674 -0.33678,0.408847 -0.234396,0.386333 -0.242636,0.431238 -0.09506,0.517268 0.241499,0.140827 0.257909,0.131747 0.541498,-0.296792 0.249728,-0.377342 0.254146,-0.402431 0.08967,-0.522719 -0.09013,-0.06592 -0.147532,-0.106614 -0.199269,-0.106602 z m 7.906184,3.994585 c -0.103379,0.02841 -0.103613,0.595042 0,2.479127 0.04665,0.847564 0.100332,1.205592 0.176261,1.180507 0.06329,-0.0209 0.119214,-0.29174 0.133256,-0.646279 0.03364,-0.848884 -0.192014,-3.045622 -0.309517,-3.013355 z m -12.381095,0.01939 c -0.04126,0.03488 -0.706811,4.349068 -0.675352,4.377388 0.01735,0.01566 1.35783,0.134589 2.978831,0.26469 1.62099,0.1301 2.988994,0.228367 3.040004,0.218052 0.11217,-0.02263 0.908729,-3.306239 0.823142,-3.393127 -0.05907,-0.06 -6.124254,-1.502868 -6.166625,-1.467003 z m 10.709365,0.196853 -0.277412,0.324653 c -0.152561,0.178446 -0.255412,0.360215 -0.228349,0.404003 0.130502,0.211141 0.514552,-0.151871 0.509395,-0.481532 z m 3.910393,0.712909 c -0.0368,0 -0.03282,0.246277 0.0094,0.546945 0.04196,0.300671 0.10209,0.752737 0.133256,1.004249 0.03633,0.29223 0.09728,0.44269 0.168993,0.417326 0.06165,-0.02184 0.101152,-0.120919 0.08779,-0.219867 -0.01336,-0.09895 -0.05122,-0.478919 -0.08416,-0.844952 -0.05591,-0.620918 -0.154553,-0.903701 -0.314967,-0.903701 z m -3.798938,0.285283 c -0.118921,0 -0.201765,0.395993 -0.135682,0.648704 0.06353,0.243102 0.253525,0.228917 0.302249,-0.02242 0.04337,-0.223937 -0.06365,-0.626292 -0.166567,-0.626292 z m -8.789303,0.115686 c 0.354091,-0.01296 0.822568,0.102395 0.996976,0.276802 0.189798,0.189798 0.19342,0.429798 0.02063,1.348892 -0.04946,0.263045 -0.04407,0.266609 0.362214,0.237435 0.403987,-0.02903 0.41347,-0.03777 0.44276,-0.393703 0.02485,-0.301295 -0.0035,-0.372381 -0.165957,-0.414904 -0.195553,-0.05114 -0.248427,-0.258591 -0.138706,-0.544524 0.07748,-0.201923 0.305671,-0.188855 0.678985,0.03876 0.288829,0.176097 0.308907,0.223 0.308907,0.715934 0,0.611249 -0.186634,1.127587 -0.46094,1.274393 -0.389231,0.208313 -1.417853,0.08473 -1.588136,-0.190796 -0.08076,-0.130675 -0.07478,-0.805111 0.01207,-1.346468 0.05685,-0.354064 0.05532,-0.356759 -0.270743,-0.356759 -0.318354,0 -0.330204,0.01306 -0.388856,0.44095 -0.0892,0.65087 -0.079,0.700187 0.141132,0.700187 0.162289,0 0.189775,0.04129 0.143547,0.213811 -0.03153,0.117653 -0.05802,0.267173 -0.05872,0.33253 -0.0023,0.181155 -0.426984,0.141783 -0.679595,-0.06299 -0.199175,-0.161463 -0.224715,-0.261036 -0.224715,-0.883715 0,-0.768805 0.159441,-1.141474 0.568152,-1.327693 0.07748,-0.03532 0.183,-0.05382 0.30103,-0.05815 z m 24.061393,3.136309 c -0.04044,0.0094 -0.06904,0.05299 -0.06904,0.115077 0,0.08279 0.06798,0.15082 0.150826,0.15082 0.167879,0 0.138729,-0.204721 -0.03751,-0.263479 -0.01547,-0.0052 -0.03071,-0.0055 -0.04419,-0.0025 z m -18.450202,0.09146 c -0.843196,3.11e-4 -1.4888,0.45081 -1.4888,1.0945 0,0.395862 0.115451,0.605774 0.427617,0.776504 0.318072,0.173973 0.85017,0.126624 1.196256,-0.106603 0.184629,-0.124413 0.437603,-0.443069 0.594196,-0.749248 0.344562,-0.673741 0.265023,-0.894051 -0.356764,-0.987292 -0.127196,-0.01907 -0.252048,-0.02791 -0.372505,-0.02785 z m -0.08908,0.745009 c 0.242132,0 0.264988,0.0711 0.09447,0.293161 -0.154835,0.20167 -0.467926,0.356709 -0.614778,0.304057 -0.324484,-0.116354 0.09447,-0.597218 0.520295,-0.597218 z m 18.851775,0.875842 c -0.03399,0.0053 -0.06904,0.02872 -0.09869,0.07571 -0.04934,0.078 -0.09013,0.195094 -0.09084,0.260452 -0.0023,0.175651 0.253432,0.144654 0.324039,-0.03937 0.06341,-0.165203 -0.03235,-0.312699 -0.134463,-0.296792 z m 7.643927,1.797715 c -0.07548,0.0047 -0.134463,0.04066 -0.134463,0.116296 0,0.07771 0.05392,0.163212 0.11932,0.189585 0.242425,0.09781 0.369516,0.0588 0.338584,-0.103579 -0.02497,-0.130728 -0.197557,-0.210201 -0.323441,-0.202303 z m -43.310516,0.580864 c -0.950566,-0.0043 -2.017376,0.01728 -3.26714,0.05936 -3.779422,0.127325 -5.990281,0.287625 -8.794145,0.6378 -4.173399,0.521218 -7.361335,1.240689 -9.476768,2.093901 v 1.0521 c 3.53075,-1.557701 11.546979,-2.739043 19.702785,-2.800145 0.676495,-0.005 1.353908,-0.0028 2.029699,0.0079 3.641313,0.05797 4.582366,0.179747 8.660281,1.120542 0.846983,0.195394 1.157882,0.209432 4.991573,0.225924 3.267332,0.01408 4.326429,0.0504 5.27624,0.181106 3.025036,0.416277 5.048348,1.068399 5.553652,1.789839 0.970405,1.38544 -2.473118,3.647064 -7.850463,5.155711 -2.270075,0.636884 -3.470223,0.772272 -8.113341,0.914002 -3.864302,0.117956 -3.855602,0.116131 -9.127276,1.507582 -2.377201,0.627468 -3.595198,0.89655 -4.991566,1.101164 -2.587911,0.379206 -4.602115,0.202292 -5.708715,-0.500916 -0.535616,-0.340367 -0.880147,-0.775614 -1.47851,-1.866763 -0.605715,-1.10456 -1.399112,-1.959459 -2.163558,-2.331941 -0.632091,-0.307992 -0.667436,-0.317611 -3.911604,-1.052706 -1.254548,-0.284273 -2.151819,-0.527789 -2.869197,-0.758945 v 1.16355 c 0.940221,0.276939 2.203333,0.586492 3.957638,0.984259 1.019766,0.231221 2.077999,0.529827 2.351929,0.663848 0.635351,0.310846 1.090764,0.831556 1.743203,1.994567 1.046752,1.865899 2.045063,2.586504 4.001248,2.888578 0.881474,0.136117 3.279838,0.04432 4.600889,-0.17626 1.629662,-0.272109 2.611041,-0.496352 5.514285,-1.259854 4.12114,-1.083787 3.718236,-1.023808 7.868638,-1.169603 3.788917,-0.133096 4.042406,-0.149817 5.821981,-0.391282 2.17932,-0.295706 5.81087,-1.437709 7.868033,-2.473674 2.133678,-1.074509 3.493618,-2.427827 3.656001,-3.638434 0.200288,-1.493348 -1.729456,-2.671997 -5.296846,-3.235647 -2.458115,-0.388373 -4.629417,-0.488154 -8.746896,-0.400973 -1.757762,0.03721 -2.028365,0.0015 -4.563334,-0.606909 -2.57917,-0.619093 -4.387012,-0.864725 -7.238716,-0.877659 z m 42.615168,0.689286 c -0.0177,0.0025 -0.03247,0.0088 -0.0436,0.02001 -0.03258,0.03257 -0.01172,0.116987 0.04665,0.187162 0.12436,0.14984 0.23946,0.163026 0.317381,0.03695 0.05638,-0.09117 -0.19669,-0.26232 -0.320417,-0.244097 z m -44.620032,0.757126 c -0.02466,-0.02466 -0.802324,0.218769 -1.728059,0.540889 -1.235038,0.429749 -1.669616,0.620432 -1.632965,0.715935 0.02747,0.07159 0.358428,1.241535 0.735319,2.600268 0.376891,1.358729 0.731011,2.470644 0.786803,2.470644 0.09044,0 3.58223,-1.137438 3.644492,-1.187169 0.03135,-0.02506 -1.743715,-5.078693 -1.80559,-5.140567 z m 9.755388,0.886138 c -0.02696,-0.0022 -0.0429,-0.0013 -0.04665,0.003 -0.07091,0.08145 -1.606313,4.890895 -1.606313,5.031543 0,0.05531 0.331885,0.189029 0.737136,0.296792 0.405248,0.107763 1.207374,0.323407 1.78257,0.479111 0.575196,0.155697 1.094917,0.285888 1.155069,0.289523 0.121172,0.0075 1.439736,-5.17813 1.34162,-5.276245 -0.101152,-0.101117 -2.958121,-0.793452 -3.363444,-0.82375 z m -10.268414,0.887349 c 0.193183,0.01125 0.335243,0.116296 0.49001,0.319201 0.283041,0.371083 0.260426,0.465871 -0.144156,0.60691 -0.229786,0.0801 -0.299576,0.0709 -0.367054,-0.04966 -0.07133,-0.127442 -0.134078,-0.132396 -0.436103,-0.03271 -0.194042,0.06404 -0.374089,0.17257 -0.400367,0.241066 -0.02629,0.0685 0.126697,0.542089 0.339796,1.0521 0.213102,0.510008 0.37663,0.935555 0.36342,0.946101 -0.01321,0.01043 -0.117762,0.06782 -0.231982,0.127199 -0.340218,0.176854 -0.23669,0.336161 -1.027266,-1.583298 -0.361812,-0.878449 -0.36718,-1.039646 -0.03694,-1.1054 0.0722,-0.01439 0.366558,-0.13905 0.654155,-0.27741 0.359303,-0.17286 0.603311,-0.255391 0.796494,-0.244096 z m 10.666963,0.763178 c 0.03387,0.006 0.07068,0.01768 0.111467,0.03392 0.09154,0.0365 0.372575,0.08193 0.624471,0.100543 0.251908,0.01864 0.594336,0.112697 0.760763,0.209571 0.264847,0.154166 0.306094,0.23346 0.331915,0.635983 l 0.02965,0.460334 -0.302847,-0.06057 c -0.166555,-0.0333 -0.343214,-0.06057 -0.392489,-0.06057 -0.04923,0 -0.064,-0.08255 -0.03212,-0.182919 0.06048,-0.190738 0.01055,-0.21952 -0.582685,-0.338587 -0.333873,-0.06701 -0.296694,-0.155193 -0.608121,1.450648 -0.06365,0.328093 -0.141671,0.610256 -0.173834,0.626901 -0.03211,0.01666 -0.165465,0.0015 -0.296189,-0.03331 -0.280167,-0.07445 -0.280753,-0.06373 0.01875,-1.652953 0.186423,-0.98909 0.273932,-1.231008 0.511211,-1.18899 z m -3.71051,0.597219 c -0.0353,-0.0028 -0.07901,0.0013 -0.13507,0.01031 -0.137377,0.02195 -1.009479,0.0672 -1.937631,0.100543 l -1.687479,0.06117 v 2.556656 c 0,1.978645 0.02674,2.557793 0.118718,2.562713 0.06536,0.0035 0.867494,0.084 1.782571,0.178683 0.915081,0.09467 1.76062,0.177685 1.878274,0.184132 l 0.213811,0.01149 -0.0012,-2.496087 c -5.89e-4,-1.372622 -0.02737,-2.653895 -0.05936,-2.847391 -0.03916,-0.236902 -0.06672,-0.313591 -0.172624,-0.322234 z M 41.52077,39.12888 c -0.02409,0.02658 -1.629604,5.04388 -1.899473,5.93585 l -0.118716,0.3931 2.29257,0.718964 c 2.131265,0.668392 2.625706,0.797596 2.625706,0.685652 0,-0.02406 0.38965,-1.382648 0.86615,-3.018804 0.476501,-1.636155 0.872325,-3.011631 0.879476,-3.056358 0.01233,-0.07673 -4.590146,-1.719695 -4.645713,-1.658404 z m 11.698472,0.07632 h 0.328894 v 1.018179 1.018786 l 0.45488,-0.448216 c 0.386903,-0.381085 0.510239,-0.448219 0.828597,-0.448219 h 0.374322 l -0.608122,0.614179 -0.608727,0.613575 0.540889,0.812241 0.540284,0.812243 h -0.26772 c -0.219523,0 -0.349202,-0.111643 -0.724416,-0.622658 -0.438375,-0.597036 -0.464881,-0.615726 -0.636589,-0.460333 -0.123052,0.111361 -0.178682,0.290956 -0.178682,0.574809 0,0.393178 -0.01354,0.413087 -0.278015,0.413087 h -0.278016 l 0.04482,-1.639628 c 0.06195,-2.259866 0.06159,-2.258045 0.4676,-2.258045 z m -10.954067,0.847372 c 0.142316,-0.0013 0.476011,0.09535 1.082989,0.3083 0.616265,0.216215 1.214503,0.454274 1.32951,0.529381 0.632101,0.412811 0.396012,1.817291 -0.417932,2.488213 -0.278123,0.229249 -0.329585,0.3173 -0.239251,0.407634 0.160284,0.160281 0.144326,0.981229 -0.02544,1.309523 -0.07739,0.149656 -0.254277,0.361436 -0.393099,0.470629 -0.362163,0.284881 -0.784167,0.244112 -1.981847,-0.191402 -0.573104,-0.208399 -1.055573,-0.392321 -1.072088,-0.408847 -0.02243,-0.02242 1.346367,-4.10754 1.635388,-4.880723 0.008,-0.02127 0.03433,-0.03234 0.08177,-0.0327 z m 1.073298,0.946706 c -0.180411,0.02022 -0.305713,0.242876 -0.480319,0.734717 -0.141055,0.397334 -0.243152,0.732467 -0.226532,0.745008 0.01662,0.01253 0.201503,0.09147 0.410664,0.175653 0.209161,0.08418 0.407685,0.155625 0.440949,0.158086 0.111549,0.009 0.394776,-0.696161 0.439737,-1.095103 0.03765,-0.33396 0.0098,-0.418952 -0.178075,-0.550581 -0.170349,-0.119318 -0.298178,-0.179899 -0.406424,-0.16778 z m 27.307342,0.346461 c -0.190326,0.0055 -0.464269,0.09719 -0.850405,0.275592 -1.879731,0.868492 -4.932288,1.386448 -8.167856,1.386448 -1.130127,0 -1.235815,0.01511 -1.329512,0.190189 -0.07337,0.136893 -0.07103,0.247279 0.007,0.393704 0.107716,0.20136 0.130924,0.202798 2.308919,0.147789 2.887841,-0.07293 4.407949,-0.294574 6.414958,-0.935805 1.52878,-0.488442 2.087544,-0.834221 1.966102,-1.216847 -0.05263,-0.16578 -0.159159,-0.246544 -0.349484,-0.24107 z M 42.18401,43.15739 c -0.0512,0.0025 -0.08045,0.02481 -0.09631,0.06784 -0.02338,0.06347 -0.146184,0.423401 -0.273171,0.799521 l -0.230771,0.683835 0.253788,0.09268 c 0.57756,0.211487 0.682961,0.133555 0.918846,-0.680806 0.179847,-0.620893 0.132827,-0.746183 -0.341615,-0.911579 -0.105888,-0.03691 -0.179573,-0.05406 -0.230772,-0.05148 z"
       inkscape:label="graphic" />
  </g>
</svg>
