<?xml version="1.0" encoding="UTF-8" standalone="no"?>
<!-- Created with Inkscape (http://www.inkscape.org/) -->

<svg
   width="1920"
   height="1080"
   viewBox="0 0 1920 1080"
   version="1.1"
   id="svg1"
   inkscape:version="1.3.1 (91b66b0783, 2023-11-16)"
   sodipodi:docname="sexyrodent-hero.svg"
   inkscape:export-filename="..\assets\images\sexyrodent-hero.png"
   inkscape:export-xdpi="96"
   inkscape:export-ydpi="96"
   xmlns:inkscape="http://www.inkscape.org/namespaces/inkscape"
   xmlns:sodipodi="http://sodipodi.sourceforge.net/DTD/sodipodi-0.dtd"
   xmlns="http://www.w3.org/2000/svg"
   xmlns:svg="http://www.w3.org/2000/svg">
  <sodipodi:namedview
     id="namedview1"
     pagecolor="#000000"
     bordercolor="#000000"
     borderopacity="0.25"
     inkscape:showpageshadow="2"
     inkscape:pageopacity="0.0"
     inkscape:pagecheckerboard="0"
     inkscape:deskcolor="#d1d1d1"
     inkscape:document-units="mm"
     inkscape:zoom="0.38351221"
     inkscape:cx="640.13608"
     inkscape:cy="666.21087"
     inkscape:window-width="1920"
     inkscape:window-height="1057"
     inkscape:window-x="-8"
     inkscape:window-y="-8"
     inkscape:window-maximized="1"
     inkscape:current-layer="layer1" />
  <defs
     id="defs1" />
  <g
     inkscape:label="Calque 1"
     inkscape:groupmode="layer"
     id="layer1">
    <g
       id="g2"
       transform="matrix(15.336766,0,0,15.336766,-234.98514,42.8022)">
      <path
         style="display:inline;fill:#ffffff;fill-opacity:1;stroke-width:0.106502"
         d="m 61.353908,43.085114 c -0.192514,0.126061 -0.243006,0.124296 -0.356563,-0.01257 -0.08938,-0.107687 -0.1093,-0.326551 -0.06141,-0.674685 0.06617,-0.481202 0.05278,-0.523527 -0.20258,-0.639878 -0.20667,-0.09416 -0.273446,-0.203985 -0.273446,-0.449724 0,-0.191973 0.06598,-0.350448 0.161107,-0.386953 0.08861,-0.03401 0.23182,-0.0032 0.318247,0.06859 0.125148,0.103864 0.165906,0.100867 0.200201,-0.01469 0.02367,-0.07981 0.14006,-0.504568 0.258604,-0.943887 0.118544,-0.439322 0.213268,-0.870655 0.210485,-0.958518 -0.0028,-0.08786 0.216902,-0.815078 0.488174,-1.616027 0.271271,-0.800954 0.493225,-1.525861 0.493225,-1.610907 0,-0.08504 0.122277,-0.431123 0.271731,-0.769065 0.149453,-0.337938 0.249425,-0.672566 0.222158,-0.74362 -0.02725,-0.07105 -0.1987,-0.159016 -0.380961,-0.195468 -0.182255,-0.03647 -0.449429,-0.184326 -0.593715,-0.328608 -0.205977,-0.205981 -0.242961,-0.31511 -0.172165,-0.508005 0.05905,-0.160886 0.193012,-0.257851 0.388181,-0.280972 0.16391,-0.0194 0.494223,0.0449 0.734029,0.142941 0.239802,0.09803 0.588862,0.251696 0.775679,0.341476 0.186821,0.08978 0.940023,0.552936 1.673781,1.029242 0.984228,0.638892 1.487947,1.047381 1.92072,1.557609 0.451141,0.531888 0.610502,0.814586 0.690038,1.224118 0.05688,0.292879 0.133051,0.86799 0.169262,1.278024 0.06165,0.698213 0.04344,0.789437 -0.287027,1.43778 -0.352042,0.690641 -0.355491,0.693583 -1.47525,1.256623 -0.814023,0.409309 -1.282187,0.578416 -1.704032,0.615517 -0.319909,0.02814 -0.661103,0.07553 -0.758212,0.105337 -0.09711,0.02979 -0.633176,0.05698 -1.191257,0.0604 l -1.014695,0.0062 -0.140019,0.431417 c -0.07701,0.237278 -0.240941,0.497503 -0.364287,0.578282 z M 63.703263,41.1745 c 0.524462,-0.04489 1.147497,-0.133812 1.384526,-0.197616 0.237032,-0.06381 0.774805,-0.279161 1.195056,-0.478565 0.57061,-0.270744 0.826807,-0.463418 1.011767,-0.760901 0.206437,-0.332013 0.244203,-0.52521 0.226789,-1.160181 -0.01143,-0.419008 -0.08897,-0.922231 -0.172181,-1.11827 -0.08322,-0.196043 -0.31152,-0.52418 -0.507357,-0.729198 -0.195839,-0.205016 -0.508775,-0.468607 -0.695416,-0.585763 -0.186643,-0.117148 -0.689626,-0.466235 -1.117746,-0.775743 -0.428115,-0.309507 -0.844977,-0.549135 -0.926364,-0.532511 -0.08139,0.01662 -0.317594,0.485528 -0.524907,1.042002 -0.207311,0.556471 -0.463281,1.203473 -0.568821,1.437777 -0.10554,0.234303 -0.222891,0.617709 -0.260785,0.852016 -0.03788,0.234304 -0.205402,0.857341 -0.372238,1.384526 -0.166835,0.527186 -0.333768,1.111198 -0.370952,1.297806 -0.06578,0.330072 -0.05657,0.340195 0.338726,0.37276 0.223488,0.0184 0.835442,-0.0032 1.359903,-0.04814 z m -20.837067,1.945392 c -0.110086,0 -0.214873,-0.106785 -0.25271,-0.257541 -0.03554,-0.14165 -0.0081,-0.53704 0.06087,-0.878645 0.06903,-0.341602 0.261738,-1.178295 0.428247,-1.859319 0.166505,-0.681016 0.544338,-1.842711 0.839624,-2.581537 0.295286,-0.738827 0.629972,-1.525785 0.743741,-1.748793 0.11377,-0.223009 0.240153,-0.582964 0.280851,-0.799899 0.05124,-0.27311 0.130266,-0.394428 0.256942,-0.394428 0.115166,0 0.27491,-0.196345 0.431138,-0.529903 0.136505,-0.291442 0.352261,-0.627669 0.479463,-0.747167 0.229243,-0.215365 0.232918,-0.215446 0.419486,-0.0093 0.160141,0.176951 0.170084,0.262931 0.06666,0.576322 -0.06686,0.202593 -0.308775,0.6356 -0.537588,0.962242 -0.228812,0.326644 -0.369649,0.622557 -0.312965,0.65759 0.05669,0.03502 0.257944,-0.02963 0.447249,-0.143687 0.189305,-0.114062 0.603931,-0.291719 0.921393,-0.394802 0.317461,-0.10309 0.876325,-0.190283 1.241916,-0.193773 0.402484,-0.0041 0.731478,0.04906 0.833949,0.134102 0.0944,0.07835 0.169235,0.301847 0.169235,0.505458 0,0.200751 -0.06944,0.499286 -0.154314,0.663413 -0.08487,0.164123 -0.322738,0.437318 -0.528595,0.607096 -0.205851,0.169777 -0.514333,0.415622 -0.685504,0.546319 -0.171175,0.130695 -0.439647,0.286454 -0.596609,0.346132 -0.156961,0.05967 -0.426043,0.108499 -0.597958,0.108499 -0.171916,0 -0.312574,0.02616 -0.312574,0.05811 0,0.03196 0.165478,0.643009 0.367728,1.357901 0.202254,0.714889 0.400265,1.491501 0.440027,1.725805 0.03977,0.234303 0.117249,0.512953 0.172185,0.619223 0.07852,0.15187 0.172369,0.177822 0.438618,0.121275 0.186297,-0.03957 0.419022,-0.142693 0.517166,-0.229167 0.09815,-0.08647 0.299803,-0.404638 0.448135,-0.707032 0.14833,-0.302399 0.562708,-0.837369 0.920836,-1.188825 l 0.651148,-0.639012 -0.07299,0.426007 c -0.04013,0.234304 -0.247269,0.686543 -0.46027,1.004974 -0.212997,0.318427 -0.674824,0.888825 -1.026279,1.267551 -0.351458,0.378722 -0.795869,0.754304 -0.987576,0.834632 -0.253332,0.106151 -0.405429,0.115611 -0.556694,0.03466 -0.114468,-0.06126 -0.260183,-0.208647 -0.323802,-0.327521 -0.06362,-0.118875 -0.179439,-0.513162 -0.25738,-0.876201 -0.07793,-0.363036 -0.312989,-1.235181 -0.522332,-1.938093 -0.209346,-0.702915 -0.431953,-1.481712 -0.494686,-1.730659 -0.06669,-0.264678 -0.176435,-0.452634 -0.264279,-0.452634 -0.08263,0 -0.273147,0.161155 -0.423382,0.35812 -0.150235,0.196969 -0.351885,0.592359 -0.448117,0.878645 -0.09623,0.286285 -0.260259,0.630946 -0.364513,0.765909 -0.104245,0.134967 -0.28726,0.542338 -0.406682,0.905268 -0.11942,0.362931 -0.295616,0.971396 -0.391546,1.352143 -0.09593,0.380742 -0.227235,0.94387 -0.291796,1.251397 -0.08799,0.419111 -0.164485,0.559135 -0.305453,0.559135 z m 4.006639,-6.284018 c 0.12158,-2.21e-4 0.388806,-0.102137 0.593821,-0.226493 0.205015,-0.124348 0.55248,-0.36783 0.772139,-0.541062 0.21966,-0.173232 0.399384,-0.350879 0.399384,-0.39477 0,-0.04389 -0.08388,-0.08347 -0.186379,-0.08795 -0.102518,-0.0044 -0.545822,0.08619 -0.985144,0.201469 -0.439322,0.115293 -0.911129,0.28278 -1.048459,0.372201 l -0.249692,0.162589 0.241633,0.257207 c 0.132894,0.141461 0.341111,0.257026 0.462697,0.256809 z m 37.763005,6.280757 c -0.08788,0 -0.220541,-0.0386 -0.29483,-0.08573 -0.07429,-0.04715 -0.178356,-0.23665 -0.231259,-0.421108 -0.06311,-0.219978 -0.04673,-0.65715 0.04749,-1.270538 0.07911,-0.514337 0.198332,-1.174793 0.265064,-1.467671 0.0668,-0.29288 0.212072,-0.867991 0.322942,-1.278025 0.110861,-0.410035 0.228174,-1.209185 0.260658,-1.775891 l 0.05905,-1.030378 -0.610762,-0.177555 c -0.335924,-0.09765 -0.791924,-0.269979 -1.013355,-0.38294 -0.287982,-0.146918 -0.402576,-0.274495 -0.402576,-0.448174 0,-0.133534 0.05524,-0.29806 0.122798,-0.365608 0.08229,-0.08237 0.185286,-0.08939 0.312465,-0.0213 0.104258,0.05582 0.531432,0.173397 0.949162,0.261269 0.417727,0.08788 0.848346,0.159767 0.95693,0.159767 0.153416,0 0.249699,-0.17607 0.431877,-0.789695 0.173149,-0.583278 0.289734,-0.804161 0.446032,-0.845037 0.116449,-0.03043 0.327517,-0.0113 0.46917,0.04259 0.141643,0.05386 0.283337,0.165128 0.314856,0.247269 0.03149,0.08214 -0.01968,0.522174 -0.113782,0.977847 -0.0941,0.455677 -0.149212,0.885625 -0.122417,0.955444 0.02679,0.06982 0.474608,0.238058 0.995144,0.373866 0.939571,0.245136 0.946098,0.249165 0.901055,0.556048 -0.02489,0.170015 -0.104892,0.331949 -0.177539,0.359843 -0.07264,0.0279 -0.424638,-0.0478 -0.78207,-0.168212 -0.357449,-0.120411 -0.807163,-0.217227 -0.999386,-0.215143 -0.321291,0.0037 -0.373116,0.05452 -0.64237,0.632589 -0.161082,0.345839 -0.292871,0.729081 -0.292871,0.851647 0,0.12257 -0.07581,0.401034 -0.168578,0.618814 -0.0927,0.217779 -0.215843,0.803332 -0.27361,1.30123 -0.05778,0.497894 -0.137665,1.422311 -0.177552,2.054259 -0.05346,0.845987 -0.114671,1.175566 -0.232276,1.249766 -0.08788,0.05543 -0.23164,0.100779 -0.3195,0.100779 z M 54.123033,42.725536 c -0.430467,0.123547 -0.614144,0.128382 -0.958519,0.02525 -0.234303,-0.07019 -0.569898,-0.202632 -0.745766,-0.294345 -0.175869,-0.09171 -0.398164,-0.255529 -0.493994,-0.364034 -0.09584,-0.1085 -0.299404,-0.547602 -0.452385,-0.975767 -0.177317,-0.496295 -0.278142,-1.000417 -0.278142,-1.390728 0,-0.500885 0.07423,-0.756389 0.408058,-1.404804 0.224438,-0.435909 0.547937,-1.03423 0.718891,-1.329597 0.170956,-0.295366 0.475215,-0.739443 0.676137,-0.986829 0.200921,-0.247384 0.608291,-0.630059 0.905267,-0.850382 0.296978,-0.22032 0.899404,-0.574577 1.338726,-0.787236 0.439319,-0.212659 1.050375,-0.460391 1.357899,-0.550509 0.499455,-0.146366 0.616652,-0.146777 1.097994,-0.0041 0.296369,0.08802 0.72176,0.325266 0.945311,0.527231 0.308152,0.278395 0.459606,0.540969 0.626217,1.085635 0.120868,0.395138 0.244044,1.005985 0.273722,1.357441 0.04868,0.576414 0.01824,0.706825 -0.310558,1.331274 -0.200486,0.380747 -0.46091,0.889554 -0.578721,1.130684 -0.117808,0.241135 -0.442431,0.729846 -0.721386,1.086031 -0.278952,0.356185 -0.722854,0.80867 -0.986446,1.005518 -0.263595,0.196848 -0.886631,0.555515 -1.384529,0.79704 -0.497894,0.241525 -1.144898,0.507909 -1.437776,0.59197 z m 0.14679,-1.107679 c 0.139306,0.0061 0.515903,-0.139243 0.83687,-0.322883 0.320972,-0.183642 0.889554,-0.620114 1.263518,-0.969939 0.47268,-0.442168 0.76578,-0.827343 0.961582,-1.263639 0.154905,-0.345175 0.323028,-0.627592 0.373601,-0.627592 0.05058,0 0.09197,-0.07788 0.09197,-0.173063 0,-0.09519 0.124195,-0.449808 0.275992,-0.78806 0.267324,-0.595672 0.27136,-0.635864 0.128499,-1.279043 l -0.147497,-0.664045 -0.721092,-0.266546 -0.721087,-0.266542 -0.787956,0.399944 c -0.523641,0.265789 -0.975409,0.60115 -1.346789,0.99976 -0.307358,0.3299 -0.732222,0.914921 -0.944136,1.300052 -0.211923,0.385135 -0.470028,0.960245 -0.573574,1.278024 -0.103546,0.317784 -0.237128,0.637262 -0.296851,0.709951 -0.06361,0.07741 -0.0788,0.330853 -0.03662,0.611877 0.04013,0.267592 0.187135,0.616624 0.332447,0.78932 0.143284,0.170282 0.439919,0.357259 0.659187,0.415509 0.219273,0.05825 0.512659,0.110861 0.65197,0.116919 z m 25.636672,1.182528 c -0.07899,0 -0.193189,-0.05991 -0.25375,-0.133127 -0.06057,-0.07322 -0.157542,-0.372757 -0.215487,-0.665636 -0.05791,-0.292883 -0.163943,-0.700253 -0.23551,-0.905268 -0.07162,-0.205016 -0.194217,-0.516535 -0.272544,-0.692262 -0.07835,-0.175733 -0.215665,-0.611818 -0.305179,-0.969086 -0.08953,-0.357267 -0.158517,-0.836524 -0.153323,-1.065019 0.0051,-0.228495 -0.072,-0.726965 -0.171473,-1.107707 -0.09956,-0.380747 -0.202484,-0.762065 -0.228809,-0.847376 -0.03518,-0.113808 -0.11683,-0.07125 -0.306954,0.159754 -0.142494,0.173176 -0.343886,0.49277 -0.447534,0.710212 -0.131067,0.274962 -0.241307,0.379414 -0.36202,0.343022 -0.124906,-0.03764 -0.221954,0.06859 -0.346134,0.378947 -0.09491,0.237202 -0.172564,0.499984 -0.172564,0.583966 0,0.08398 -0.138114,0.578803 -0.306923,1.099609 -0.168808,0.520806 -0.362198,1.050198 -0.429753,1.176427 -0.06756,0.126227 -0.218501,0.229513 -0.335432,0.229513 -0.116931,0 -0.238026,-0.06625 -0.269097,-0.147232 -0.03107,-0.08098 0.0149,-0.40448 0.102188,-0.718891 0.08727,-0.314409 0.406206,-1.287596 0.708742,-2.162634 0.302536,-0.875039 0.665427,-1.742228 0.806428,-1.927089 0.141001,-0.18486 0.256365,-0.37574 0.256365,-0.424176 0,-0.04843 0.06717,-0.163723 0.149262,-0.2562 0.08208,-0.09247 0.171927,-0.445019 0.199649,-0.783422 0.04368,-0.533499 0.100956,-0.664448 0.431216,-0.985146 0.209452,-0.203422 0.45628,-0.369859 0.5485,-0.369859 0.09219,0 0.210433,0.112474 0.262689,0.249942 0.05232,0.137467 0.0988,0.676636 0.103369,1.198147 0.0051,0.521514 0.10629,1.427467 0.225964,2.013225 0.119751,0.585762 0.259553,1.232764 0.310742,1.437779 0.05118,0.205016 0.2024,0.892423 0.335992,1.527576 0.19903,0.946173 0.260328,1.109732 0.339289,0.905269 0.05295,-0.137255 0.182619,-0.608997 0.288033,-1.048319 0.105401,-0.439318 0.22524,-1.062359 0.26627,-1.384526 0.04102,-0.322171 0.160845,-0.784449 0.266216,-1.02729 0.105401,-0.242841 0.223272,-0.602282 0.261966,-0.798764 0.03873,-0.196481 0.108829,-0.453089 0.155891,-0.570244 0.04711,-0.117147 0.140107,-0.384144 0.206798,-0.593321 0.06667,-0.209174 0.121274,-0.461437 0.121274,-0.56058 0,-0.09914 0.05994,-0.287445 0.133135,-0.418448 0.07327,-0.131003 0.139447,-0.252497 0.147181,-0.269995 0.0076,-0.01751 0.144043,8.05e-4 0.302902,0.04069 0.24147,0.0606 0.28057,0.118226 0.238422,0.351317 -0.02768,0.153347 -0.154139,0.677732 -0.280925,1.165294 -0.126735,0.487561 -0.318446,1.1106 -0.425929,1.384529 -0.107433,0.273923 -0.277252,0.929383 -0.377243,1.456566 -0.09994,0.527185 -0.302005,1.413817 -0.448906,1.970291 -0.146896,0.55647 -0.359832,1.335267 -0.473182,1.730655 -0.123306,0.430317 -0.263769,0.718889 -0.349749,0.718889 z m -6.978948,-0.114518 c -0.09166,-0.0044 -0.550631,-0.141054 -1.019934,-0.303655 -0.469306,-0.162602 -1.006092,-0.37466 -1.192861,-0.471243 -0.186769,-0.09659 -0.389884,-0.175603 -0.45137,-0.175603 -0.06149,0 -0.111788,0.146171 -0.111788,0.32482 v 0.324824 l -0.612385,-0.03193 -0.612389,-0.03196 0.0032,-0.798767 c 0.002,-0.43932 0.111496,-1.294685 0.243767,-1.900807 0.13227,-0.606126 0.269145,-1.492754 0.304165,-1.970292 0.03502,-0.47753 0.11048,-0.927621 0.167689,-1.000196 0.05721,-0.07257 0.147506,-0.105071 0.200673,-0.07222 0.05317,0.03285 0.16316,-0.09946 0.24443,-0.29405 0.08127,-0.194591 0.227895,-0.663144 0.325837,-1.04123 0.162074,-0.62566 0.162951,-0.698489 0.0098,-0.810505 -0.09257,-0.0677 -0.168317,-0.192505 -0.168317,-0.277358 0,-0.08485 0.06371,-0.241399 0.141561,-0.347876 0.117706,-0.160975 0.180799,-0.172592 0.374483,-0.06893 0.211726,0.113312 0.238707,0.09578 0.296401,-0.192714 0.0349,-0.174552 0.133437,-0.344217 0.218947,-0.377027 0.08551,-0.0328 0.36824,-0.0061 0.628285,0.05939 0.351286,0.08846 0.488507,0.181609 0.533892,0.362436 0.03361,0.133865 0.0088,0.341202 -0.05524,0.460754 -0.09786,0.182843 -0.07302,0.247855 0.156378,0.409301 0.149994,0.105566 0.466396,0.347696 0.703115,0.538066 0.236722,0.190376 0.516592,0.346134 0.621933,0.346134 0.10535,0 0.220625,0.07581 0.25618,0.168462 0.03554,0.09266 0.06465,0.257726 0.06465,0.366819 0,0.109097 -0.107827,0.32135 -0.239628,0.471674 l -0.239633,0.27332 -0.82973,-0.475872 c -0.817872,-0.469073 -0.830969,-0.472515 -0.916458,-0.240756 -0.04771,0.129316 -0.171731,0.498712 -0.275615,0.820879 -0.103889,0.322171 -0.210067,0.641118 -0.235954,0.708779 -0.02688,0.07027 0.104537,0.15533 0.306582,0.198397 0.194505,0.04146 0.619546,0.255443 0.944535,0.475521 0.324987,0.220075 0.74292,0.478755 0.928734,0.574842 0.185819,0.09609 0.392006,0.2759 0.458198,0.399585 0.09929,0.185525 0.08157,0.26366 -0.101261,0.446488 l -0.221611,0.221619 -0.774225,-0.363632 C 72.576765,39.191358 72.10855,38.924048 71.96211,38.797333 71.81567,38.670611 71.576042,38.540855 71.429598,38.50897 c -0.14644,-0.03189 -0.367826,-0.08976 -0.491965,-0.128608 -0.205937,-0.06445 -0.231293,-0.02089 -0.289365,0.497286 -0.03502,0.312354 -0.09529,0.819531 -0.133969,1.127054 -0.06982,0.555137 -0.06824,0.559134 0.22042,0.559134 0.159904,0 0.695068,0.189478 1.189256,0.42106 0.494186,0.231586 0.965285,0.395444 1.046889,0.364127 0.0912,-0.03499 0.212852,0.06776 0.315738,0.266719 0.153303,0.296449 0.152248,0.355359 -0.01257,0.700896 -0.09894,0.207483 -0.254889,0.373631 -0.346548,0.369223 z M 70.900035,31.708214 c -0.03091,-0.0088 -0.18866,-0.03599 -0.350577,-0.06047 -0.213585,-0.03228 -0.352582,-0.158555 -0.506339,-0.459948 -0.116563,-0.228486 -0.278727,-0.701725 -0.360359,-1.051639 -0.106061,-0.454663 -0.122113,-0.812703 -0.05622,-1.25475 0.05071,-0.340202 0.139793,-0.941996 0.197983,-1.337319 0.05819,-0.395322 0.160608,-0.922509 0.227601,-1.171524 0.06699,-0.249011 0.184679,-0.57446 0.261534,-0.723213 0.136956,-0.265097 0.132918,-0.269665 -0.203466,-0.230395 -0.220085,0.02568 -0.392258,-0.01903 -0.479973,-0.124754 -0.07523,-0.09064 -0.162747,-0.358393 -0.194481,-0.594995 -0.03172,-0.236602 -0.09388,-0.430185 -0.138092,-0.430185 -0.04422,0 -0.105147,-0.155758 -0.135409,-0.34613 -0.04381,-0.275662 0.07556,-0.606335 0.586329,-1.624158 0.352738,-0.702913 0.767446,-1.481623 0.92157,-1.730465 0.159658,-0.257779 0.361856,-0.452525 0.469947,-0.452634 0.104347,-1.05e-4 0.215464,0.0669 0.246926,0.148883 0.03148,0.082 -0.01356,0.381528 -0.10008,0.665639 -0.08651,0.284108 -0.353387,0.936782 -0.59306,1.450387 -0.324006,0.694327 -0.435764,1.067897 -0.435764,1.456594 0,0.411512 0.03965,0.531352 0.186378,0.563091 0.102506,0.02219 0.462142,-0.05066 0.79919,-0.161863 0.435068,-0.143546 0.705925,-0.315148 0.93386,-0.591652 0.176577,-0.214201 0.513275,-0.758929 0.748213,-1.2105 0.234944,-0.451568 0.469826,-0.847397 0.521958,-0.87962 0.05214,-0.0322 0.170588,0.01723 0.263225,0.109859 0.0928,0.09279 0.146689,0.272583 0.120005,0.400361 -0.02664,0.127557 -0.122532,0.576867 -0.213103,0.998461 -0.09057,0.421599 -0.164665,0.816986 -0.164665,0.878645 0,0.07419 0.639261,0.11269 1.890409,0.113833 1.349796,0.0012 2.204211,0.05723 2.987678,0.195798 0.635119,0.112334 1.168824,0.265648 1.267203,0.364025 0.144945,0.144939 0.15005,0.218034 0.03467,0.49647 -0.07442,0.17958 -0.174534,0.326506 -0.222549,0.326506 -0.048,0 -0.118988,-0.05119 -0.157589,-0.113757 -0.03873,-0.06257 -0.141897,-0.0863 -0.22938,-0.05273 -0.08749,0.03358 -0.376281,-0.03506 -0.641773,-0.152493 -0.428765,-0.189663 -0.712531,-0.213529 -2.539033,-0.213529 -1.130977,0 -2.174755,0.04503 -2.319509,0.100067 -0.218503,0.08308 -0.29264,0.229569 -0.436678,0.862838 -0.09542,0.419525 -0.222436,1.153293 -0.282263,1.630593 -0.05982,0.477302 -0.254535,1.333962 -0.432686,1.903684 -0.178154,0.56972 -0.468074,1.253498 -0.644269,1.519501 -0.176189,0.266006 -0.421796,0.554703 -0.545791,0.641548 -0.123992,0.08685 -0.250722,0.150726 -0.281621,0.141947 z M 70.69859,30.872157 c 0.05233,0 0.190963,-0.155758 0.308075,-0.346134 0.117109,-0.190371 0.30615,-0.657649 0.420097,-1.038392 0.113947,-0.380747 0.35249,-1.411154 0.530098,-2.289799 0.177606,-0.878641 0.323341,-1.729327 0.323848,-1.89041 4.03e-4,-0.161084 -0.03079,-0.292879 -0.06959,-0.292879 -0.03881,0 -0.278727,0.122011 -0.533196,0.271143 -0.318451,0.186628 -0.542704,0.429074 -0.719412,0.777795 -0.172218,0.339854 -0.314934,0.925524 -0.433506,1.779019 -0.09722,0.699801 -0.179384,1.522827 -0.182575,1.828937 -0.0032,0.30611 0.05424,0.701501 0.127609,0.878641 0.07337,0.177144 0.176222,0.322079 0.228554,0.322079 z M 64.347855,30.44615 c -0.160971,0 -0.263543,-0.08026 -0.306256,-0.239633 -0.0353,-0.131796 -0.06487,-0.706907 -0.06567,-1.278025 -8.05e-4,-0.571116 -0.03211,-1.038393 -0.06965,-1.038393 -0.03751,0 -0.421861,0.359441 -0.854111,0.798764 -0.558949,0.568091 -0.862201,0.798768 -1.050073,0.798768 -0.145293,0 -0.360017,-0.09585 -0.477168,-0.213005 -0.117147,-0.117147 -0.213005,-0.258443 -0.213005,-0.313976 0,-0.05553 0.232148,-0.379038 0.515891,-0.718891 0.283737,-0.339854 0.857918,-0.939692 1.27596,-1.332978 l 0.760071,-0.715057 0.106176,-1.25523 c 0.05839,-0.690375 0.11095,-1.303155 0.116792,-1.36173 0.0058,-0.05858 0.0051,-0.34613 -0.0017,-0.639013 -0.0067,-0.292879 0.0094,-0.844027 0.03579,-1.224774 0.0264,-0.380744 0.07922,-0.815529 0.117338,-0.96619 0.03812,-0.150663 0.217449,-0.361446 0.398531,-0.468414 0.311652,-0.184096 0.336444,-0.184623 0.464234,-0.0099 0.07425,0.10154 0.174653,0.551962 0.223113,1.000925 0.04846,0.448963 0.08025,1.307538 0.07063,1.90794 -0.0097,0.600405 0.01542,1.091646 0.05566,1.091646 0.04022,0 0.164388,-0.169432 0.275909,-0.376521 0.111521,-0.207083 0.421072,-0.57774 0.687878,-0.823675 0.266812,-0.245936 0.490682,-0.495854 0.497492,-0.555375 0.0069,-0.05952 0.01968,-0.167017 0.02862,-0.238884 0.0089,-0.07187 0.132821,-0.207077 0.275336,-0.30045 0.193302,-0.126659 0.311314,-0.141839 0.464653,-0.05977 0.113046,0.06051 0.266385,0.256897 0.340749,0.436433 0.124906,0.30156 0.107762,0.370312 -0.225022,0.902402 -0.198128,0.316784 -0.791571,1.086679 -1.318752,1.71087 -0.527186,0.624191 -1.02874,1.262331 -1.114567,1.418084 -0.108537,0.196969 -0.17685,0.799593 -0.224377,1.97922 -0.06403,1.589095 -0.08347,1.708288 -0.308388,1.890416 -0.13203,0.106912 -0.348967,0.194384 -0.482087,0.194384 z m -5.052573,-0.647032 c -0.09166,-0.0044 -0.550631,-0.141056 -1.019932,-0.303658 -0.469303,-0.162601 -1.006094,-0.374661 -1.192859,-0.471238 -0.186768,-0.09659 -0.389888,-0.175603 -0.45137,-0.175603 -0.06149,0 -0.111801,0.146169 -0.111801,0.32482 v 0.324818 l -0.612385,-0.03192 -0.612385,-0.03196 0.0032,-0.798764 c 0.002,-0.439323 0.111496,-1.294686 0.243763,-1.900812 0.13227,-0.606122 0.269145,-1.492753 0.30417,-1.970288 0.03502,-0.477534 0.11048,-0.927625 0.167684,-1.000196 0.05721,-0.07257 0.14751,-0.105071 0.200677,-0.07221 0.05317,0.03284 0.16316,-0.09947 0.244427,-0.294056 0.08127,-0.194585 0.227898,-0.663138 0.325837,-1.041225 0.162074,-0.625664 0.162952,-0.69849 0.0098,-0.810506 -0.09257,-0.0677 -0.168312,-0.192503 -0.168312,-0.277356 0,-0.08485 0.0637,-0.241401 0.14156,-0.347877 0.117706,-0.160979 0.1808,-0.172591 0.374483,-0.06894 0.211726,0.113313 0.238704,0.09577 0.296401,-0.19271 0.0349,-0.174552 0.133439,-0.344218 0.218947,-0.377032 0.08551,-0.0328 0.368241,-0.0061 0.628285,0.05939 0.351286,0.08846 0.488508,0.181609 0.533892,0.36244 0.03361,0.133861 0.0088,0.341203 -0.05525,0.460753 -0.09786,0.182845 -0.07302,0.247853 0.156382,0.409302 0.149994,0.105566 0.466393,0.347695 0.703115,0.538067 0.236719,0.190372 0.516592,0.346134 0.621933,0.346134 0.105337,0 0.220626,0.07581 0.256177,0.168461 0.03554,0.09265 0.06465,0.257723 0.06465,0.366819 0,0.109096 -0.107839,0.32135 -0.239631,0.471673 l -0.23963,0.273321 -0.829729,-0.475872 c -0.817872,-0.469073 -0.83097,-0.472515 -0.916459,-0.240756 -0.04771,0.129312 -0.171729,0.498711 -0.275618,0.820878 -0.103889,0.322168 -0.210063,0.641118 -0.23595,0.708775 -0.02688,0.07028 0.104537,0.155332 0.306582,0.198401 0.194505,0.04146 0.619545,0.255445 0.944534,0.475518 0.324989,0.220078 0.742921,0.478758 0.928735,0.574846 0.185815,0.09609 0.392006,0.2759 0.458198,0.399584 0.09929,0.185522 0.08156,0.26366 -0.101261,0.446488 l -0.221595,0.221619 -0.774221,-0.36363 c -0.425825,-0.2 -0.894037,-0.467311 -1.040481,-0.594023 -0.14644,-0.126709 -0.386068,-0.256478 -0.532508,-0.288366 -0.146439,-0.03189 -0.367826,-0.08976 -0.491969,-0.128608 -0.205936,-0.06443 -0.231292,-0.02085 -0.289364,0.497287 -0.03502,0.312357 -0.09529,0.819529 -0.133966,1.127056 -0.06982,0.555138 -0.06824,0.559135 0.220416,0.559135 0.159908,0 0.695073,0.189477 1.189256,0.42106 0.494187,0.231582 0.965289,0.395439 1.046893,0.364126 0.0912,-0.03502 0.212849,0.06776 0.315734,0.26672 0.153304,0.29645 0.152248,0.35536 -0.01257,0.700894 -0.09894,0.207482 -0.254888,0.373633 -0.346544,0.369225 z m -6.968194,-0.750024 c -0.183754,-0.0069 -0.549764,-0.04991 -0.813355,-0.0956 -0.263595,-0.04569 -0.73324,-0.184065 -1.043657,-0.307504 -0.310421,-0.12343 -0.765715,-0.32551 -1.011772,-0.449054 -0.246052,-0.123548 -0.698981,-0.416696 -1.006504,-0.651447 -0.388338,-0.296433 -0.559138,-0.501532 -0.559138,-0.671427 0,-0.161322 0.117871,-0.317092 0.346133,-0.457449 0.231997,-0.142647 0.451487,-0.193865 0.66564,-0.155318 0.175727,0.03163 0.463281,0.19279 0.639012,0.358131 0.175726,0.165338 0.600389,0.428974 0.943692,0.585851 0.367331,0.167859 0.893253,0.306671 1.278028,0.337322 0.562489,0.04481 0.681215,0.02174 0.849817,-0.165337 0.192577,-0.21365 0.188653,-0.222739 -0.226019,-0.523126 -0.232101,-0.168131 -0.715767,-0.422379 -1.074813,-0.564991 -0.646269,-0.2567 -0.655411,-0.266252 -0.912296,-0.95333 -0.21995,-0.588286 -0.245486,-0.777663 -0.167605,-1.242908 0.05053,-0.301884 0.165665,-0.691567 0.255847,-0.865957 0.09019,-0.174395 0.308247,-0.438481 0.484595,-0.586869 0.176343,-0.148384 0.477603,-0.319056 0.669459,-0.379274 0.191861,-0.06022 0.78017,-0.186382 1.307357,-0.280364 0.527186,-0.09398 1.035212,-0.193564 1.128948,-0.221289 0.110113,-0.03256 0.270301,0.0937 0.452635,0.356816 0.155211,0.22397 0.282203,0.535212 0.282203,0.691642 0,0.20283 -0.08402,0.327545 -0.292878,0.434755 -0.161088,0.08268 -0.556474,0.200619 -0.878645,0.262086 -0.322167,0.06146 -0.852557,0.141173 -1.17864,0.177131 -0.550127,0.06068 -0.601972,0.09052 -0.718891,0.413851 -0.0693,0.191655 -0.126011,0.45046 -0.126011,0.575115 0,0.131554 0.145224,0.335357 0.346134,0.48575 0.190371,0.142506 0.500333,0.337076 0.6888,0.432375 0.188468,0.09529 0.52395,0.209769 0.745514,0.254373 0.337647,0.06798 0.438682,0.1554 0.624288,0.540156 0.17243,0.357452 0.205409,0.564678 0.149011,0.936294 -0.03985,0.262485 -0.166896,0.606082 -0.282357,0.76355 -0.115459,0.157469 -0.439543,0.442064 -0.720186,0.632442 -0.330632,0.224284 -0.627866,0.341721 -0.844349,0.333603 z"
         id="path3213"
         inkscape:label="Sexyrodent" />
      <path
         style="display:inline;fill:#ffffff;fill-opacity:1;stroke:none;stroke-width:0.106502"
         d="m 90.782625,25.287489 c -0.203191,1.150436 0.733789,1.247139 1.49102,1.860377 1.045674,0.846693 1.986743,1.872522 2.469132,3.145222 0.16252,0.428775 0.360725,1.090579 0.183613,1.544492 -0.147193,0.377334 -0.560462,0.253473 -0.842225,0.118862 -0.699044,-0.333885 -1.31288,-0.889611 -1.917026,-1.366316 -2.140806,-1.689017 -4.039456,-3.697536 -5.964076,-5.622137 -0.385192,-0.385195 -1.516545,-1.862732 -2.172274,-1.213677 -0.325291,0.32199 -0.105401,0.927336 -0.09994,1.320182 0.0207,1.523828 1.469076,2.889825 2.486431,3.940466 0.796649,0.82273 1.575049,1.674212 2.448382,2.417809 1.371435,1.167584 2.825349,2.185635 4.149366,3.421378 1.038635,0.969384 2.216555,1.970928 2.936705,3.213595 0.396189,0.683424 0.57405,1.494436 0.831668,2.236543 0.131637,0.37904 0.35689,0.772035 0.411317,1.171525 0.04826,0.353905 -0.108575,0.710472 -0.124068,1.065019 -0.03175,0.724533 0.129821,1.470685 0.421625,2.130042 -1.088008,-0.08595 -1.798583,-0.611854 -2.769029,-1.029025 -0.607321,-0.261035 -1.475435,-0.460725 -2.130033,-0.545715 -1.489001,-0.19341 -2.924451,2.275097 -1.699333,3.335432 1.68191,1.455881 3.554274,0.861492 5.533385,1.146812 1.393251,0.200865 2.385954,1.34065 3.727125,1.615745 0.63337,0.129824 1.21508,-0.155919 1.81096,-0.324087 0.62985,-0.177647 1.29325,-0.218331 1.91702,-0.412377 0.34133,-0.106176 0.62218,-0.334629 0.95851,-0.442196 0.56553,-0.180736 1.32393,-0.248577 1.91703,-0.255606 0.62548,-0.0075 1.30997,0.05038 1.70306,-0.544116 0.28362,-0.429098 0.21396,-0.991216 0.21396,-1.479847 0,-0.576601 0.0301,-1.151394 -0.16485,-1.704032 -0.47798,-1.355452 -1.63129,-2.303536 -2.25901,-3.559728 -0.19607,-0.392351 0.10273,-0.751265 0.20981,-1.126364 0.13866,-0.48629 0.28914,-1.310296 0.26359,-1.810537 -0.0244,-0.477018 -0.4357,-0.903775 -0.22919,-1.384524 0.39139,-0.911231 1.27269,-1.746314 1.84481,-2.55605 1.02476,-1.450556 1.90425,-3.126262 3.16257,-4.38703 0.63538,-0.63667 2.33813,-1.529798 1.50912,-2.531451 -0.34176,-0.413014 -1.36673,-1.436263 -1.96953,-1.270748 -0.35242,0.09677 -0.34145,0.557408 -0.42739,0.840587 -0.11239,0.369987 -0.31141,0.671178 -0.56617,0.958519 -0.8028,0.90548 -1.25244,2.074449 -1.94289,3.088561 -0.84488,1.24096 -2.0933,2.535814 -2.62592,3.940574 h -0.21299 c -0.30982,-0.846052 -1.18036,-1.540127 -1.26673,-2.449545 -0.23696,-2.495131 1.43223,-4.236758 2.82761,-6.052535 0.52857,-0.687895 1.21678,-1.399532 1.45982,-2.254625 0.25039,-0.881073 -0.0414,-1.876502 -0.43911,-2.662554 -0.16922,-0.334481 -0.41588,-0.850537 -0.87171,-0.802387 -0.34858,0.03683 -0.4406,0.408341 -0.49107,0.695971 -0.12115,0.68847 0.10298,1.467949 -0.14208,2.129957 -0.47852,1.293104 -1.84184,2.296026 -2.70876,3.319722 -0.78193,0.923321 -1.20783,2.087068 -1.90222,3.063797 -0.29959,0.421217 -0.7306,0.388837 -1.13605,0.105121 -0.44283,-0.309918 -0.3522,-0.911017 -0.26977,-1.376536 0.0571,-0.322275 0.11175,-0.672454 0.31407,-0.93999 0.64285,-0.84982 1.97518,-1.167507 2.31396,-2.255071 0.25262,-0.810992 0.40449,-2.207907 -0.56351,-2.55605 0.90528,-0.745963 0.24997,-1.77224 0.51782,-2.769054 0.0764,-0.284829 0.22589,-0.505193 0.39054,-0.745513 0.60163,-0.878194 1.59529,-2.704502 -0.0564,-3.022571 -0.21203,-0.04084 -0.42323,-0.06168 -0.63901,-0.04635 -0.49864,0.03542 -1.09516,0.09519 -1.30548,0.621425 -0.13654,0.341602 -0.0244,0.717868 -0.24975,1.03256 -0.52943,0.739254 -1.59678,1.595796 -2.385323,2.04236 -0.369017,0.208956 -0.78108,0.232122 -1.17152,0.380896 -0.551877,0.210255 -1.040832,0.553914 -1.597509,0.755044 -0.451471,0.163097 -0.931359,0.208413 -1.384527,0.372427 -0.677508,0.24518 -1.411284,0.772341 -2.130025,0.850536 -0.982662,0.106912 -2.10323,-1.054968 -3.083856,-0.533819 -0.622195,0.330656 -0.603287,1.09892 -0.661609,1.701072 -0.09626,0.994271 -0.162165,3.20354 1.402264,2.764121 0.264861,-0.07439 0.503841,-0.187144 0.745675,-0.314576 m 11.50216,-8.839668 v 0.106505 l -0.3195,0.106506 0.3195,-0.213002 m 0.639,1.384526 c -0.28531,0.496456 -0.67362,0.898569 -0.73815,1.489472 -0.0627,0.574729 0.22003,1.575871 -0.11683,2.064052 -0.22004,0.318923 -0.74072,0.51645 -1.06205,0.719212 -0.77947,0.491953 -1.549265,0.983439 -2.236525,1.603034 -0.302459,0.272712 -1.433821,1.256159 -0.801521,1.712746 0.314598,0.227254 0.725166,-0.20948 0.938377,-0.401196 0.677672,-0.609124 1.285689,-1.476607 2.109259,-1.896978 0.35679,-0.182132 1.18568,-0.367179 1.34107,0.157033 0.57106,1.92651 -2.15548,2.317223 -2.586707,3.818303 -0.188832,0.656905 -0.454972,1.696577 -0.129402,2.342618 0.18468,0.366472 0.558709,0.582461 0.712279,0.968529 0.37883,0.952876 0.40078,2.050913 0.86607,2.972472 0.38479,0.762129 1.1122,1.326272 1.59764,2.023542 l -1.171,0.960116 -0.79705,1.804676 -2.078901,1.356731 -1.065125,0.990576 C 97.200852,39.569969 97.085406,38.455213 96.52116,37.535244 95.195543,35.374106 92.843402,33.539394 90.889156,31.97669 89.228647,30.648825 87.707124,29.343429 86.293072,27.737058 85.744916,27.11434 84.996968,26.406741 84.71716,25.6071 c -0.116195,-0.332189 -0.08775,-0.716886 -0.111623,-1.065103 0.948159,0.667893 1.736782,1.63028 2.556047,2.449547 1.409176,1.409233 2.833704,2.797913 4.366551,4.073381 0.804026,0.668941 2.064625,1.902873 3.195048,1.869221 1.22455,-0.03643 1.021672,-1.734068 0.826554,-2.534538 -0.455188,-1.866874 -2.21584,-3.918423 -4.021602,-4.579587 0.111115,-0.329477 0.280137,-0.568393 0.480831,-0.852018 0.218391,-0.308662 0.702076,-1.378105 -0.16181,-1.146619 -0.569947,0.152711 -1.047769,0.668533 -1.597043,0.894826 -0.210776,0.08685 -0.570887,0.207317 -0.737941,-0.02588 -0.376341,-0.52533 0.618318,-1.183193 0.950952,-1.402023 0.361534,-0.23785 0.751606,-0.534194 1.171516,-0.657171 0.316698,-0.09277 0.641557,-0.03699 0.958509,-0.148741 0.764508,-0.269537 1.449076,-0.707068 2.236539,-0.922445 -0.133766,0.259578 -0.846932,1.023865 -0.394271,1.259292 0.244212,0.127 0.475315,-0.153525 0.621111,-0.307101 0.395872,-0.416721 0.708341,-1.001887 1.185257,-1.328316 0.851799,-0.58298 1.885393,-0.669588 2.741459,-1.165941 0.703858,-0.408107 1.311676,-1.004029 1.917026,-1.541149 0.29969,-0.265958 0.66115,-0.678053 1.06501,-0.773875 0.29906,-0.07096 0.66052,0.08573 0.95851,0.129517 m 4.36657,3.408068 c 0.16934,0.620608 0.46126,1.256903 0.31641,1.917036 -0.13983,0.637713 -0.66968,1.204697 -1.06192,1.704032 -0.77299,0.984111 -1.68444,1.929499 -2.36018,2.982056 -0.64051,0.997391 -0.83966,2.459133 -0.92178,3.621073 -0.0663,0.937643 0.46999,1.596146 0.94392,2.343044 0.21023,0.331328 0.58012,0.755419 0.56032,1.171311 -0.0133,0.278818 -0.20694,0.522069 -0.35232,0.745726 -0.95511,-0.495448 -2.2001,-1.776136 -2.63974,-2.769055 -0.34133,-0.770969 -0.47383,-1.73396 -0.6618,-2.556049 1.22648,0.115242 1.69646,-1.551627 2.23653,-2.449546 0.98066,-1.630228 2.65168,-2.788021 3.53914,-4.473086 0.37192,-0.706121 0.10985,-1.541672 0.40142,-2.236542 m -16.40123,0.852013 -1.597522,1.065023 0.365687,-1.265458 1.231835,0.200435 m 20.55478,4.260084 c 0.31514,0.22674 1.01325,0.582245 0.77192,1.061293 -0.36637,0.727194 -1.36215,1.251397 -1.86249,1.920764 -1.21646,1.627564 -2.29608,3.360034 -3.49017,5.005594 -0.46839,0.645618 -1.01814,1.662817 -1.80934,1.917037 l 0.74561,-1.287609 1.31306,-1.907452 4.33141,-6.709627 m -9.90464,14.271274 h 0.74552 l 0.10654,0.426007 c -0.47467,-0.0639 -1.04552,-0.331538 -1.48644,-0.04186 -0.930069,0.611109 -1.075446,2.330586 -0.003,2.868314 0.91475,0.458599 2.04878,-0.797805 2.10406,-1.654936 0.0264,-0.410669 -0.20183,-0.728046 -0.40163,-1.065019 1.11507,-0.930724 2.0115,-2.495344 2.76905,-3.727573 1.05393,1.325313 -0.94031,2.927207 -1.39187,4.047079 -0.37383,0.926993 0.29255,1.800095 0.0571,2.769051 -0.48714,2.004156 -2.98715,2.169768 -4.522798,1.456526 -1.248509,-0.579801 -1.109952,-2.078921 -1.176088,-3.267058 -0.04229,-0.759042 -0.27499,-1.14511 0.272849,-1.805955 0.709089,-0.855532 1.937157,-1.068751 2.694067,-1.922045 0.56392,-0.635711 0.55934,-1.618829 1.12668,-2.179457 0.38201,-0.377338 1.64938,-0.648169 1.55066,0.263379 -0.0451,0.416318 -0.51494,0.848076 -0.75296,1.170991 -0.6109,0.828801 -1.38463,1.668674 -1.69168,2.66255 m 3.51456,-3.514567 -0.42601,-0.106505 0.42601,0.106505 m -2.34304,2.875555 -0.10654,0.106506 0.10654,-0.106506 m 2.87553,0.852018 c 0.94617,1.436714 2.34229,2.770862 2.34304,4.579587 1e-4,0.393314 0.12877,1.096864 -0.18553,1.399649 -0.24538,0.236327 -0.67436,0.1949 -0.98599,0.197882 -0.54847,0.0053 -1.06117,0.108956 -1.59752,0.213006 0,-0.500137 0.0188,-0.999097 -0.0872,-1.491031 -0.0778,-0.360403 -0.27266,-0.698332 -0.31195,-1.065019 -0.0532,-0.497367 0.12521,-0.984719 0.0472,-1.49103 -0.14569,-0.945952 -0.48587,-1.985306 0.77789,-2.343044 m -4.24856,0.84179 c 1.15661,-0.286278 1.06086,1.362374 0.0963,1.494866 -0.78215,0.107357 -0.7517,-1.332555 -0.0963,-1.494866 m -2.214054,1.381546 c -0.346883,0.117262 -0.165187,0.539009 0,0.724216 0.292976,0.328558 1.259904,1.21593 1.742254,1.029126 0.33346,-0.129188 0.1557,-0.527182 -0.0114,-0.710369 -0.29289,-0.319928 -1.26215,-1.201234 -1.730329,-1.042973 m 5.184589,2.462753 c 0.17765,0.688216 0.2636,1.652805 -0.45785,2.097026 -0.48095,0.296184 -1.23541,0.280526 -1.77868,0.419618 -0.6619,0.16934 -1.32977,0.487884 -2.02352,0.291068 -1.258113,-0.356993 -2.161556,-1.322648 -3.514552,-1.498907 -0.950533,-0.123751 -1.924162,0.0556 -2.875547,-0.06125 -0.734094,-0.0902 -1.424402,-0.278822 -2.021462,-0.732093 -0.278267,-0.211194 -0.549858,-0.453701 -0.453448,-0.835401 0.112258,-0.444648 0.635322,-1.180364 1.09197,-1.308697 0.420003,-0.118113 1.49196,0.216837 1.915452,0.362105 0.676288,0.23196 1.232115,0.721447 1.917026,0.941584 0.574574,0.184675 1.275473,0.08882 1.810524,0.342406 0.380315,0.180305 0.694499,0.491184 1.065023,0.69471 0.805246,0.442197 2.058354,0.79781 2.982044,0.63731 0.96457,-0.167528 1.51018,-0.961606 2.34302,-1.349489 z"
         id="path3201"
         inkscape:label="Graphic" />
    </g>
  </g>
</svg>
