<?xml version="1.0" encoding="UTF-8" standalone="no"?>
<!-- Created with Inkscape (http://www.inkscape.org/) -->

<svg
   width="600"
   height="600"
   viewBox="0 0 158.75 158.75"
   version="1.1"
   id="svg1"
   inkscape:version="1.3 (0e150ed6c4, 2023-07-21)"
   sodipodi:docname="sexyrodent-knobs.svg"
   inkscape:export-filename="../assets/images/sexyrodent-knobs.png"
   inkscape:export-xdpi="96"
   inkscape:export-ydpi="96"
   xmlns:inkscape="http://www.inkscape.org/namespaces/inkscape"
   xmlns:sodipodi="http://sodipodi.sourceforge.net/DTD/sodipodi-0.dtd"
   xmlns="http://www.w3.org/2000/svg"
   xmlns:svg="http://www.w3.org/2000/svg">
  <sodipodi:namedview
     id="namedview1"
     pagecolor="#ffffff"
     bordercolor="#000000"
     borderopacity="0.25"
     inkscape:showpageshadow="2"
     inkscape:pageopacity="0.0"
     inkscape:pagecheckerboard="0"
     inkscape:deskcolor="#d1d1d1"
     inkscape:document-units="mm"
     inkscape:zoom="1.0847363"
     inkscape:cx="142.43093"
     inkscape:cy="290.8541"
     inkscape:window-width="1920"
     inkscape:window-height="1057"
     inkscape:window-x="-8"
     inkscape:window-y="-8"
     inkscape:window-maximized="1"
     inkscape:current-layer="g1"
     showgrid="false" />
  <defs
     id="defs1" />
  <g
     inkscape:label="Layer 1"
     inkscape:groupmode="layer"
     id="layer1">
    <g
       id="g1"
       transform="matrix(2.4665761,0,0,2.4665761,-124.20497,-64.512304)">
      <path
         id="path1410"
         style="font-size:4.40972px;font-family:Questrial;-inkscape-font-specification:'Questrial, Normal';letter-spacing:0.185208px;fill:#c0c0c0;stroke:none;stroke-width:0.1;stroke-dasharray:none;stroke-opacity:1;fill-opacity:1"
         d="m 103.96824,78.000319 v 3.086633 h 0.33073 v -3.086633 z m -4.308257,0.846459 c -0.22049,0 -0.41192,0.05162 -0.57361,0.154513 -0.16169,0.09995 -0.28766,0.236862 -0.37879,0.410311 -0.0882,0.170509 -0.13229,0.361426 -0.13229,0.573092 0,0.208727 0.0441,0.399643 0.13229,0.573091 0.0911,0.173449 0.2171,0.311552 0.37879,0.414445 0.16169,0.09995 0.35312,0.150379 0.57361,0.150379 0.26164,0 0.483317,-0.06786 0.665587,-0.203089 0.18522,-0.135231 0.3105,-0.309909 0.37517,-0.524516 h -0.3576 c -0.05,0.126412 -0.13065,0.229133 -0.24236,0.308509 -0.108777,0.07937 -0.241067,0.118855 -0.396877,0.118855 -0.16169,0 -0.3027,-0.03829 -0.42323,-0.114721 -0.12054,-0.07643 -0.21335,-0.177446 -0.27802,-0.303858 -0.0647,-0.129351 -0.0966,-0.269165 -0.0966,-0.419095 0,-0.15287 0.032,-0.292684 0.0966,-0.419096 0.0647,-0.126412 0.15749,-0.227423 0.27802,-0.303858 0.12053,-0.07643 0.26154,-0.114721 0.42323,-0.114721 0.15581,0 0.2881,0.03948 0.396877,0.118855 0.11168,0.07938 0.19236,0.182097 0.24236,0.308509 h 0.3576 c -0.0647,-0.214606 -0.18996,-0.389285 -0.37517,-0.524516 -0.18227,-0.135231 -0.403947,-0.203089 -0.665587,-0.203089 z m 2.592597,0 c -0.22342,0 -0.41725,0.05162 -0.58187,0.154513 -0.16463,0.09995 -0.29111,0.236862 -0.37931,0.410311 -0.0882,0.170509 -0.13229,0.361426 -0.13229,0.573092 0,0.208727 0.0441,0.399643 0.13229,0.573091 0.0882,0.173449 0.21468,0.311552 0.37931,0.414445 0.16462,0.09995 0.35845,0.150379 0.58187,0.150379 0.22637,0 0.4207,-0.05043 0.5824,-0.150379 0.16462,-0.102893 0.29111,-0.240996 0.3793,-0.414445 0.0882,-0.173448 0.13229,-0.364364 0.13229,-0.573091 0,-0.211666 -0.0441,-0.402583 -0.13229,-0.573092 -0.0882,-0.173449 -0.21468,-0.310358 -0.3793,-0.410311 -0.1617,-0.102893 -0.35603,-0.154513 -0.5824,-0.154513 z m 3.76153,0 c -0.22343,0 -0.41725,0.05162 -0.58188,0.154513 -0.16463,0.09995 -0.29111,0.236862 -0.3793,0.410311 -0.0882,0.170509 -0.13229,0.361426 -0.13229,0.573092 0,0.208727 0.0441,0.399643 0.13229,0.573091 0.0882,0.173449 0.21467,0.311552 0.3793,0.414445 0.16463,0.09995 0.35845,0.150379 0.58188,0.150379 0.22637,0 0.42071,-0.05043 0.58239,-0.150379 0.16464,-0.102893 0.29111,-0.240996 0.37931,-0.414445 0.0882,-0.173448 0.13229,-0.364364 0.13229,-0.573091 0,-0.211666 -0.0441,-0.402583 -0.13229,-0.573092 -0.0882,-0.173449 -0.21467,-0.310358 -0.37931,-0.410311 -0.16168,-0.102893 -0.35602,-0.154513 -0.58239,-0.154513 z m 5.53868,0 c -0.13523,0 -0.253,0.02376 -0.35295,0.0708 -0.097,0.0441 -0.1777,0.09862 -0.24236,0.163298 -0.0647,0.06468 -0.1146,0.129113 -0.14986,0.193786 -0.0323,0.06173 -0.0544,0.111642 -0.0661,0.149862 v -0.542086 h -0.33073 v 2.204517 h 0.33073 v -0.969967 c 0,-0.16169 0.0308,-0.313125 0.0925,-0.454236 0.0647,-0.14405 0.15578,-0.260104 0.27337,-0.348299 0.12053,-0.09113 0.26325,-0.136942 0.42788,-0.136942 h 0.0398 v -0.33073 z m -3.84524,0.03566 v 1.283126 c 0,0.208726 0.0412,0.385116 0.1235,0.529167 0.0853,0.141111 0.1955,0.248449 0.33073,0.321944 0.13524,0.07055 0.27796,0.105937 0.42788,0.105937 0.17934,0 0.32616,-0.03709 0.4408,-0.110588 0.11466,-0.07349 0.21156,-0.162884 0.29094,-0.268717 v 0.343648 h 0.33073 v -2.204517 h -0.33073 v 1.26969 c 0,0.132291 -0.0308,0.248345 -0.0925,0.348299 -0.0588,0.09995 -0.13827,0.179429 -0.23823,0.238229 -0.1,0.05585 -0.21139,0.08371 -0.33486,0.08371 -0.17933,0 -0.32786,-0.06033 -0.44545,-0.180867 -0.11466,-0.123473 -0.17208,-0.284818 -0.17208,-0.484725 v -1.274341 z m -5.45497,0.264584 c 0.16464,0 0.30325,0.03829 0.41496,0.114721 0.11465,0.07643 0.20114,0.177446 0.25994,0.303858 0.0588,0.126412 0.0884,0.266226 0.0884,0.419096 0,0.14993 -0.0296,0.289744 -0.0884,0.419095 -0.0588,0.126412 -0.14528,0.227423 -0.25994,0.303858 -0.11171,0.07643 -0.25032,0.114721 -0.41496,0.114721 -0.16168,0 -0.29979,-0.03829 -0.41444,-0.114721 -0.11465,-0.07643 -0.20114,-0.177446 -0.25994,-0.303858 -0.0588,-0.129351 -0.0884,-0.269165 -0.0884,-0.419095 0,-0.15287 0.0296,-0.292684 0.0884,-0.419096 0.0588,-0.126412 0.14528,-0.227423 0.25994,-0.303858 0.11465,-0.07643 0.25276,-0.114721 0.41444,-0.114721 z m 3.76153,0 c 0.16463,0 0.30273,0.03829 0.41444,0.114721 0.11466,0.07643 0.20165,0.177446 0.26045,0.303858 0.0588,0.126412 0.0884,0.266226 0.0884,0.419096 0,0.14993 -0.0296,0.289744 -0.0884,0.419095 -0.0588,0.126412 -0.14579,0.227423 -0.26045,0.303858 -0.11171,0.07643 -0.24981,0.114721 -0.41444,0.114721 -0.16169,0 -0.29979,-0.03829 -0.41445,-0.114721 -0.11465,-0.07643 -0.20113,-0.177446 -0.25993,-0.303858 -0.0588,-0.129351 -0.0884,-0.269165 -0.0884,-0.419095 0,-0.15287 0.0296,-0.292684 0.0884,-0.419096 0.0588,-0.126412 0.14528,-0.227423 0.25993,-0.303858 0.11466,-0.07643 0.25276,-0.114721 0.41445,-0.114721 z" />
      <path
         id="path1435"
         style="font-size:4.40972px;font-family:Questrial;-inkscape-font-specification:'Questrial, Normal';letter-spacing:0.185208px;fill:#c0c0c0;stroke:none;stroke-width:0.1;stroke-dasharray:none;stroke-opacity:1;fill-opacity:1"
         d="m 56.905483,78.092819 v 0.789616 h -0.44959 v 0.290939 h 0.44959 v 1.913578 h 0.33073 v -1.913578 h 0.50746 v -0.290939 h -0.50746 v -0.789616 z m 2.34146,0.753959 c -0.22343,0 -0.41725,0.05162 -0.58188,0.154513 -0.16462,0.09995 -0.29111,0.236862 -0.3793,0.410311 -0.0882,0.170509 -0.1323,0.361426 -0.1323,0.573092 0,0.208727 0.0441,0.399643 0.1323,0.573091 0.0882,0.173449 0.21468,0.311552 0.3793,0.414445 0.16463,0.09995 0.35845,0.150379 0.58188,0.150379 0.22636,0 0.4207,-0.05043 0.58239,-0.150379 0.16463,-0.102893 0.29111,-0.240996 0.37931,-0.414445 0.0882,-0.173448 0.13229,-0.364364 0.13229,-0.573091 0,-0.211666 -0.0441,-0.402583 -0.13229,-0.573092 -0.0882,-0.173449 -0.21468,-0.310358 -0.37931,-0.410311 -0.16169,-0.102893 -0.35603,-0.154513 -0.58239,-0.154513 z m 2.77812,0 c -0.17933,0 -0.32614,0.03709 -0.4408,0.110588 -0.11465,0.0735 -0.21156,0.162884 -0.29094,0.268718 v -0.343649 h -0.33072 v 2.204517 h 0.33072 v -1.26969 c 0,-0.132291 0.0296,-0.248345 0.0884,-0.348299 0.0617,-0.102897 0.14241,-0.182375 0.24236,-0.238229 0.1,-0.05585 0.21139,-0.08372 0.33487,-0.08372 0.18226,0 0.3308,0.06153 0.44545,0.185001 0.11465,0.120532 0.17208,0.280684 0.17208,0.480591 v 1.274341 h 0.33073 v -1.283126 c 0,-0.208726 -0.0424,-0.383405 -0.12764,-0.524516 -0.0823,-0.14405 -0.19136,-0.251389 -0.3266,-0.321944 -0.13229,-0.0735 -0.27501,-0.110588 -0.42788,-0.110588 z m 2.57556,0 c -0.22343,0 -0.41777,0.05162 -0.5824,0.154513 -0.16463,0.09995 -0.29059,0.236862 -0.37879,0.410311 -0.0882,0.170509 -0.13229,0.361426 -0.13229,0.573092 0,0.208727 0.0453,0.399643 0.13643,0.573091 0.0941,0.173449 0.22517,0.311552 0.39274,0.414445 0.16757,0.09995 0.3631,0.150379 0.58653,0.150379 0.26164,0 0.47461,-0.06205 0.63923,-0.185519 0.16757,-0.126412 0.28943,-0.287758 0.36587,-0.484725 h -0.36173 c -0.0588,0.108773 -0.14066,0.198162 -0.2465,0.268718 -0.10582,0.06761 -0.23693,0.101285 -0.39274,0.101285 -0.14699,0 -0.27638,-0.03077 -0.38809,-0.0925 -0.1117,-0.06468 -0.2011,-0.149965 -0.26872,-0.255799 -0.0646,-0.108772 -0.10584,-0.227732 -0.1235,-0.357084 h 1.84743 v -0.132291 c 0,-0.211666 -0.0441,-0.402583 -0.13229,-0.573092 -0.0882,-0.173449 -0.21467,-0.310358 -0.37931,-0.410311 -0.16168,-0.102893 -0.35551,-0.154513 -0.58187,-0.154513 z m -5.35368,0.300241 c 0.16462,0 0.30325,0.03829 0.41496,0.114721 0.11465,0.07643 0.20113,0.177446 0.25993,0.303858 0.0588,0.126412 0.0884,0.266226 0.0884,0.419096 0,0.14993 -0.0296,0.289744 -0.0884,0.419095 -0.0588,0.126412 -0.14528,0.227423 -0.25993,0.303858 -0.11171,0.07643 -0.25034,0.114721 -0.41496,0.114721 -0.16169,0 -0.29979,-0.03829 -0.41445,-0.114721 -0.11464,-0.07643 -0.20113,-0.177446 -0.25993,-0.303858 -0.0588,-0.129351 -0.0884,-0.269165 -0.0884,-0.419095 0,-0.15287 0.0296,-0.292684 0.0884,-0.419096 0.0588,-0.126412 0.14528,-0.227423 0.25993,-0.303858 0.11466,-0.07643 0.25276,-0.114721 0.41445,-0.114721 z m 5.35368,0 c 0.21166,0 0.38224,0.06324 0.51159,0.189652 0.12935,0.126412 0.20883,0.283658 0.23823,0.471806 h -1.49965 c 0.0323,-0.188148 0.11182,-0.345394 0.23823,-0.471806 0.12935,-0.126412 0.29993,-0.189652 0.5116,-0.189652 z" />
      <path
         id="path1452"
         style="font-size:4.40972px;font-family:Questrial;-inkscape-font-specification:'Questrial, Normal';letter-spacing:0.185208px;fill:#c0c0c0;stroke:none;stroke-width:0.1;stroke-dasharray:none;stroke-opacity:1;fill-opacity:1"
         d="m 58.797353,48.000599 v 3.08715 h 0.33073 v -3.08715 z m -1.71514,0.846977 c -0.22342,0 -0.41776,0.0511 -0.58239,0.153996 -0.16463,0.09995 -0.29111,0.236861 -0.37931,0.410311 -0.0882,0.170508 -0.13229,0.361425 -0.13229,0.573091 0,0.208727 0.0441,0.40016 0.13229,0.573609 0.0882,0.173448 0.21468,0.311551 0.37931,0.414445 0.16463,0.09995 0.35897,0.149861 0.58239,0.149861 0.22637,0 0.42019,-0.04991 0.58188,-0.149861 0.16463,-0.102894 0.29111,-0.240997 0.3793,-0.414445 0.0882,-0.173449 0.1323,-0.364882 0.1323,-0.573609 0,-0.211666 -0.0441,-0.402583 -0.1323,-0.573091 -0.0882,-0.17345 -0.21467,-0.310358 -0.3793,-0.410311 -0.16169,-0.102893 -0.35551,-0.153996 -0.58188,-0.153996 z m 6.48643,0 c -0.17933,0 -0.32324,0.03948 -0.43202,0.118856 -0.10874,0.07937 -0.18823,0.163469 -0.23823,0.251664 v -0.33538 h -0.33072 v 2.205033 h 0.33072 v -1.318782 c 0,-0.196967 0.0586,-0.349597 0.17622,-0.45837 0.11759,-0.108773 0.2574,-0.163298 0.4191,-0.163298 0.1558,0 0.28519,0.05743 0.38809,0.172083 0.10583,0.111712 0.15864,0.260243 0.15864,0.445451 v 1.322916 h 0.33073 v -1.318782 c 0,-0.196967 0.0586,-0.349597 0.17622,-0.45837 0.11759,-0.108773 0.2574,-0.163298 0.4191,-0.163298 0.1558,0 0.28519,0.05743 0.38809,0.172083 0.10583,0.111712 0.15864,0.260243 0.15864,0.445451 v 1.322916 h 0.33073 v -1.331701 c 0,-0.185209 -0.0395,-0.34536 -0.11885,-0.480591 -0.0764,-0.138171 -0.17625,-0.244315 -0.29973,-0.31781 -0.12347,-0.0735 -0.25576,-0.110071 -0.39687,-0.110071 -0.14405,0 -0.26763,0.02615 -0.37052,0.07906 -0.10291,0.05292 -0.187,0.114962 -0.25167,0.185518 -0.0617,0.07056 -0.10702,0.130895 -0.13642,0.180868 -0.0706,-0.141111 -0.16918,-0.25016 -0.29559,-0.326595 -0.12347,-0.07938 -0.25867,-0.118856 -0.40566,-0.118856 z m 3.96875,0 c -0.22343,0 -0.41725,0.0511 -0.58188,0.153996 -0.16462,0.09995 -0.2911,0.236861 -0.3793,0.410311 -0.0882,0.170508 -0.1323,0.361425 -0.1323,0.573091 0,0.208727 0.0453,0.40016 0.13643,0.573609 0.0941,0.173448 0.22517,0.311551 0.39274,0.414445 0.16757,0.09995 0.3631,0.149861 0.58653,0.149861 0.26165,0 0.47461,-0.06153 0.63924,-0.185001 0.16756,-0.126412 0.28943,-0.288275 0.36587,-0.485242 h -0.36122 c -0.0588,0.108773 -0.14118,0.198162 -0.24702,0.268717 -0.10583,0.06762 -0.23692,0.101803 -0.39274,0.101803 -0.14699,0 -0.27638,-0.03077 -0.38809,-0.0925 -0.11171,-0.06468 -0.20109,-0.149965 -0.26871,-0.255798 -0.0647,-0.108773 -0.10584,-0.228249 -0.12351,-0.357601 h 1.84743 v -0.132292 c 0,-0.211666 -0.0441,-0.402583 -0.13229,-0.573091 -0.0882,-0.17345 -0.21468,-0.310358 -0.37931,-0.410311 -0.16169,-0.102893 -0.35551,-0.153996 -0.58187,-0.153997 z m -14.01827,0.03514 0.86403,2.205033 h 0.38809 l 0.8599,-2.205033 h -0.36174 l -0.69194,1.852083 -0.69712,-1.852083 z m 6.34535,0 v 1.283126 c 0,0.208726 0.0412,0.385116 0.12351,0.529166 0.0853,0.141112 0.19549,0.248449 0.33073,0.321945 0.13523,0.07055 0.27795,0.105936 0.42788,0.105936 0.17933,0 0.32615,-0.03657 0.4408,-0.11007 0.11465,-0.0735 0.21156,-0.163401 0.29094,-0.269235 v 0.344165 h 0.33073 v -2.205033 h -0.33073 v 1.270207 c 0,0.132291 -0.0308,0.248345 -0.0925,0.348299 -0.0588,0.09996 -0.13828,0.179435 -0.23823,0.238228 -0.1,0.05586 -0.21139,0.08372 -0.33487,0.08372 -0.17932,0 -0.32785,-0.06034 -0.44545,-0.180867 -0.11465,-0.123473 -0.17208,-0.285335 -0.17208,-0.485242 V 48.88272 Z m -2.78226,0.264583 c 0.16464,0 0.30273,0.03829 0.41445,0.114722 0.11464,0.07643 0.20113,0.177962 0.25993,0.304374 0.0588,0.126412 0.0884,0.265709 0.0884,0.418579 0,0.149931 -0.0296,0.289744 -0.0884,0.419096 -0.0588,0.126412 -0.14529,0.22794 -0.25993,0.304374 -0.11172,0.07644 -0.24981,0.114722 -0.41445,0.114722 -0.16168,0 -0.30031,-0.03829 -0.41496,-0.114722 -0.11465,-0.07643 -0.20113,-0.177962 -0.25993,-0.304374 -0.0588,-0.129352 -0.0884,-0.269165 -0.0884,-0.419096 0,-0.15287 0.0296,-0.292167 0.0884,-0.418579 0.0588,-0.126412 0.14528,-0.227939 0.25993,-0.304374 0.11465,-0.07644 0.25328,-0.114722 0.41496,-0.114722 z m 10.45518,0 c 0.21166,0 0.38224,0.06324 0.51159,0.189653 0.12936,0.126412 0.20883,0.283658 0.23823,0.471806 h -1.49965 c 0.0323,-0.188148 0.11182,-0.345394 0.23823,-0.471806 0.12935,-0.126412 0.29993,-0.189653 0.5116,-0.189653 z" />
      <path
         id="path1477"
         style="font-size:4.40972px;font-family:Questrial;-inkscape-font-specification:'Questrial, Normal';letter-spacing:0.185208px;fill:#c0c0c0;stroke:none;stroke-width:0.1;stroke-dasharray:none;stroke-opacity:1;fill-opacity:1"
         d="m 82.252773,77.999285 v 3.08715 h 0.33073 v -3.08715 z m 1.0759,0.07958 v 0.432015 h 0.35709 v -0.432015 z m -2.71198,0.767395 c -0.22048,0 -0.41191,0.05162 -0.57361,0.154512 -0.16168,0.09995 -0.28765,0.236346 -0.37878,0.409794 -0.0882,0.17051 -0.1323,0.361426 -0.1323,0.573092 0,0.208726 0.0441,0.400159 0.1323,0.573608 0.0911,0.173449 0.2171,0.311552 0.37878,0.414445 0.1617,0.09995 0.35313,0.149862 0.57361,0.149862 0.26164,0 0.48333,-0.06734 0.6656,-0.202572 0.18522,-0.135231 0.3105,-0.310426 0.37517,-0.525032 h -0.3576 c -0.05,0.126412 -0.13065,0.229134 -0.24237,0.308508 -0.10877,0.07937 -0.24106,0.119373 -0.39687,0.119373 -0.16169,0 -0.3027,-0.03829 -0.42323,-0.114722 -0.12054,-0.07643 -0.21335,-0.177962 -0.27802,-0.304374 -0.0647,-0.129351 -0.0966,-0.269165 -0.0966,-0.419096 0,-0.15287 0.032,-0.292167 0.0966,-0.418579 0.0647,-0.126412 0.15749,-0.227939 0.27802,-0.304374 0.12053,-0.07644 0.26154,-0.114722 0.42323,-0.114722 0.15581,0 0.2881,0.04 0.39687,0.119373 0.11169,0.07937 0.19237,0.182096 0.24237,0.308508 h 0.3576 c -0.0647,-0.214607 -0.18996,-0.389801 -0.37517,-0.525033 -0.18227,-0.135231 -0.40396,-0.202571 -0.6656,-0.202571 z m 4.93459,0 c -0.18227,0 -0.34003,0.03538 -0.47233,0.105936 -0.12934,0.06762 -0.23497,0.161621 -0.31729,0.282154 V 78.8814 h -0.33073 v 3.077848 h 0.33073 v -1.229899 c 0.0823,0.117592 0.18795,0.212792 0.31729,0.286287 0.1323,0.07056 0.29006,0.105937 0.47233,0.105937 0.2146,0 0.4009,-0.04991 0.55965,-0.149862 0.16169,-0.102893 0.28698,-0.240996 0.37517,-0.414445 0.0882,-0.173449 0.13229,-0.364882 0.13229,-0.573608 0,-0.211666 -0.0441,-0.402582 -0.13229,-0.573092 -0.0882,-0.173448 -0.21348,-0.30984 -0.37517,-0.409794 -0.15875,-0.102893 -0.34505,-0.154512 -0.55965,-0.154512 z m -2.20969,0.03514 v 2.205033 h 0.33073 V 78.8814 Z m 2.16524,0.264583 c 0.16463,0 0.30445,0.03829 0.4191,0.114722 0.11759,0.07643 0.20698,0.177962 0.26872,0.304374 0.0617,0.126412 0.093,0.265709 0.093,0.418579 0,0.149931 -0.0313,0.289745 -0.093,0.419096 -0.0617,0.126412 -0.15113,0.227939 -0.26872,0.304374 -0.11465,0.07644 -0.25447,0.114722 -0.4191,0.114722 -0.16169,0 -0.29979,-0.03829 -0.41444,-0.114722 -0.11465,-0.07643 -0.20113,-0.177962 -0.25993,-0.304374 -0.0588,-0.129351 -0.0884,-0.269165 -0.0884,-0.419096 0,-0.15287 0.0296,-0.292167 0.0884,-0.418579 0.0588,-0.126412 0.14528,-0.227939 0.25993,-0.304374 0.11465,-0.07644 0.25275,-0.114722 0.41444,-0.114722 z" />
      <path
         id="path1494"
         style="font-size:4.40972px;font-family:Questrial;-inkscape-font-specification:'Questrial, Normal';letter-spacing:0.185208px;fill:#c0c0c0;stroke:none;stroke-width:0.1;stroke-dasharray:none;stroke-opacity:1;fill-opacity:1"
         d="m 106.42287,48.080181 v 0.432015 h 0.3576 v -0.432015 z m -4.67413,0.767395 c -0.21461,0 -0.40262,0.04991 -0.56431,0.149862 -0.15875,0.09701 -0.28233,0.2305 -0.37052,0.401009 -0.0882,0.167569 -0.13229,0.357292 -0.13229,0.568957 0,0.208727 0.0441,0.398449 0.13229,0.568958 0.0882,0.170509 0.21177,0.305706 0.37052,0.40566 0.16169,0.09701 0.3497,0.145727 0.56431,0.145727 0.18226,0 0.33832,-0.03538 0.46767,-0.105936 0.13229,-0.0735 0.23963,-0.169212 0.32194,-0.286805 v 0.304375 c 0,0.226365 -0.0591,0.398138 -0.17673,0.51573 -0.11465,0.120533 -0.29805,0.180868 -0.55087,0.180868 -0.16757,0 -0.30619,-0.03077 -0.41496,-0.0925 -0.1088,-0.0588 -0.18486,-0.142374 -0.22893,-0.251147 h -0.36639 c 0.0617,0.191087 0.1795,0.345428 0.35295,0.463021 0.17345,0.120532 0.39856,0.180867 0.6749,0.180867 0.3322,0 0.58806,-0.0841 0.76739,-0.251664 0.18227,-0.167569 0.27337,-0.408393 0.27337,-0.722953 v -2.138888 h -0.33073 v 0.35295 c -0.0823,-0.120533 -0.18965,-0.214538 -0.32194,-0.282153 -0.12935,-0.07056 -0.28541,-0.105937 -0.46767,-0.105938 z m 2.80913,0 c -0.21461,0 -0.40262,0.0511 -0.56431,0.153996 -0.15875,0.09995 -0.28233,0.236861 -0.37052,0.410311 -0.0882,0.170508 -0.13229,0.361425 -0.13229,0.573091 0,0.208727 0.0441,0.40016 0.13229,0.573609 0.0882,0.173448 0.21177,0.311551 0.37052,0.414445 0.16169,0.09995 0.3497,0.149861 0.56431,0.149861 0.18226,0 0.3378,-0.03538 0.46715,-0.105936 0.13229,-0.07056 0.23963,-0.164562 0.32195,-0.282154 v 0.35295 h 0.33073 v -2.205033 h -0.33073 V 49.2398 c -0.0823,-0.120532 -0.18966,-0.215732 -0.32195,-0.286287 -0.12935,-0.07056 -0.28489,-0.105937 -0.46715,-0.105937 z m 4.03024,0 c -0.17933,0 -0.32615,0.03658 -0.4408,0.110071 -0.11465,0.0735 -0.21156,0.163401 -0.29094,0.269234 v -0.344165 h -0.33072 v 2.205033 h 0.33072 v -1.270206 c 0,-0.132292 0.029,-0.248346 0.0878,-0.3483 0.0617,-0.102896 0.14293,-0.182375 0.24288,-0.238228 0.1,-0.05585 0.21139,-0.08372 0.33487,-0.08372 0.18226,0 0.33079,0.06153 0.44545,0.185002 0.11465,0.120532 0.17208,0.2812 0.17208,0.481108 v 1.27434 h 0.33073 V 49.80462 c 0,-0.208727 -0.0429,-0.383922 -0.12816,-0.525033 -0.0823,-0.144051 -0.19084,-0.251389 -0.32608,-0.321944 -0.13229,-0.0735 -0.27501,-0.110071 -0.42788,-0.110071 z m -2.1518,0.03514 v 2.205033 h 0.33073 v -2.205033 z m -4.64365,0.264583 c 0.16169,0 0.2986,0.03658 0.41031,0.110071 0.11465,0.0735 0.20114,0.172117 0.25994,0.295589 0.0617,0.123472 0.093,0.261575 0.093,0.414445 0,0.149931 -0.0313,0.288033 -0.093,0.414445 -0.0588,0.123472 -0.14528,0.222094 -0.25994,0.295589 -0.11171,0.0735 -0.24862,0.110071 -0.41031,0.110071 -0.16169,0 -0.30098,-0.03657 -0.41858,-0.110071 -0.11759,-0.0735 -0.2075,-0.172117 -0.26923,-0.295589 -0.0617,-0.126412 -0.0925,-0.264514 -0.0925,-0.414445 0,-0.15287 0.0308,-0.290973 0.0925,-0.414445 0.0617,-0.123472 0.15164,-0.222094 0.26923,-0.295589 0.1176,-0.0735 0.25689,-0.110071 0.41858,-0.110071 z m 2.80913,0 c 0.16464,0 0.30273,0.03829 0.41445,0.114722 0.11464,0.07643 0.20165,0.177962 0.26045,0.304374 0.0588,0.126412 0.0879,0.265709 0.0879,0.418579 0,0.149931 -0.029,0.289744 -0.0879,0.419096 -0.0588,0.126412 -0.1458,0.22794 -0.26045,0.304374 -0.11172,0.07644 -0.24981,0.114722 -0.41445,0.114722 -0.16168,0 -0.30098,-0.03829 -0.41858,-0.114722 -0.11759,-0.07643 -0.2075,-0.177962 -0.26923,-0.304374 -0.0617,-0.129352 -0.0925,-0.269165 -0.0925,-0.419096 0,-0.15287 0.0308,-0.292167 0.0925,-0.418579 0.0617,-0.126412 0.15164,-0.227939 0.26923,-0.304374 0.1176,-0.07644 0.2569,-0.114722 0.41858,-0.114722 z" />
      <path
         id="rect1050"
         style="fill:#c0c0c0;fill-opacity:1;stroke:none;stroke-width:0.1;stroke-dasharray:none;stroke-opacity:1"
         d="m 82.898763,72.624069 v 3.408588 h -2.77657 v 1.117712 h 0.36173 v -0.765328 h 2.41484 v 0.765328 h 0.35192 v -0.765328 h 2.41226 v 0.765328 h 0.36173 v -1.117712 h -2.77399 v -3.408588 z"
         sodipodi:nodetypes="ccccccccccccccccc"
         inkscape:label="SELECTOR" />
      <path
         id="path1"
         style="fill:#ffc107;stroke-width:0.113193;fill-opacity:1"
         d="m 109.20798,38.817461 a 4.1320841,4.1320841 0 0 1 -4.13208,4.132083 4.1320841,4.1320841 0 0 1 -4.13209,-4.132083 4.1320841,4.1320841 0 0 1 4.13209,-4.132084 4.1320841,4.1320841 0 0 1 4.13208,4.132084 z" />
      <path
         id="path1-5"
         style="fill:#ffc107;stroke-width:0.113193;fill-opacity:1"
         d="m 65.207078,38.817461 a 4.1320841,4.1320841 0 0 1 -4.13208,4.132083 4.1320841,4.1320841 0 0 1 -4.13209,-4.132083 4.1320841,4.1320841 0 0 1 4.13209,-4.132084 4.1320841,4.1320841 0 0 1 4.13208,4.132084 z" />
      <path
         id="path1-8"
         style="fill:#ffc107;stroke-width:0.113193;fill-opacity:1"
         d="m 109.20798,68.68016 a 4.1320841,4.1320841 0 0 1 -4.13208,4.132083 4.1320841,4.1320841 0 0 1 -4.13209,-4.132083 4.1320841,4.1320841 0 0 1 4.13209,-4.132084 4.1320841,4.1320841 0 0 1 4.13208,4.132084 z" />
      <path
         id="path1-5-0"
         style="fill:#ffc107;stroke-width:0.113193;fill-opacity:1"
         d="m 65.207078,68.68016 a 4.1320841,4.1320841 0 0 1 -4.13208,4.132083 4.1320841,4.1320841 0 0 1 -4.13209,-4.132083 4.1320841,4.1320841 0 0 1 4.13209,-4.132084 4.1320841,4.1320841 0 0 1 4.13208,4.132084 z" />
      <path
         id="path1-8-8"
         style="fill:#ffc107;stroke-width:0.113193;fill-opacity:1"
         d="m 87.207283,68.68016 a 4.1320841,4.1320841 0 0 1 -4.13208,4.132083 4.1320841,4.1320841 0 0 1 -4.13209,-4.132083 4.1320841,4.1320841 0 0 1 4.13209,-4.132084 4.1320841,4.1320841 0 0 1 4.13208,4.132084 z" />
    </g>
  </g>
</svg>
