<?xml version="1.0" encoding="UTF-8" standalone="no"?>
<!-- Created with Inkscape (http://www.inkscape.org/) -->

<svg
   width="500"
   height="300"
   viewBox="0 0 132.29167 79.375"
   version="1.1"
   id="svg1"
   inkscape:export-filename="../assets/images/shiningpig-card.png"
   inkscape:export-xdpi="96"
   inkscape:export-ydpi="96"
   inkscape:version="1.3.1 (91b66b0783, 2023-11-16, custom)"
   sodipodi:docname="shiningpig-card.svg"
   xmlns:inkscape="http://www.inkscape.org/namespaces/inkscape"
   xmlns:sodipodi="http://sodipodi.sourceforge.net/DTD/sodipodi-0.dtd"
   xmlns="http://www.w3.org/2000/svg"
   xmlns:svg="http://www.w3.org/2000/svg">
  <sodipodi:namedview
     id="namedview1"
     pagecolor="#fd5419"
     bordercolor="#000000"
     borderopacity="0.25"
     inkscape:showpageshadow="2"
     inkscape:pageopacity="0.0"
     inkscape:pagecheckerboard="0"
     inkscape:deskcolor="#d1d1d1"
     inkscape:document-units="mm"
     inkscape:export-bgcolor="#fd5419ff"
     inkscape:zoom="2.1694726"
     inkscape:cx="211.80263"
     inkscape:cy="122.37997"
     inkscape:window-width="1920"
     inkscape:window-height="1057"
     inkscape:window-x="-8"
     inkscape:window-y="-8"
     inkscape:window-maximized="1"
     inkscape:current-layer="layer1"
     showgrid="false" />
  <defs
     id="defs1" />
  <g
     inkscape:label="Calque 1"
     inkscape:groupmode="layer"
     id="layer1">
    <path
       id="rect7321-12-0-9-3"
       style="display:inline;fill:#feeb23;fill-opacity:1;stroke:none;stroke-width:0.127274;stroke-dasharray:none;stroke-opacity:1"
       inkscape:label="contour"
       d="m 77.681156,56.407206 c -0.05041,0.0013 -0.101183,0.0052 -0.152655,0.01044 l -22.609288,2.587279 c -0.823497,0.09424 -1.544934,0.755879 -1.544934,1.537512 v 1.093679 H 0.591777 v 0.653235 h 52.782502 v 0.418824 H 0.591777 v 0.352624 H 53.374279 V 63.71134 H 0.591777 v 0.653236 h 52.782502 v 0.418823 H 0.591777 v 0.352624 h 52.782502 v 0.650545 H 0.591777 v 0.653235 h 52.782502 v 0.418822 H 0.591777 v 0.352626 h 52.782502 v 0.650543 H 0.591777 v 0.653255 h 52.782502 v 0.418826 H 0.591777 v 0.352626 h 52.782502 v 3.728255 c 0,0.781631 0.721437,1.278443 1.544934,1.184206 l 22.609288,-2.587285 c 0.823487,-0.09424 1.546961,-0.756546 1.546961,-1.538191 v -0.78699 H 131.69989 V 68.933871 H 79.075462 V 68.515046 H 131.69989 V 67.861813 H 79.075462 V 67.21127 H 131.69989 V 66.858646 H 79.075462 V 66.439822 H 131.69989 V 65.786587 H 79.075462 V 65.136043 H 131.69989 V 64.783419 H 79.075462 V 64.364596 H 131.69989 V 63.71136 H 79.075462 V 63.060818 H 131.69989 V 62.708192 H 79.075462 V 62.28937 H 131.69989 V 61.636134 H 79.075462 v -4.034917 c 0,-0.732781 -0.636229,-1.2146 -1.394306,-1.194338 z m -0.160099,0.676203 c 0.456786,0.0052 0.910731,0.426039 0.91062,0.675536 l -0.0047,12.208839 c -1.5e-4,0.346873 -0.491083,0.944016 -0.970723,0.999102 l -22.3391,2.565659 c -0.531048,0.06103 -1.088825,-0.261276 -1.088952,-0.737683 l -0.0039,-12.326371 c 0.01018,-0.412863 0.481082,-0.783499 0.895077,-0.806586 l 22.510992,-2.573764 c 0.03031,-0.0039 0.06086,-0.0052 0.09126,-0.0052 z m -0.622149,0.404639 c -0.04288,0.0013 -0.08655,0.0038 -0.130344,0.0092 l -21.088676,2.418399 c -0.701213,0.0804 -1.303763,0.611822 -1.303763,1.229461 v 11.044909 c 0,0.617641 0.60255,1.011285 1.303763,0.930877 l 21.088676,-2.418412 c 0.701225,-0.0804 1.301745,-0.611822 1.301745,-1.229462 V 58.428077 c 0,-0.579036 -0.527656,-0.961087 -1.171378,-0.940329 z m -0.0271,0.331017 c 0.507686,-0.01803 0.871111,0.275982 0.870765,0.647158 l -0.01021,11.015181 c -2.91e-4,0.307591 -0.500805,0.806991 -0.974124,0.861972 L 55.679712,72.79149 c -0.560958,0.06509 -0.974443,-0.243145 -0.974113,-0.639051 l 0.0089,-11.04423 c 2.92e-4,-0.361251 0.471344,-0.793907 0.965329,-0.851162 l 21.088391,-2.429878 c 0.03503,-0.0038 0.0695,-0.0065 0.103343,-0.0079 z"
       sodipodi:nodetypes="cccsccccccccccccccccccccccccccccccccsscsccccccccccccccccccccccccccccccccsccccccccccccccccssccssccccccccccccc" />
    <path
       style="display:inline;fill:#ffffff;fill-opacity:1;stroke:none;stroke-width:0.127274;stroke-dasharray:none;stroke-opacity:1"
       d="m 55.727144,72.034579 c -0.157881,-0.03161 -0.182623,-0.06452 -0.234411,-0.309751 -0.09889,-0.468296 -0.08056,-1.034208 0.05511,-1.702204 0.04327,-0.212977 0.09304,-0.298662 0.229079,-0.394009 0.140459,-0.09858 0.260529,-0.129272 0.521846,-0.133325 0.2302,-0.0038 0.232669,-0.0027 0.352306,0.05738 0.07039,0.03575 0.143208,0.08937 0.175127,0.129532 0.063,0.07876 0.06275,0.07382 0.03729,0.732412 -0.01565,0.405449 -0.0051,0.482972 0.06899,0.516238 0.172762,0.07733 0.624353,0.06476 1.107344,-0.03162 0.428707,-0.08497 0.777436,-0.149699 0.956624,-0.177548 0.08337,-0.01331 0.161269,-0.02966 0.173118,-0.0373 0.04875,-0.03148 0.229143,-0.896765 0.292869,-1.405137 0.09443,-0.752789 0.07878,-1.384206 -0.04366,-1.76832 -0.04378,-0.137472 -0.09202,-0.236514 -0.13053,-0.268426 -0.04124,-0.03433 -0.185222,-0.01146 -0.788077,0.119433 -0.746676,0.163286 -1.203548,0.249166 -1.40697,0.264425 -0.232503,0.01775 -0.8615,-0.0038 -1.056431,-0.0355 -0.255413,-0.04171 -0.464943,-0.138663 -0.549376,-0.254611 -0.03247,-0.04444 -0.03398,-0.124742 -0.04417,-2.349061 -0.0051,-1.266666 -0.01146,-2.567246 -0.01146,-2.890222 l -0.0013,-0.58722 0.05918,-0.08886 c 0.152995,-0.22983 0.473953,-0.374841 0.841608,-0.380255 0.298469,-0.0039 0.484009,0.06554 0.594939,0.2244 0.04315,0.06179 0.04366,0.06723 0.05753,0.620316 0.0076,0.306875 0.01566,1.040026 0.01769,1.629252 l 0.0038,1.071308 -0.05129,0.486988 c -0.05816,0.55125 -0.07268,1.146384 -0.03247,1.323961 0.04645,0.204764 0.07751,0.283337 0.115692,0.292884 0.05231,0.01331 0.353578,-0.02306 0.75552,-0.09067 0.380981,-0.06399 1.454431,-0.253921 1.517252,-0.268415 l 0.03984,-0.0078 v -2.612869 c 0,-1.992549 0.0051,-2.630625 0.02138,-2.687411 0.0336,-0.116976 0.194054,-0.271383 0.371765,-0.358053 0.201486,-0.09821 0.359039,-0.137558 0.57114,-0.14228 0.153338,-0.0038 0.20216,0.0038 0.36614,0.05351 l 0.189192,0.05752 0.0076,3.071721 c 0.0064,2.607867 0.01146,3.138273 0.03666,3.512415 0.04021,0.607193 0.05625,1.69622 0.03029,2.061226 -0.05396,0.758916 -0.209518,1.44637 -0.381719,1.68713 -0.104619,0.146255 -0.261318,0.272819 -0.490321,0.39594 -0.229615,0.123429 -0.388655,0.176567 -0.792888,0.26476 -0.60255,0.131437 -1.179276,0.216452 -1.663234,0.245168 -0.141108,0.0078 -0.475519,0.04702 -0.743149,0.08601 -0.506522,0.07371 -0.999707,0.107253 -1.144863,0.0781 z m 6.977726,-0.903108 c -0.112382,-0.01905 -0.21019,-0.0851 -0.252076,-0.170311 -0.05396,-0.109722 -0.04671,-0.771529 0.01515,-1.374812 0.0924,-0.901258 0.119127,-1.515343 0.119001,-2.729809 -6.4e-5,-0.896088 -0.0076,-1.153947 -0.07077,-2.339669 -0.05855,-1.104882 -0.06987,-1.421459 -0.08171,-2.285476 -0.01146,-0.847514 1.4e-4,-1.14216 0.05652,-1.423375 0.05384,-0.268026 0.113019,-0.373051 0.259624,-0.460356 0.259804,-0.154713 0.638544,-0.22913 1.561645,-0.306822 0.223836,-0.01878 0.629914,-0.06191 0.902394,-0.09547 1.205878,-0.149143 1.726897,-0.196472 2.264829,-0.206099 l 0.442339,-0.0078 0.084,0.04884 c 0.115181,0.0671 0.137225,0.118009 0.137225,0.316939 0,0.29515 -0.0826,1.250099 -0.115818,1.338608 -0.0513,0.136759 -0.611702,0.25168 -1.184725,0.242989 -0.190069,-0.0027 -0.335683,-0.01388 -0.395526,-0.03044 -0.05206,-0.01432 -0.09673,-0.02861 -0.09914,-0.03148 -0.0025,-0.0027 0.02188,-0.297665 0.05395,-0.654706 0.0322,-0.357042 0.04097,-0.26712 0.04544,-0.439385 0.0025,-0.09183 -0.09253,-0.03615 -0.264983,-0.0456 -0.144532,0.0039 -0.545622,0.04118 -0.788879,0.07463 -0.457573,0.0649 -1.218236,0.212888 -1.244034,0.262667 -0.06427,0.124092 -0.01616,1.325033 0.03525,2.297404 0.08196,1.549757 0.109837,2.953211 0.08349,4.19743 -0.02074,0.978887 -0.02914,1.137862 -0.105636,2.006035 -0.07076,0.801909 -0.09775,1.051139 -0.07382,1.096411 0.03957,0.0746 0.231727,0.02564 0.933118,-0.07241 0.238422,-0.03316 0.505874,-0.07125 0.612923,-0.07913 0.469881,-0.0346 0.733299,-0.06983 0.886765,-0.225308 0.162859,-0.16527 0.153492,-0.103372 0.233165,-1.399697 0.03106,-0.506029 0.06835,-2.23875 0.0518,-2.41366 -0.02687,-0.284451 -0.09877,-0.493399 -0.176478,-0.511987 -0.02418,-0.0052 -0.125619,7.64e-4 -0.225389,0.01331 -0.374221,0.05064 -0.726578,0.02875 -0.893916,-0.05543 -0.186851,-0.09404 -0.228711,-0.276614 -0.119001,-0.519228 0.05409,-0.119433 0.183578,-0.290449 0.260452,-0.343597 0.08578,-0.05932 0.489951,-0.117358 1.46787,-0.210735 0.41085,-0.03937 0.509526,-0.01331 0.85977,0.219168 l 0.210713,0.140321 0.01146,0.618062 c 0.0064,0.339944 0.02723,0.864951 0.04697,1.166695 0.08299,1.271291 0.08286,1.873421 -1.9e-4,2.453607 -0.04073,0.284606 -0.133816,0.674343 -0.202098,0.846413 -0.10831,0.273066 -0.376946,0.432003 -0.931297,0.551042 -0.806138,0.173107 -2.135229,0.362198 -3.430961,0.488129 -0.555447,0.05401 -0.871402,0.07098 -0.979292,0.05259 z m 7.340278,-0.890456 c -0.156547,-0.02047 -0.140968,0.05543 -0.164972,-0.804562 -0.02444,-0.877011 -0.04645,-1.306096 -0.144468,-2.819599 -0.139581,-2.155437 -0.162084,-2.675795 -0.16258,-3.760675 -6.1e-4,-1.261835 0.06021,-2.131694 0.21662,-3.100502 0.05511,-0.34107 0.0443,-0.314273 0.146606,-0.363259 0.194283,-0.09313 0.756576,-0.182356 1.188123,-0.188833 0.175204,-0.0027 0.280014,0.0027 0.308383,0.01761 0.115183,0.05777 0.493184,0.790207 0.980069,2.111551 0.150182,0.407562 0.336879,0.845338 0.385625,0.968341 0.231995,0.585485 0.726514,1.832996 1.387688,3.28041 0.707361,1.548503 0.948759,1.965506 0.960646,1.933757 0.021,-0.05624 -0.01539,-2.538981 -0.04085,-3.549603 -0.02049,-0.811801 -0.02252,-1.429201 -0.01018,-3.060878 0.0076,-1.124141 0.02075,-2.058014 0.02762,-2.075258 0.01616,-0.04054 0.101056,-0.09417 0.211618,-0.133451 0.144583,-0.05155 0.403266,-0.08679 0.905158,-0.123303 0.565549,-0.04105 0.542664,-0.04029 0.528857,-0.01657 -0.01461,0.02435 -0.0549,0.527301 -0.08146,1.018523 -0.02992,0.551468 -0.02624,2.20821 0.0079,3.565084 0.03503,1.391794 0.03856,1.487194 0.09202,2.43836 0.101059,1.799742 0.09889,2.630639 -0.0089,3.421286 -0.03604,0.263922 -0.05513,0.324347 -0.118108,0.374297 -0.150565,0.119294 -0.560272,0.202679 -1.03551,0.210812 -0.425857,0.0065 -0.402973,0.02164 -0.502603,-0.313064 -0.203931,-0.684901 -0.623538,-1.26646 -1.283845,-2.534255 -0.549287,-1.054661 -0.420142,-0.874767 -1.59046,-3.548774 -0.484249,-1.106411 -0.825113,-2.045567 -0.833563,-2.05484 -0.02024,-0.02228 0.01616,1.13927 0.03755,2.63872 0.01604,1.118248 0.06134,4.436457 0.07738,5.666568 l 0.0076,0.544902 -0.04454,0.03638 c -0.02457,0.01994 -0.08527,0.04948 -0.13501,0.06527 -0.268663,0.08601 -1.095532,0.184542 -1.311349,0.1562 z"
       id="path3141-3-2-6"
       sodipodi:nodetypes="cssccccssccssscccccsccscssccssccccssccccccsssscccccssscsssccccssscccssccsssssccsssccscscccsssssscccsssscscssssccscccsssssccsssssccccc"
       inkscape:label="logo" />
    <path
       style="display:inline;fill:#000000;stroke-width:0.112736"
       d="m 75.128644,53.230981 c -0.541854,-0.04816 -1.237867,-0.171462 -1.546678,-0.274035 -1.285329,-0.426914 -1.672387,-1.411889 -0.846568,-2.154311 0.213508,-0.191932 0.354981,-0.382175 0.314397,-0.422757 -0.04058,-0.04056 -0.999708,-0.0738 -2.131402,-0.0738 -1.13168,0 -2.137848,-0.03082 -2.23593,-0.06843 -0.136984,-0.05257 -0.178326,-0.236194 -0.178326,-0.791974 0,-0.713745 0.0052,-0.724457 0.338212,-0.791182 l 0.338199,-0.06763 v -1.387058 c 0,-1.566076 -0.07517,-1.741366 -0.745954,-1.741366 -0.803412,0 -1.109743,0.682844 -1.036808,2.31109 0.03341,0.744879 0.05115,0.791337 0.317202,0.828139 0.155006,0.02144 0.345246,0.09106 0.422762,0.154721 0.180675,0.148398 0.185007,1.239042 0.0052,1.418418 -0.10205,0.102051 -1.706538,0.135272 -6.529478,0.135272 -3.51681,0 -6.474434,-0.03082 -6.572517,-0.06844 -0.136984,-0.05256 -0.178326,-0.236195 -0.178326,-0.791973 0,-0.713747 0.0052,-0.724459 0.338213,-0.791183 l 0.338212,-0.06763 V 47.19979 c 0,-1.566075 -0.07504,-1.741369 -0.745968,-1.741369 -0.803399,0 -1.109743,0.682847 -1.036795,2.311091 0.03341,0.744879 0.05115,0.791338 0.317189,0.828139 0.155006,0.02144 0.345246,0.09106 0.422763,0.154724 0.193815,0.159186 0.184015,1.264848 -0.01305,1.428079 -0.111185,0.0923 -1.953467,0.119419 -6.679617,0.09835 l -6.526035,-0.0291 v -0.789161 -0.789156 l 0.366392,-0.03533 0.366394,-0.03533 v -1.40947 c 0,-0.775209 -0.05251,-1.507599 -0.116706,-1.627528 -0.182409,-0.340839 -0.901716,-0.296257 -1.277124,0.07915 -0.287723,0.287725 -0.297215,0.339918 -0.297215,1.634674 0,1.320456 0.0033,1.337462 0.259293,1.337462 0.142607,0 0.320172,0.06088 0.394577,0.13527 0.175531,0.175532 0.175531,1.244944 0,1.420476 -0.191213,0.191212 -4.611342,0.191212 -4.802555,0 -0.07441,-0.07442 -0.135276,-0.247085 -0.135276,-0.383734 0,-0.246933 -0.0036,-0.24649 -0.592208,0.0723 -1.086615,0.588535 -2.716937,0.67837 -3.946938,0.217492 -0.524637,-0.196582 -0.539739,-0.196132 -0.6551,0.01944 -0.09971,0.186297 -0.217905,0.215408 -0.759449,0.187035 l -0.641365,-0.03362 v -1.296465 -1.296465 l 0.605105,-0.03456 c 0.583919,-0.03331 0.62147,-0.01748 1.072535,0.453304 0.512676,0.535057 1.084009,0.764962 1.901007,0.764962 0.549277,0 0.901095,-0.243901 0.67621,-0.468787 -0.06663,-0.06655 -0.721437,-0.264001 -1.455209,-0.438765 -1.589465,-0.378569 -2.29113,-0.671824 -2.661992,-1.112567 -0.534921,-0.635718 -0.48619,-1.786648 0.105408,-2.489731 0.875818,-1.040853 3.152581,-1.393399 4.733299,-0.732935 0.387747,0.162012 0.443126,0.162574 0.557859,0.0057 0.07866,-0.107557 0.302375,-0.174205 0.58486,-0.174205 0.8081,0 0.814129,0.0091 0.814129,1.240097 0,1.237734 -0.0017,1.240099 -0.849003,1.240099 -0.434005,0 -0.529529,-0.04874 -0.806012,-0.411229 -0.3821,-0.500958 -0.863298,-0.716133 -1.60149,-0.716133 -0.659934,0 -0.914729,0.08077 -0.914729,0.289935 0,0.230564 0.282464,0.338952 1.55882,0.598147 0.640332,0.13003 1.375938,0.330065 1.634673,0.444522 0.906482,0.400983 1.445013,1.319607 1.274222,2.173564 -0.06385,0.319261 -0.04816,0.339255 0.240361,0.306033 l 0.308678,-0.03554 0.03,-3.07206 0.02999,-3.072057 h -0.486561 c -0.267615,0 -0.547453,-0.06088 -0.621859,-0.13527 -0.175533,-0.175536 -0.175533,-1.244945 0,-1.420476 0.189879,-0.189878 3.823524,-0.189878 4.013402,0 0.09152,0.09149 0.135271,0.614961 0.135271,1.617435 v 1.482153 l 0.564637,-0.279439 c 1.035065,-0.512244 2.736273,-0.342129 3.474853,0.347479 0.550702,0.514188 0.623537,0.812 0.674185,2.756655 l 0.04772,1.831964 h 0.606811 0.606814 v -1.684865 -1.684869 l -0.535497,-0.03434 -0.535497,-0.03435 V 44.331117 43.4856 l 1.901607,-0.03096 c 1.306752,-0.02126 1.950343,0.0096 2.05743,0.09834 0.123973,0.102847 0.155828,0.635091 0.155828,2.601099 v 2.471766 l 0.704599,-0.03358 0.704612,-0.03358 0.03119,-1.656558 0.03119,-1.656563 -0.538475,-0.03446 -0.538475,-0.03446 V 44.33112 43.485601 l 1.845153,-0.03107 c 1.919616,-0.0323 2.15698,0.01607 2.15698,0.439423 0,0.268743 0.05859,0.265611 0.466635,-0.02496 0.657646,-0.468293 2.60096,-0.499312 3.459731,-0.05522 0.184706,0.09553 0.454876,0.365137 0.600369,0.599161 0.245155,0.3943 0.267313,0.563934 0.302234,2.313824 l 0.03771,1.888329 h 0.666911 0.666912 V 46.930249 45.24538 l -0.535487,-0.03434 -0.5355,-0.03434 v -0.845557 -0.845517 l 1.901607,-0.031 c 1.306757,-0.02126 1.950348,0.0096 2.057435,0.09834 0.123974,0.102857 0.155828,0.635087 0.155828,2.601095 v 2.471768 l 0.704599,-0.03358 0.704599,-0.03358 0.03119,-1.65656 0.03119,-1.656562 -0.538474,-0.03446 -0.538475,-0.03446 V 44.331099 43.48558 l 1.845153,-0.03107 c 1.919616,-0.0323 2.156979,0.01606 2.156979,0.439423 0,0.268742 0.05859,0.265608 0.466636,-0.02496 0.657659,-0.468293 2.60096,-0.499313 3.459729,-0.05522 0.184708,0.09553 0.454878,0.365135 0.600384,0.599161 0.24514,0.394299 0.267299,0.563934 0.30222,2.313825 0.03693,1.851392 0.04241,1.888239 0.281838,1.883748 0.134282,-0.0027 0.414801,-0.150537 0.623364,-0.328935 l 0.379201,-0.324331 -0.31835,-0.417385 c -0.252045,-0.33045 -0.32776,-0.564879 -0.363451,-1.125491 -0.06133,-0.963291 0.114186,-1.416746 0.779806,-2.015243 1.089476,-0.979546 3.097127,-1.221493 4.631916,-0.558207 0.396571,0.171385 0.43957,0.167557 0.958262,-0.08537 0.51796,-0.252569 0.655049,-0.264926 2.966877,-0.267366 l 2.423821,-0.0027 0.03602,0.253656 c 0.04346,0.306282 -0.01174,0.304984 0.643591,0.01517 1.139903,-0.504238 2.837202,-0.225869 3.61929,0.593585 l 0.323284,0.338724 0.05638,-0.600563 0.05638,-0.600561 1.901607,-0.03095 c 1.306743,-0.02127 1.950348,0.0096 2.057435,0.09834 0.123972,0.102837 0.155828,0.63429 0.155828,2.595714 v 2.466393 l 0.253649,-0.0047 c 0.139516,-0.0027 0.424301,-0.150535 0.632864,-0.328931 l 0.379202,-0.324347 -0.31835,-0.41739 c -0.252045,-0.330448 -0.327747,-0.56488 -0.363451,-1.125486 -0.06133,-0.963297 0.114055,-1.41675 0.779805,-2.015245 1.089471,-0.97955 3.097127,-1.221494 4.631917,-0.55821 0.39519,0.170795 0.44061,0.167138 0.94256,-0.07586 0.87449,-0.423331 2.04976,-0.296391 2.5218,0.272374 0.2398,0.288962 0.27961,1.008367 0.0774,1.399367 -0.21737,0.420349 -0.49067,0.585369 -0.96947,0.585369 -0.51471,0 -0.78027,-0.184081 -1.0296,-0.713694 l -0.22128,-0.470031 0.0877,0.507309 c 0.1983,1.146566 -0.0589,1.943075 -0.83464,2.585902 -0.73444,0.608504 -2.243613,0.872512 -3.723565,0.65138 -0.492527,-0.07361 -0.591879,-0.05977 -0.591879,0.08239 0,0.269996 0.466016,0.321804 2.125565,0.236301 1.736189,-0.08946 2.798479,0.04069 3.342149,0.409502 1.45176,0.984806 1.07597,2.9225 -0.69535,3.585231 -1.31037,0.490274 -4.290876,0.518452 -5.689824,0.05379 -1.277473,-0.424307 -1.646549,-1.410776 -0.809063,-2.162452 0.287109,-0.257696 0.359653,-0.380835 0.248626,-0.422073 -0.08626,-0.032 -1.222129,-0.07122 -2.524227,-0.08708 l -2.367461,-0.02888 -0.05638,-0.544247 -0.05638,-0.54425 -0.32327,0.33878 c -0.772536,0.809576 -2.489371,1.093457 -3.611382,0.597141 l -0.528974,-0.233989 0.03341,0.700594 0.03341,0.700596 0.449514,0.0366 c 0.247241,0.02013 0.513575,0.08975 0.591861,0.154724 0.18198,0.151019 0.187396,1.240497 0.0065,1.420818 -0.191649,0.19165 -4.949105,0.19165 -5.140768,0 -0.07438,-0.07442 -0.135261,-0.308716 -0.135261,-0.52069 v -0.38533 l -0.359459,0.351434 c -0.475939,0.465259 -1.33985,0.775342 -2.544949,0.913425 -1.075475,0.123229 -1.099539,0.123177 -2.533898,-0.0041 z m 3.313507,-1.656614 c 0.112358,-0.112568 0.112228,-0.169275 -1.05e-4,-0.281841 -0.198696,-0.198952 -3.455618,-0.271626 -3.683873,-0.0822 -0.193515,0.160614 -0.122408,0.312911 0.211668,0.453613 0.371594,0.156486 3.302258,0.08089 3.472336,-0.08958 z m 21.194399,0 c 0.11236,-0.112568 0.11223,-0.169275 -1.2e-4,-0.281841 -0.19868,-0.198952 -3.455615,-0.271626 -3.683857,-0.0822 -0.193517,0.160614 -0.122537,0.312911 0.211655,0.453613 0.371595,0.156486 3.302262,0.08089 3.472332,-0.08958 z M 81.738575,51.14239 c 0.03758,-0.09807 0.06838,-1.395408 0.06838,-2.882954 v -2.704634 l -0.297053,0.233657 c -0.324105,0.25495 -0.932841,0.307385 -1.298248,0.111823 -0.125279,-0.06701 -0.327225,-0.333347 -0.448928,-0.591864 l -0.221273,-0.470034 0.08769,0.507312 c 0.198292,1.146563 -0.05886,1.943072 -0.834654,2.585903 -0.73443,0.6085 -2.243603,0.872511 -3.72357,0.651379 -0.492514,-0.07361 -0.591862,-0.05974 -0.591862,0.08239 0,0.269994 0.466009,0.321805 2.125568,0.236301 1.744526,-0.08987 2.797869,0.04073 3.352304,0.415683 0.54479,0.368441 0.854424,0.90268 0.863298,1.489549 l 0.0079,0.513795 h 0.421026 c 0.279919,0 0.443955,-0.05977 0.48946,-0.178323 z m 8.636372,-4.218387 v -1.691041 h -0.439909 -0.43991 l 0.158073,0.52523 c 0.08691,0.288877 0.158073,0.81349 0.158073,1.165811 0,0.352321 -0.07112,0.876933 -0.158073,1.16581 l -0.158073,0.525232 h 0.43991 0.439909 z m -4.062945,1.46795 c 0.290228,-0.155321 0.455387,-0.70818 0.455387,-1.524317 0,-1.207093 -0.264794,-1.634674 -1.012339,-1.634674 -0.728677,0 -1.1167,0.838276 -0.991448,2.141848 0.07816,0.813739 0.324862,1.127502 0.886435,1.127502 0.250662,0 0.54855,-0.04966 0.661965,-0.11035 z m -9.692285,-1.218657 c 0.197509,-0.159938 0.259574,-0.352346 0.299963,-0.930073 0.07569,-1.082533 -0.207009,-1.480772 -0.92347,-1.300953 -0.550559,0.138173 -0.664445,1.811399 -0.152148,2.235389 0.301202,0.249284 0.463542,0.248367 0.775655,-0.0044 z m 21.194401,0 c 0.197502,-0.159938 0.259552,-0.352346 0.299942,-0.930073 0.0757,-1.082533 -0.20701,-1.480772 -0.923453,-1.300953 -0.550555,0.138173 -0.664443,1.811399 -0.152162,2.235389 0.30121,0.249284 0.463562,0.248367 0.775673,-0.0044 z m -50.448006,-3.96601 c -0.772446,-0.176222 -1.18373,-0.650166 -1.18373,-1.364073 0,-0.467954 0.725865,-1.224573 1.198649,-1.249436 1.262164,-0.06638 1.957968,0.39069 1.957968,1.286151 0,0.236404 -0.08365,0.557463 -0.185856,0.713461 -0.321666,0.490925 -1.121567,0.765713 -1.787031,0.613897 z m 13.641071,0 c -0.772445,-0.176222 -1.183736,-0.650166 -1.183736,-1.364073 0,-0.467954 0.72587,-1.224573 1.198653,-1.249436 1.262165,-0.06638 1.957969,0.39069 1.957969,1.286151 0,0.236404 -0.08365,0.557463 -0.185843,0.713461 -0.321678,0.490925 -1.121566,0.765713 -1.787043,0.613897 z m 30.438751,0 C 90.673501,43.031064 90.26221,42.55712 90.26221,41.843213 c 0,-0.467954 0.725857,-1.224573 1.198652,-1.249436 1.262153,-0.06638 1.957957,0.39069 1.957957,1.286151 0,0.236404 -0.08365,0.557463 -0.185844,0.713461 -0.321664,0.490925 -1.121566,0.765713 -1.787041,0.613897 z"
       id="path2232"
       sodipodi:insensitive="true"
       inkscape:label="shiningpig" />
    <path
       style="display:inline;fill:#000000;stroke-width:0.112243"
       d="m 66.221847,44.761304 -24.702455,0.0283 -0.07508,-0.07507 -0.07507,-0.07507 V 40.34884 36.058217 l 0.177548,-0.06813 0.177541,-0.06813 h 1.66783 1.667835 l 0.06938,-0.112242 0.06938,-0.112241 h 0.610713 0.610708 V 35.14021 34.582946 l 0.217106,-0.116196 0.217109,-0.116195 h 2.129883 2.129875 l 0.03823,-4.87085 0.03823,-4.870845 0.196427,-0.216965 0.196425,-0.216961 v -0.123452 -0.123438 l 0.176381,-0.176384 0.176382,-0.176379 h 0.877914 0.877913 l 0.06812,-0.177546 0.06812,-0.177542 V 22.829125 22.43808 l 0.116144,-0.217109 0.116143,-0.217106 h 0.37269 0.372689 l 0.07099,-2.329029 0.07099,-2.329034 0.06956,-5.050912 0.06956,-5.0509103 0.162301,-0.2579024 0.162287,-0.2579023 0.358688,-0.2187085 0.3587,-0.2187085 0.455047,-4.202e-4 0.455061,-4.163e-4 0.513654,0.3257536 0.513667,0.3257523 0.07477,0.1209718 0.07477,0.1209718 0.05273,4.463879 0.05259,4.463883 0.06694,2.940201 0.06694,2.940204 0.24,0.03423 0.239999,0.03423 0.03511,0.364789 0.03511,0.364789 h 0.105185 0.105185 v 0.244574 0.244577 l 0.134791,0.372758 0.134779,0.372757 h 0.573344 0.573331 l 0.180257,0.140303 0.180258,0.140303 0.134308,0.673455 0.134322,0.673455 0.211916,0.561214 0.211916,0.56121 5.2e-5,0.364789 5.2e-5,0.364786 h 4.040734 4.040735 v -0.375268 -0.375278 l 0.230485,-0.662963 0.230499,-0.662968 0.106487,-0.550078 0.106486,-0.550078 0.12567,-0.151439 0.12567,-0.151435 h 0.649842 0.649842 l 0.0723,-0.477032 0.0723,-0.47703 0.09187,-0.224482 0.09187,-0.224487 0.123843,-0.308665 0.123843,-0.308669 h 0.322147 0.322148 l 0.074,-4.405515 0.07399,-4.40552 0.01174,-2.953137 0.01174,-2.9531399 0.26636,-0.3165469 0.266348,-0.316543 0.383063,-0.181771 0.383052,-0.1817709 h 0.409516 0.409517 l 0.30337,0.1568693 0.303356,0.1568731 0.216418,0.2391432 0.216418,0.2391433 0.13825,7.4328978 0.138236,7.432897 0.01041,0.01404 0.0091,0.01405 0.336724,0.06735 0.336738,0.06735 v 0.572038 0.572034 l 0.160343,0.160348 0.160343,0.160344 h 0.827385 0.827398 l 0.134688,0.134691 0.134686,0.134691 v 0.1616 0.161604 l 0.18891,0.138134 0.188909,0.138133 0.08221,0.659939 0.08221,0.659934 0.0091,3.732064 0.0091,3.732061 h 4.91622 4.916221 l 0.134687,0.13469 0.1347,0.134691 v 0.587079 0.587079 l 0.25254,0.03588 0.25254,0.03585 v 4.994791 4.994792 z M 43.614085,44.003417 h 1.459151 v -3.647879 -3.64788 H 43.614085 42.15493 v 3.64788 3.647879 z m 2.525454,0 h 0.392848 v -3.760124 -3.760122 h -0.392848 -0.392847 v 3.760122 3.760124 z m 3.030548,0 h 1.964246 V 39.569839 35.13626 h -1.964246 -1.964246 v 4.433579 4.433578 z m 3.068366,0 h 0.318415 l 0.07425,-5.135091 0.07425,-5.135095 1.04e-4,-2.497396 1.57e-4,-2.497396 h -0.392852 -0.392852 v 7.632491 7.632487 z m 1.139928,0 h 0.338761 l -0.02871,-9.793155 -0.02871,-9.793158 -0.589265,-0.03394 -0.589277,-0.03394 v 0.174228 0.174228 l -0.224483,0.224487 -0.224483,0.224482 v 0.386702 0.386701 l 0.53315,0.03419 0.533151,0.03419 -0.0295,9.007459 -0.02949,9.007458 z m 3.498579,0 h 2.375355 l -0.07764,-8.849508 -0.07764,-8.849511 0.07138,-0.186009 0.07138,-0.18601 h 0.549215 0.549201 v -0.505094 -0.505089 h -0.889932 -0.88992 L 58.38197,24.745813 58.205588,24.569433 V 23.67951 22.789586 h -1.739762 -1.73975 v 0.498467 0.498472 l -0.112229,0.06938 -0.112229,0.06938 v 10.039077 10.039077 z m 3.19628,0 h 0.264977 V 36.37093 28.738439 h -0.336725 -0.336724 l 8.47e-4,7.043219 8.49e-4,7.043213 0.07073,0.589273 0.07074,0.589273 h 0.264963 z m 5.652622,0 h 4.040721 v -6.846791 -6.84679 h -4.040721 -4.040734 v 6.84679 6.846791 z m 5.640173,-0.02095 0.364794,-0.03517 0.02884,-7.56925 0.02884,-7.569252 -0.120319,-0.07435 -0.120319,-0.07435 -0.273356,0.05225 -0.273354,0.05225 v 7.626517 7.626513 z m 3.153514,0.02095 h 2.430557 V 33.964339 23.925263 l -0.112229,-0.06938 -0.112229,-0.06938 V 23.288045 22.789578 H 74.93413 73.142624 l -0.03237,0.982124 -0.03237,0.982121 -0.970123,0.03225 -0.970123,0.03225 -0.06656,0.248348 -0.06655,0.248354 -0.0013,0.302802 -0.0013,0.302799 0.589265,0.03394 0.589277,0.03394 -0.04542,9.007458 -0.04541,9.007458 h 2.430556 z m 3.552971,0 h 0.336739 v -8.979397 -8.9794 h 0.505093 0.50508 v -0.508614 -0.508614 l -0.168356,-0.06461 -0.168369,-0.06462 V 24.62957 24.360974 h -0.673448 -0.673463 v 9.821217 9.821217 z m 1.141143,0 h 0.318024 v -7.619404 -7.619402 l -0.256782,-0.04909 -0.256794,-0.04908 -0.136057,0.04535 -0.136071,0.04536 v 7.548308 7.548307 l 0.07477,0.07483 0.07477,0.07483 z m 6.04238,0 h 4.938667 v -4.313528 -4.31353 l -0.252541,-0.03585 -0.25254,-0.03585 -0.03328,-0.63155 -0.03328,-0.63155 -0.415728,-0.06874 -0.415716,-0.06873 -4.237146,-0.0013 -4.23716,-0.0013 v 5.050912 5.050912 z m -21.46637,-14.068365 2.104544,-0.07355 1.936177,-3.35e-4 1.936189,-3.01e-4 v -0.505087 -0.505093 l -1.936189,-3.35e-4 -1.936177,-3.36e-4 -2.104544,-0.07355 -2.104545,-0.07355 v 0.652829 0.652825 l 2.104545,-0.07355 z m 1.936189,-1.53334 h 4.040721 v -0.168361 -0.168367 l -1.936189,-3.34e-4 -1.936177,-3.4e-4 -2.104544,-0.07355 -2.104545,-0.07355 v 0.242231 0.242232 h 4.040734 z m -9.203897,-6.28558 h 0.112229 V 15.437708 8.7592793 h 0.112229 0.112229 l 0.02715,6.6503657 0.02715,6.650366 0.02988,-6.603299 0.02988,-6.6032965 0.114838,0.038302 0.114839,0.038301 -0.0052,6.5369415 -0.0052,6.53694 h 0.113925 0.113926 V 15.549937 9.0959961 h 0.112228 0.112228 v 6.4539409 6.453942 h 0.112229 0.112228 l -1.04e-4,-1.992302 -1.18e-4,-1.992306 -0.07438,-4.63948 -0.0744,-4.639477 L 57.461836,8.5713202 57.203919,8.4023263 56.752787,8.3418144 56.301668,8.2813026 55.962816,8.421656 55.623899,8.5620108 v 0.2108677 0.2108656 h 0.120319 0.12032 l -0.03615,6.5101089 -0.03615,6.510104 0.08417,-4.2e-5 0.08417,-4.3e-5 V 15.381584 8.7592793 h 0.112228 0.112229 l 0.02676,6.6503657 0.02675,6.650366 0.05886,-6.678427 0.05886,-6.6784242 0.02676,6.7064852 0.02676,6.706487 z m -1.14503,-0.112241 h 0.10544 l 0.06956,-0.420911 0.06956,-0.420906 -0.01579,-6.061094 -0.01579,-6.0610929 -0.08117,1.6275119 -0.08117,1.627517 -0.07817,4.854487 -0.07817,4.854488 z m 18.514553,1.1e-4 0.140311,-1.1e-4 V 15.549948 9.0960078 h 0.111315 0.111315 l 0.02989,6.4820022 0.02988,6.482001 0.02714,-6.594244 0.02715,-6.5942462 h 0.112227 0.112229 v 6.5661872 6.566183 h 0.112229 0.112228 V 15.381584 8.7592793 h 0.112229 0.112228 l 0.02715,6.6503657 0.02714,6.650366 0.02988,-6.650366 0.02989,-6.6503657 h 0.111315 0.111315 l 0.02715,6.6503657 0.02714,6.650366 0.02988,-6.650366 0.02988,-6.6503657 h 0.111315 0.111314 l 0.02715,6.6503657 0.02714,6.650366 0.02988,-6.538125 0.02988,-6.5381236 h 0.111315 0.111315 V 8.7679849 8.5522035 L 75.65868,8.422423 75.26545,8.2926425 l -0.364404,0.07197 -0.364402,0.07197 -0.295723,0.1134812 -0.295721,0.1134813 -0.07164,4.172778 -0.07165,4.172773 -0.02545,2.497506 -0.02545,2.497504 z m 2.328676,-1.1e-4 h 0.16799 l -0.06904,-3.732061 -0.06904,-3.732063 -0.0813,-2.749942 -0.0813,-2.7499379 -0.01762,6.4819989 -0.01762,6.482005 z M 57.672451,8.4134356 l 0.08417,0.00914 V 8.0987521 7.7749339 L 57.492429,7.6018254 57.228235,7.4287168 56.826287,7.353315 56.424354,7.2779131 56.02418,7.4099825 55.624021,7.5420481 v 0.381364 0.381368 l 0.287918,-0.1094619 0.287905,-0.1094619 0.357487,0.00509 0.357474,0.00509 0.336738,0.1541837 0.336724,0.1541849 0.08417,0.00914 z M 74.308795,8.2484597 74.698045,8.085825 h 0.389146 0.389145 l 0.287919,0.1094619 0.287905,0.1094619 V 7.9845401 7.6643366 l -0.185868,-0.1540479 -0.185869,-0.154044 -0.58535,0.00574 -0.585336,0.00574 -0.295096,0.1933487 -0.295083,0.1933475 V 8.0828378 8.411251 Z m -18.292653,-1.0746946 0.408276,-0.1127375 0.357448,0.0718 0.357434,0.071813 0.224484,0.053556 0.224496,0.053556 L 57.3704,7.13758 57.15252,6.9634015 h -0.638253 -0.638268 l -0.134073,0.1615528 -0.134074,0.161549 z m 18.296268,0.084433 0.224483,-0.053556 0.357435,-0.071814 0.357448,-0.0718 0.408276,0.1127374 0.40829,0.1127374 L 75.934268,7.124954 75.800194,6.963401 h -0.638267 -0.638254 l -0.217879,0.1741787 -0.21788,0.1741733 z"
       id="path924"
       inkscape:label="station" />
    <path
       style="display:inline;fill:#ffea13;fill-opacity:1;stroke-width:0.112243"
       d="m 67.305244,18.309203 h -0.08822 l -0.06733,-0.175476 -0.06734,-0.175479 -0.113794,0.07035 -0.113795,0.07035 -0.06734,-0.175479 -0.06733,-0.175477 h -0.278673 -0.278666 l -0.210677,0.252546 -0.210689,0.252545 -0.0039,-0.266289 -0.0039,-0.266288 -0.158374,0.131437 -0.158359,0.131434 -0.07269,-0.117696 -0.07269,-0.117696 0.06603,-0.106761 0.06603,-0.10676 -0.452282,-0.13548 L 64.49904,17.2635 v -0.143034 -0.143033 l 0.226114,-0.07176 0.226115,-0.07176 -0.07504,-0.121507 -0.07504,-0.121506 0.137049,0.08471 0.137063,0.08471 0.14407,-0.197035 0.144069,-0.197034 0.628976,-0.05216 0.628975,-0.05216 0.266478,0.06688 0.266477,0.06688 0.319133,0.295771 0.319147,0.295768 -0.131464,0.210509 -0.131464,0.210505 v 0.272951 0.272949 l -0.06812,0.177544 -0.06812,0.177543 z"
       id="path922"
       inkscape:label="pig" />
  </g>
</svg>
