<?xml version="1.0" encoding="UTF-8" standalone="no"?>
<!-- Created with Inkscape (http://www.inkscape.org/) -->

<svg
   width="500"
   height="300"
   viewBox="0 0 132.29167 79.375"
   version="1.1"
   id="svg1"
   inkscape:export-filename="../assets/images/thetonecushion-card.png"
   inkscape:export-xdpi="96"
   inkscape:export-ydpi="96"
   inkscape:version="1.3.1 (91b66b0783, 2023-11-16, custom)"
   sodipodi:docname="thetonecushion-card.svg"
   xmlns:inkscape="http://www.inkscape.org/namespaces/inkscape"
   xmlns:sodipodi="http://sodipodi.sourceforge.net/DTD/sodipodi-0.dtd"
   xmlns="http://www.w3.org/2000/svg"
   xmlns:svg="http://www.w3.org/2000/svg">
  <sodipodi:namedview
     id="namedview1"
     pagecolor="#6dcff6"
     bordercolor="#000000"
     borderopacity="0.25"
     inkscape:showpageshadow="2"
     inkscape:pageopacity="0.0"
     inkscape:pagecheckerboard="0"
     inkscape:deskcolor="#d1d1d1"
     inkscape:document-units="mm"
     inkscape:export-bgcolor="#6dcff6ff"
     inkscape:zoom="2.1694726"
     inkscape:cx="240.84194"
     inkscape:cy="150.26694"
     inkscape:window-width="1920"
     inkscape:window-height="1057"
     inkscape:window-x="-8"
     inkscape:window-y="-8"
     inkscape:window-maximized="1"
     inkscape:current-layer="g1"
     showgrid="false" />
  <defs
     id="defs1" />
  <g
     inkscape:label="Calque 1"
     inkscape:groupmode="layer"
     id="layer1">
    <path
       id="rect7321-12-0-9-3"
       style="display:inline;fill:#e74d93;fill-opacity:1;stroke:none;stroke-width:0.127274;stroke-dasharray:none;stroke-opacity:1"
       inkscape:label="contour"
       d="m 77.681156,56.407206 c -0.05041,0.0013 -0.101183,0.0052 -0.152655,0.01044 l -22.609288,2.587279 c -0.823497,0.09424 -1.544934,0.755879 -1.544934,1.537512 v 1.093679 H 0.591777 v 0.653235 h 52.782502 v 0.418824 H 0.591777 v 0.352624 H 53.374279 V 63.71134 H 0.591777 v 0.653236 h 52.782502 v 0.418823 H 0.591777 v 0.352624 h 52.782502 v 0.650545 H 0.591777 v 0.653235 h 52.782502 v 0.418822 H 0.591777 v 0.352626 h 52.782502 v 0.650543 H 0.591777 v 0.653255 h 52.782502 v 0.418826 H 0.591777 v 0.352626 h 52.782502 v 3.728255 c 0,0.781631 0.721437,1.278443 1.544934,1.184206 l 22.609288,-2.587285 c 0.823487,-0.09424 1.546961,-0.756546 1.546961,-1.538191 v -0.78699 H 131.69989 V 68.933871 H 79.075462 V 68.515046 H 131.69989 V 67.861813 H 79.075462 V 67.21127 H 131.69989 V 66.858646 H 79.075462 V 66.439822 H 131.69989 V 65.786587 H 79.075462 V 65.136043 H 131.69989 V 64.783419 H 79.075462 V 64.364596 H 131.69989 V 63.71136 H 79.075462 V 63.060818 H 131.69989 V 62.708192 H 79.075462 V 62.28937 H 131.69989 V 61.636134 H 79.075462 v -4.034917 c 0,-0.732781 -0.636229,-1.2146 -1.394306,-1.194338 z m -0.160099,0.676203 c 0.456786,0.0052 0.910731,0.426039 0.91062,0.675536 l -0.0047,12.208839 c -1.5e-4,0.346873 -0.491083,0.944016 -0.970723,0.999102 l -22.3391,2.565659 c -0.531048,0.06103 -1.088825,-0.261276 -1.088952,-0.737683 l -0.0039,-12.326371 c 0.01018,-0.412863 0.481082,-0.783499 0.895077,-0.806586 l 22.510992,-2.573764 c 0.03031,-0.0039 0.06086,-0.0052 0.09126,-0.0052 z m -0.622149,0.404639 c -0.04288,0.0013 -0.08655,0.0038 -0.130344,0.0092 l -21.088676,2.418399 c -0.701213,0.0804 -1.303763,0.611822 -1.303763,1.229461 v 11.044909 c 0,0.617641 0.60255,1.011285 1.303763,0.930877 l 21.088676,-2.418412 c 0.701225,-0.0804 1.301745,-0.611822 1.301745,-1.229462 V 58.428077 c 0,-0.579036 -0.527656,-0.961087 -1.171378,-0.940329 z m -0.0271,0.331017 c 0.507686,-0.01803 0.871111,0.275982 0.870765,0.647158 l -0.01021,11.015181 c -2.91e-4,0.307591 -0.500805,0.806991 -0.974124,0.861972 L 55.679712,72.79149 c -0.560958,0.06509 -0.974443,-0.243145 -0.974113,-0.639051 l 0.0089,-11.04423 c 2.92e-4,-0.361251 0.471344,-0.793907 0.965329,-0.851162 l 21.088391,-2.429878 c 0.03503,-0.0038 0.0695,-0.0065 0.103343,-0.0079 z"
       sodipodi:nodetypes="cccsccccccccccccccccccccccccccccccccsscsccccccccccccccccccccccccccccccccsccccccccccccccccssccssccccccccccccc" />
    <g
       id="g1">
      <path
         style="display:inline;fill:#e74d93;fill-opacity:1;stroke-width:0.0917579"
         d="m 55.321134,31.104924 c -0.289312,-0.176418 -0.596823,-0.546497 -0.879077,-1.057936 -0.36922,-0.669026 -1.175253,-2.383726 -1.175253,-2.500154 0,-0.1853 -0.796262,-1.569546 -1.164814,-2.024945 -0.380226,-0.469826 -0.594046,-0.491058 -0.963399,-0.09566 -0.300188,0.321353 -1.173297,1.989245 -1.177993,2.25031 -0.0044,0.245283 -0.222652,0.483397 -0.443048,0.483397 -0.30234,0 -0.248656,-0.211268 0.368897,-1.451754 0.654602,-1.314906 1.259692,-2.035051 1.709921,-2.035051 0.34043,0 0.816222,0.437397 1.20666,1.109281 0.158681,0.273068 0.32817,0.55842 0.376641,0.634123 0.311796,0.486948 0.912957,1.680616 0.912957,1.812772 0,0.08724 0.184787,0.530551 0.410638,0.985143 0.821867,1.654241 1.235878,1.883023 1.869305,1.03298 0.547741,-0.735057 1.115103,-1.836167 1.115103,-2.164141 0,-0.159712 0.0337,-0.290384 0.07489,-0.290384 0.04119,0 0.196026,-0.258072 0.344083,-0.573489 0.971341,-2.069314 1.680523,-2.811356 2.324012,-2.431691 0.292613,0.172645 0.792009,0.811603 1.143955,1.463642 0.729531,1.351584 0.86256,1.625815 1.013023,2.088247 0.206395,0.634342 0.816345,1.750597 1.1542,2.11227 0.142458,0.152502 0.342164,0.277275 0.443794,0.277275 0.428145,0 1.434356,-1.570555 1.881214,-2.936254 0.296324,-0.905635 0.527506,-1.37637 0.675941,-1.37637 0.06636,0 0.120645,-0.05958 0.120645,-0.132395 0,-0.224932 0.379658,-0.812151 0.789443,-1.221037 0.51749,-0.51635 0.824351,-0.525381 1.315905,-0.03872 0.370121,0.366445 0.960044,1.272184 1.349413,2.071832 0.125143,0.257008 0.286167,0.570517 0.35783,0.696687 0.07166,0.126167 0.130904,0.305182 0.131649,0.397813 0.0021,0.268987 0.889256,1.922701 1.204173,2.244804 0.40213,0.41131 0.620768,0.380674 1.014974,-0.142213 0.454338,-0.602655 1.06104,-1.701802 1.176949,-2.132249 0.05308,-0.197112 0.240021,-0.6123 0.415434,-0.922635 0.175412,-0.310336 0.318932,-0.613958 0.318932,-0.674717 0,-0.06076 0.03749,-0.149697 0.08331,-0.197643 0.04582,-0.04794 0.195048,-0.293623 0.331626,-0.54596 0.35834,-0.662048 0.889543,-1.146974 1.256435,-1.146974 0.402148,0 1.097437,0.748714 1.586043,1.707906 0.201866,0.396294 0.480581,0.904809 0.619364,1.130043 0.138786,0.225231 0.252336,0.483765 0.252336,0.574516 0,0.270703 0.817066,1.866238 1.162137,2.269374 0.435378,0.508644 0.678899,0.499506 1.064886,-0.03996 0.487042,-0.680713 1.167814,-1.904785 1.170942,-2.105431 0.005,-0.321256 0.233398,-0.538104 0.497061,-0.471928 0.278305,0.06985 0.291716,0.173443 0.06472,0.499881 -0.09315,0.133955 -0.308345,0.511952 -0.478206,0.839985 -0.523053,1.01013 -1.092148,1.817918 -1.426188,2.024366 -0.279362,0.172655 -0.353186,0.183011 -0.593905,0.0833 -0.151188,-0.06263 -0.428314,-0.28854 -0.615833,-0.502034 -0.339811,-0.386882 -1.505263,-2.619069 -1.615754,-3.094649 -0.08511,-0.366337 -0.936781,-1.811939 -1.27159,-2.158366 -0.15852,-0.164017 -0.347499,-0.298212 -0.41996,-0.298212 -0.245945,0 -0.758726,0.663356 -1.213845,1.570284 -0.249465,0.497117 -0.453572,0.968226 -0.453572,1.046909 0,0.138921 -0.530433,1.23623 -0.642141,1.3284 -0.03059,0.02525 -0.131771,0.211043 -0.22486,0.412913 -0.383525,0.831683 -1.0721,1.651023 -1.471844,1.751353 -0.343497,0.08621 -0.802867,-0.253981 -1.220652,-0.903971 -0.439353,-0.683546 -1.303677,-2.421686 -1.303677,-2.621669 0,-0.212118 -0.901935,-1.798844 -1.260861,-2.218169 -0.172329,-0.201329 -0.389472,-0.36605 -0.48254,-0.36605 -0.383188,0 -1.427253,1.651623 -1.653572,2.615819 -0.134806,0.574315 -0.465731,1.238017 -0.61728,1.238017 -0.06317,0 -0.114857,0.07398 -0.114857,0.164401 0,0.09042 -0.253009,0.547802 -0.562249,1.0164 -0.680876,1.031823 -0.991157,1.237719 -1.499735,0.995194 -0.175247,-0.08357 -0.447676,-0.32864 -0.605398,-0.544604 -0.358136,-0.490382 -1.553413,-2.856583 -1.553504,-3.075356 -7.1e-5,-0.171383 -0.758608,-1.496027 -1.152083,-2.011902 -0.329859,-0.432465 -0.669878,-0.419176 -1.033881,0.04042 -0.359005,0.453281 -1.025499,1.722506 -1.025499,1.95289 0,0.218656 -1.105162,2.298433 -1.459805,2.747171 -0.139595,0.176636 -0.303027,0.41363 -0.363182,0.52666 -0.110827,0.208241 -0.546331,0.482963 -0.76462,0.482335 -0.06559,-1.9e-4 -0.247729,-0.07868 -0.404753,-0.174434 z"
         id="path1066"
         inkscape:label="sine" />
      <path
         style="display:inline;fill:#000000;stroke-width:0.0917579"
         d="M 51.944292,11.660117 C 51.885412,11.399244 51.5286,9.254846 51.5286,9.161885 c 0,-0.03806 -0.226998,-0.04084 -0.50444,-0.0062 -0.492195,0.0615 -0.50687,0.05674 -0.604485,-0.195883 -0.108644,-0.281167 -0.164145,-1.354756 -0.07471,-1.44512 0.08207,-0.08292 3.675412,-0.696812 3.762746,-0.642837 0.126893,0.07842 0.264335,0.702917 0.264873,1.203498 5.55e-4,0.508758 0.0097,0.49948 -0.618854,0.625991 -0.164018,0.03301 -0.298214,0.07624 -0.298214,0.09607 0,0.01983 0.103563,0.625591 0.230139,1.34614 0.210658,1.199186 0.21757,1.319337 0.08166,1.419349 -0.190873,0.140452 -0.951723,0.30365 -1.415659,0.30365 -0.299152,0 -0.368726,-0.03526 -0.407362,-0.206456 z m 27.48578,0.02075 c -0.562588,-0.118411 -1.202486,-0.455963 -1.412083,-0.744886 -0.364926,-0.50305 -0.351421,-1.627639 0.02847,-2.372327 0.352864,-0.691667 1.237282,-0.959815 2.425959,-0.735528 1.102383,0.208004 1.580619,0.775326 1.323764,1.57035 -0.189867,0.587678 -0.487996,0.757377 -1.430717,0.81438 -0.770716,0.0466 -0.788274,0.05272 -0.623335,0.216996 0.125917,0.125419 0.242799,0.153491 0.452909,0.108781 0.881369,-0.187547 0.868305,-0.18968 1.016945,0.166065 0.159279,0.381205 0.180885,0.849239 0.04313,0.934374 -0.165452,0.102255 -1.403143,0.130599 -1.825062,0.0418 z m 0.570275,-2.509683 c 0.08822,-0.264657 0.02566,-0.426892 -0.108203,-0.280626 -0.04311,0.0471 -0.106159,0.203232 -0.140111,0.346955 -0.08129,0.344124 0.130342,0.287594 0.248314,-0.066329 z M 54.910908,8.999135 C 54.78238,7.724846 54.694562,6.63384 54.715756,6.574678 c 0.09462,-0.264129 1.612702,-0.582761 1.814595,-0.380869 0.02959,0.02959 0.0785,0.348504 0.1087,0.708704 l 0.05491,0.654909 0.227607,-0.149134 c 0.125184,-0.08202 0.467758,-0.170909 0.761276,-0.197525 0.49874,-0.04522 0.551368,-0.03069 0.804097,0.222037 0.18687,0.18687 0.300751,0.424565 0.368564,0.769275 0.123996,0.630298 0.32478,2.64998 0.26899,2.70577 -0.09058,0.09058 -1.107949,0.233393 -1.473719,0.206869 L 57.26348,11.086634 57.108721,9.756143 c -0.181219,-1.557982 -0.149774,-1.37637 -0.23831,-1.37637 -0.03955,0 -0.01329,0.599987 0.05836,1.333303 0.07165,0.733316 0.107286,1.356293 0.07919,1.384393 -0.104055,0.104055 -0.77049,0.214248 -1.308586,0.216371 l -0.554771,0.0022 z m 20.841809,2.141762 c -0.182428,-0.05175 -0.226815,-0.120329 -0.2168,-0.334946 0.0069,-0.148428 0.04393,-0.775685 0.08223,-1.393905 0.05106,-0.824225 0.04158,-1.124035 -0.03554,-1.124035 -0.05784,0 -0.109339,0.134196 -0.114441,0.298213 -0.0051,0.164018 -0.05672,0.773061 -0.114698,1.353431 l -0.10542,1.055216 -0.851482,-0.0073 c -0.500546,-0.0043 -0.894191,-0.05002 -0.955107,-0.110931 -0.07699,-0.07699 -0.06527,-0.522917 0.04559,-1.735124 0.121079,-1.323863 0.17904,-1.653312 0.307398,-1.747168 0.236856,-0.173193 1.3991,-0.151913 1.599319,0.02928 0.123805,0.112041 0.202196,0.122457 0.345283,0.04588 0.101817,-0.05449 0.433277,-0.09907 0.736583,-0.09907 0.451002,0 0.598361,0.0404 0.808915,0.221786 0.25552,0.220126 0.257424,0.229918 0.25406,1.307552 -0.0017,0.59717 -0.03612,1.364479 -0.07612,1.705131 l -0.07273,0.619366 -0.703821,-0.0091 c -0.387103,-0.005 -0.807049,-0.03843 -0.933216,-0.07422 z M 60.199731,10.823894 c -0.382432,-0.177586 -0.766629,-0.609633 -0.873508,-0.982299 -0.04947,-0.172502 -0.08995,-0.583878 -0.08995,-0.914169 0,-1.257267 0.594323,-1.809512 2.044774,-1.900002 1.235591,-0.07709 1.78668,0.219723 1.875788,1.010273 0.09005,0.798935 -0.399263,1.25008 -1.515585,1.397358 -0.402117,0.05305 -0.467099,0.08609 -0.378737,0.192562 0.148119,0.178471 0.395525,0.160668 0.827133,-0.05952 0.472784,-0.241198 0.65188,-0.177347 0.919957,0.32798 0.248023,0.467527 0.198222,0.640718 -0.249111,0.866328 -0.377171,0.190224 -2.1898,0.23375 -2.56076,0.06149 z m 1.146975,-2.449541 c 0,-0.292562 -0.128609,-0.361778 -0.221659,-0.119295 -0.07384,0.192431 0.02458,0.510956 0.136507,0.441781 0.04683,-0.02894 0.08515,-0.174063 0.08515,-0.322486 z m 8.671136,2.361203 c -0.809886,-0.316914 -1.050067,-0.730539 -1.053203,-1.813747 -0.0028,-0.928572 0.236374,-1.404795 0.868489,-1.730093 0.388627,-0.199994 0.554297,-0.22757 1.304166,-0.217081 1.559485,0.02181 2.071531,0.48192 2.065531,1.856013 -0.0045,1.036665 -0.303653,1.572762 -1.05202,1.88545 -0.403226,0.168478 -1.721406,0.180504 -2.132963,0.01946 z M 71.242004,8.97373 c 0.03815,-0.755495 -0.02233,-1.05255 -0.181838,-0.893044 -0.123528,0.123525 -0.21593,1.207164 -0.131594,1.543193 0.109866,0.437741 0.275887,0.09337 0.313432,-0.650149 z m -5.429735,1.730575 c -0.03364,-0.03364 -0.06117,-0.692145 -0.06117,-1.463333 V 7.838811 l -0.481732,-0.02773 -0.481729,-0.02773 -0.02691,-0.66382 C 64.716658,6.033206 64.610234,6.085828 66.851285,6.085828 h 1.919531 l 0.06036,0.321766 c 0.05657,0.301539 -0.0067,1.013043 -0.115125,1.295731 -0.03184,0.08297 -0.201436,0.125905 -0.497286,0.125905 h -0.448973 v 1.41078 1.410779 l -0.286743,0.05735 c -0.381399,0.07628 -1.593433,0.07351 -1.670759,-0.0038 z"
         id="path3603"
         inkscape:label="The Tone" />
      <path
         style="display:inline;fill:#000000;stroke-width:0.0917579"
         d="m 45.909185,52.375331 c -1.735534,-0.260102 -2.605471,-1.741306 -2.119193,-3.608255 0.249844,-0.959216 0.848478,-1.553805 1.879486,-1.866786 0.959956,-0.291411 3.34623,-0.150557 3.716138,0.219352 0.08491,0.0849 0.137698,0.309843 0.137698,0.586705 0,0.588922 -0.150818,0.677807 -0.935633,0.551415 -0.483514,-0.07787 -0.622339,-0.06756 -0.896399,0.06653 -0.839301,0.410662 -0.835688,1.858272 0.0057,2.290689 0.121302,0.06234 0.552943,0.113952 0.959202,0.114698 0.450432,6.94e-4 0.781616,0.04431 0.848761,0.111462 0.06056,0.06056 0.11011,0.327891 0.11011,0.594068 0,0.440234 -0.02383,0.496288 -0.263754,0.620356 -0.520081,0.268945 -2.53331,0.455965 -3.442134,0.319762 z m 6.393616,0.0048 c -0.954217,-0.129375 -1.691067,-0.529244 -2.109232,-1.144627 -0.38262,-0.563078 -0.509975,-1.312617 -0.472074,-2.778369 0.0304,-1.175613 0.05368,-1.33587 0.210808,-1.450762 0.269715,-0.197219 2.733999,-0.184592 2.933624,0.01502 0.118842,0.118842 0.144191,0.397549 0.144191,1.585349 0,1.119185 0.03012,1.484163 0.134831,1.633652 0.195205,0.278697 0.467942,0.318756 0.73578,0.108077 0.227935,-0.179293 0.2305,-0.196716 0.231838,-1.57395 0.0018,-1.824341 0.01097,-1.842961 0.927336,-1.877984 0.562381,-0.0215 0.71903,0.0031 0.823427,0.128705 0.100539,0.121069 0.128924,0.53095 0.128924,1.861705 0,1.512317 -0.02053,1.747865 -0.180474,2.070442 -0.549348,1.107959 -1.872807,1.644563 -3.508979,1.422727 z m 5.570492,-0.0081 c -0.688131,-0.09998 -1.515506,-0.469046 -1.661008,-0.740921 -0.05872,-0.109715 -0.07516,-0.353235 -0.03977,-0.589185 0.08733,-0.582381 0.27539,-0.652969 1.056974,-0.396738 0.677648,0.222161 0.919082,0.196553 0.919082,-0.09748 0,-0.135145 -0.192229,-0.310443 -0.673932,-0.614575 -0.749392,-0.473138 -1.023054,-0.809227 -1.112173,-1.365886 -0.195368,-1.220302 1.086,-1.972134 3.128537,-1.835643 0.929988,0.06215 1.612692,0.234691 1.877774,0.474588 0.330931,0.299488 0.138808,1.23088 -0.253898,1.23088 -0.07868,0 -0.340822,-0.07024 -0.582531,-0.156085 -0.367102,-0.130384 -0.46357,-0.136089 -0.585803,-0.03465 -0.317178,0.263237 -0.17442,0.450055 0.666707,0.872495 0.447171,0.224585 0.918147,0.533249 1.046614,0.685922 0.572313,0.680158 0.326378,1.674245 -0.52916,2.1389 -0.74965,0.407146 -2.142669,0.590337 -3.257409,0.42837 z m 19.452698,0.04437 c -1.441995,-0.144363 -2.47783,-0.677959 -2.978758,-1.534466 -0.909679,-1.555403 -0.09827,-3.296664 1.831783,-3.930927 0.524687,-0.172429 0.835529,-0.210276 1.697523,-0.206697 1.339304,0.0056 2.07185,0.226316 2.737734,0.825 0.632653,0.568814 0.875532,1.164055 0.820574,2.011052 -0.04531,0.698327 -0.198228,1.076577 -0.671665,1.661393 -0.636128,0.785773 -2.150854,1.303423 -3.437191,1.174645 z m 1.674581,-2.417694 c 0.706259,-0.783436 -0.238936,-1.745627 -1.217628,-1.239526 -0.311869,0.161274 -0.456953,0.394044 -0.456953,0.733115 0,0.815519 1.096889,1.147228 1.674581,0.506411 z M 62.45641,52.122012 62.231798,51.940159 v -2.401204 c 0,-2.271015 0.0097,-2.408268 0.178114,-2.531484 0.132804,-0.09714 0.489832,-0.130276 1.40348,-0.130276 1.178663,0 1.23395,0.0086 1.45059,0.225224 0.211674,0.211674 0.225227,0.285612 0.225227,1.228916 0,1.10076 0.0075,1.115083 0.585579,1.115083 0.46511,0 0.515517,-0.116862 0.515517,-1.195211 0,-0.900506 0.01623,-0.990234 0.212368,-1.174504 0.195638,-0.183791 0.30589,-0.199397 1.399311,-0.198103 0.652816,6.93e-4 1.246916,0.03934 1.320223,0.08572 0.181738,0.114968 0.283084,1.841424 0.212551,3.62091 -0.07068,1.783206 0.0017,1.705686 -1.5906,1.705686 -0.659388,0 -1.278755,-0.04274 -1.37637,-0.09499 -0.141793,-0.07588 -0.177483,-0.194504 -0.177483,-0.589872 0,-0.555604 -0.150345,-0.783269 -0.517258,-0.783269 -0.453277,0 -0.58372,0.148989 -0.585246,0.668474 -0.0021,0.755429 0.0087,0.749668 -1.49092,0.783187 -1.200301,0.02684 -1.335582,0.01346 -1.540471,-0.152437 z m 8.024891,-0.02421 c -0.157417,-0.173897 -0.178027,-0.380001 -0.207294,-2.072696 -0.03569,-2.06472 0.02039,-2.801573 0.229177,-3.010348 0.194206,-0.194206 2.664233,-0.200507 2.928492,-0.0075 0.166361,0.121523 0.180032,0.276925 0.20719,2.35502 0.01599,1.223701 0.0056,2.318416 -0.02306,2.432698 -0.114473,0.456093 -0.246895,0.495892 -1.649972,0.495892 -1.21483,0 -1.32238,-0.01398 -1.484513,-0.193096 z m 11.483671,-0.01082 c -0.120056,-0.171404 -0.14284,-0.570666 -0.14284,-2.502928 0,-2.810101 -0.03786,-2.706727 0.991603,-2.707164 0.705107,-2.98e-4 0.707681,6.94e-4 2.234257,0.779944 0.840589,0.429133 1.552858,0.780242 1.582828,0.780242 0.02996,0 0.05449,-0.301423 0.05449,-0.669831 0,-0.398638 0.04458,-0.714415 0.110109,-0.779943 0.154237,-0.154237 1.397223,-0.146358 1.526723,0.0097 0.13648,0.164453 0.239355,2.820692 0.156262,4.034706 -0.08868,1.295645 -0.07595,1.283701 -1.325658,1.243205 l -0.972106,-0.03149 -1.128466,-0.664421 c -0.620657,-0.365432 -1.167765,-0.664423 -1.215793,-0.664423 -0.04803,0 -0.08733,0.269416 -0.08733,0.598698 0,0.558236 -0.01592,0.604746 -0.235367,0.688186 -0.129451,0.04922 -0.498732,0.08949 -0.82062,0.08949 -0.500761,0 -0.60587,-0.02944 -0.72809,-0.20393 z"
         id="path3485"
         inkscape:label="cushion" />
      <path
         style="display:inline;fill:#000000;stroke-width:0.0917579"
         d="m 64.05662,45.181137 c -2.719991,-0.105674 -6.388018,-0.474525 -10.455961,-1.05143 -1.512277,-0.214466 -2.049636,-0.260272 -2.156314,-0.183802 -0.417506,0.299276 -1.225777,0.650191 -1.72285,0.747986 -1.903006,0.374393 -3.880868,-1.052034 -4.252153,-3.066641 -0.137357,-0.745308 0.01714,-1.584839 0.430713,-2.340503 0.318327,-0.581632 0.320536,-0.593437 0.223228,-1.192853 -0.11402,-0.702357 -0.412949,-3.75111 -0.563182,-5.743858 -0.269543,-3.575301 -0.04495,-8.96694 0.565984,-13.586906 l 0.09796,-0.74079 -0.322749,-0.589702 c -0.41486,-0.757998 -0.569473,-1.596565 -0.431953,-2.342758 0.371285,-2.014603 2.349147,-3.441034 4.252153,-3.066641 0.496405,0.09766 1.306401,0.449156 1.720997,0.746818 0.104445,0.07499 0.748401,0.01715 2.523345,-0.22662 5.397933,-0.741362 8.675429,-1.013254 12.155395,-1.008371 3.542532,0.005 7.144905,0.325153 12.224311,1.086506 l 2.085049,0.312527 0.457803,-0.308077 c 1.361981,-0.916546 2.998352,-0.852582 4.389583,0.171583 0.912428,0.671694 1.397046,1.656518 1.397046,2.839033 0,0.832983 -0.18281,1.463393 -0.607188,2.093892 -0.278887,0.414338 -0.321936,0.544677 -0.282647,0.85581 0.02549,0.201867 0.152551,1.110273 0.282352,2.018675 0.501067,3.506618 0.749654,6.939866 0.657748,9.084038 -0.105067,2.451161 -0.265175,3.898816 -0.938751,8.4879 -0.03843,0.261839 0.01377,0.412001 0.281555,0.809932 0.424145,0.630277 0.606931,1.260794 0.606931,2.093608 0,1.182515 -0.484618,2.167342 -1.397046,2.839031 -1.406233,1.035211 -3.017024,1.095249 -4.400805,0.16403 l -0.469026,-0.315631 -0.743338,0.138454 c -1.023822,0.190696 -3.536824,0.566487 -4.918324,0.73548 -4.140973,0.506553 -7.356666,0.66878 -10.689865,0.53928 z m 5.45966,-1.867847 c 2.79602,-0.19286 7.386616,-0.765385 10.000323,-1.247214 0.680588,-0.125466 1.333363,-0.204041 1.45061,-0.174615 0.117247,0.02944 0.390291,0.216765 0.606764,0.416301 0.874156,0.805767 1.87667,0.846492 2.654925,0.107849 0.837547,-0.794919 0.815511,-1.950685 -0.05413,-2.838959 -0.479076,-0.48934 -0.479246,-0.500397 -0.04692,-3.051627 0.78619,-4.639387 0.934822,-8.112945 0.526123,-12.29557 -0.160025,-1.637692 -0.547829,-4.497874 -0.735983,-5.428132 -0.09857,-0.487364 -0.179227,-0.95366 -0.179227,-1.03621 0,-0.08255 0.185057,-0.347935 0.411237,-0.58974 0.226181,-0.241804 0.473926,-0.589681 0.550548,-0.773063 0.397772,-0.952002 -0.08801,-2.079084 -1.073535,-2.490762 -0.697956,-0.291553 -1.374695,-0.127457 -2.05304,0.49782 -0.501846,0.462589 -0.710565,0.510104 -1.477171,0.336287 -1.372042,-0.311095 -6.136527,-0.928191 -9.800583,-1.269371 -1.911873,-0.178027 -6.921866,-0.15226 -9.0841,0.04672 -2.472364,0.227519 -4.611317,0.481593 -7.203002,0.855608 -1.236439,0.178437 -2.418167,0.346143 -2.626063,0.372684 -0.333539,0.04258 -0.41987,0.01145 -0.734064,-0.264738 -0.628996,-0.552903 -0.867899,-0.665194 -1.411288,-0.663349 -0.911266,0.0031 -1.612454,0.538167 -1.87828,1.433298 -0.180791,0.60879 -0.06964,1.050504 0.427268,1.697917 0.424222,0.552712 0.420997,0.443463 0.08456,2.864445 -0.574195,4.131926 -0.734492,8.413504 -0.465716,12.439413 0.125903,1.885853 0.440224,5.030118 0.564123,5.643115 0.236504,1.170116 0.220289,1.335849 -0.182054,1.860845 -0.435689,0.568509 -0.566775,0.987369 -0.482595,1.542048 0.08462,0.557556 0.344049,0.964438 0.813427,1.275728 0.857705,0.568831 1.598774,0.469136 2.518837,-0.338857 0.189396,-0.166326 0.418509,-0.302411 0.50914,-0.302411 0.09063,0 0.967949,0.122587 1.949594,0.27242 3.541213,0.540501 7.776209,1.002566 10.36418,1.130796 1.442254,0.07146 4.837431,0.05538 6.056086,-0.02868 z m -3.60915,-9.785691 c -0.03364,-0.03364 -0.06117,-1.027602 -0.06117,-2.208795 v -2.147619 l 0.252336,-0.429251 0.252333,-0.429251 0.02445,2.522044 c 0.01346,1.387125 0.0044,2.574245 -0.02004,2.638042 -0.04695,0.122342 -0.344014,0.158707 -0.447892,0.05483 z m -18.304215,-5.546874 0.02903,-0.293405 0.775355,3.47e-4 0.775355,3.46e-4 2.2e-4,0.266324 2.2e-4,0.266326 -0.804598,0.0266 -0.804598,0.0266 0.02903,-0.293404 z m 2.213426,0.01082 0.103904,-0.275274 h 1.616799 1.616798 l 0.106486,0.233713 c 0.05857,0.128542 0.106487,0.252416 0.106487,0.275274 0,0.02285 -0.822235,0.04156 -1.827189,0.04156 h -1.827189 z m 8.230133,0.177486 c 0,-0.05378 0.04274,-0.17766 0.09499,-0.275274 0.08833,-0.165053 0.207016,-0.177486 1.694293,-0.177486 1.487281,0 1.605964,0.01241 1.694294,0.177486 0.194466,0.363358 0.150387,0.373062 -1.694294,0.373062 -1.205264,0 -1.789279,-0.03191 -1.789279,-0.09779 z m 8.258275,0 c 0,-0.05378 0.04274,-0.17766 0.09498,-0.275274 0.08823,-0.164856 0.20668,-0.177486 1.664469,-0.177486 1.387135,0 1.583643,0.01866 1.691377,0.160576 0.282945,0.372736 0.20951,0.389972 -1.661549,0.389972 -1.205264,0 -1.789282,-0.03191 -1.789282,-0.09779 z m 8.258219,0.05788 c 0,-0.02195 0.04027,-0.145823 0.08949,-0.275274 l 0.08949,-0.235371 h 1.604809 c 1.492715,0 1.611442,0.01241 1.699794,0.177486 0.194462,0.363358 0.150383,0.373062 -1.694298,0.373062 -0.984102,0 -1.789279,-0.01796 -1.789279,-0.0399 z M 54.100879,28.09081 c 0,-0.04634 -0.02506,-0.149569 -0.0557,-0.229396 -0.04957,-0.129166 0.133336,-0.145143 1.661461,-0.145143 1.528123,0 1.711026,0.01599 1.661461,0.145143 -0.03062,0.07983 -0.0557,0.183056 -0.0557,0.229396 0,0.04796 -0.691779,0.08425 -1.605765,0.08425 -0.913986,0 -1.605765,-0.0363 -1.605765,-0.08425 z m 8.120844,-0.09844 c -0.03191,-0.100483 -0.03225,-0.224357 -6.94e-4,-0.275274 0.08072,-0.13062 3.533248,-0.125525 3.533248,0.0052 0,0.05379 -0.04274,0.177656 -0.09499,0.275274 -0.08852,0.165324 -0.207537,0.177483 -1.737311,0.177483 -1.559186,0 -1.645165,-0.0092 -1.700217,-0.182696 z m 8.269968,-0.02376 c -0.03041,-0.113553 -0.05589,-0.237424 -0.05658,-0.275274 -6.94e-4,-0.03785 0.803925,-0.06882 1.78803,-0.06882 1.844677,0 1.888756,0.0097 1.694294,0.373065 -0.08847,0.165292 -0.20745,0.177483 -1.732702,0.177483 -1.620803,0 -1.638285,-0.0021 -1.693042,-0.206455 z m 8.295373,0.02896 c -0.194747,-0.363892 -0.151952,-0.373065 1.740175,-0.373065 1.009336,0 1.835158,0.01869 1.835158,0.04156 0,0.02285 -0.04792,0.146732 -0.106486,0.275274 l -0.106485,0.233714 h -1.633687 c -1.52127,0 -1.640224,-0.01221 -1.728675,-0.177483 z m 4.125881,-0.05191 c 0,-0.224298 0.01529,-0.229396 0.688187,-0.229396 0.672889,0 0.688183,0.0051 0.688183,0.229396 0,0.224298 -0.01529,0.229396 -0.688183,0.229396 -0.672893,0 -0.688187,-0.0051 -0.688187,-0.229396 z M 65.845958,24.825885 v -2.33983 h 0.275274 0.275274 v 1.884091 c 0,1.831169 -0.0065,1.896888 -0.230939,2.339827 -0.127016,0.250658 -0.250891,0.45574 -0.275274,0.45574 -0.02438,0 -0.04434,-1.052922 -0.04434,-2.339828 z"
         id="path27"
         inkscape:label="pillow" />
    </g>
    <path
       style="display:inline;fill:#ffffff;fill-opacity:1;stroke:none;stroke-width:0.127274;stroke-dasharray:none;stroke-opacity:1"
       d="m 55.727144,72.034579 c -0.157881,-0.03161 -0.182623,-0.06452 -0.234411,-0.309751 -0.09889,-0.468296 -0.08056,-1.034208 0.05511,-1.702204 0.04327,-0.212977 0.09304,-0.298662 0.229079,-0.394009 0.140459,-0.09858 0.260529,-0.129272 0.521846,-0.133325 0.2302,-0.0038 0.232669,-0.0027 0.352306,0.05738 0.07039,0.03575 0.143208,0.08937 0.175127,0.129532 0.063,0.07876 0.06275,0.07382 0.03729,0.732412 -0.01565,0.405449 -0.0051,0.482972 0.06899,0.516238 0.172762,0.07733 0.624353,0.06476 1.107344,-0.03162 0.428707,-0.08497 0.777436,-0.149699 0.956624,-0.177548 0.08337,-0.01331 0.161269,-0.02966 0.173118,-0.0373 0.04875,-0.03148 0.229143,-0.896765 0.292869,-1.405137 0.09443,-0.752789 0.07878,-1.384206 -0.04366,-1.76832 -0.04378,-0.137472 -0.09202,-0.236514 -0.13053,-0.268426 -0.04124,-0.03433 -0.185222,-0.01146 -0.788077,0.119433 -0.746676,0.163286 -1.203548,0.249166 -1.40697,0.264425 -0.232503,0.01775 -0.8615,-0.0038 -1.056431,-0.0355 -0.255413,-0.04171 -0.464943,-0.138663 -0.549376,-0.254611 -0.03247,-0.04444 -0.03398,-0.124742 -0.04417,-2.349061 -0.0051,-1.266666 -0.01146,-2.567246 -0.01146,-2.890222 l -0.0013,-0.58722 0.05918,-0.08886 c 0.152995,-0.22983 0.473953,-0.374841 0.841608,-0.380255 0.298469,-0.0039 0.484009,0.06554 0.594939,0.2244 0.04315,0.06179 0.04366,0.06723 0.05753,0.620316 0.0076,0.306875 0.01566,1.040026 0.01769,1.629252 l 0.0038,1.071308 -0.05129,0.486988 c -0.05816,0.55125 -0.07268,1.146384 -0.03247,1.323961 0.04645,0.204764 0.07751,0.283337 0.115692,0.292884 0.05231,0.01331 0.353578,-0.02306 0.75552,-0.09067 0.380981,-0.06399 1.454431,-0.253921 1.517252,-0.268415 l 0.03984,-0.0078 v -2.612869 c 0,-1.992549 0.0051,-2.630625 0.02138,-2.687411 0.0336,-0.116976 0.194054,-0.271383 0.371765,-0.358053 0.201486,-0.09821 0.359039,-0.137558 0.57114,-0.14228 0.153338,-0.0038 0.20216,0.0038 0.36614,0.05351 l 0.189192,0.05752 0.0076,3.071721 c 0.0064,2.607867 0.01146,3.138273 0.03666,3.512415 0.04021,0.607193 0.05625,1.69622 0.03029,2.061226 -0.05396,0.758916 -0.209518,1.44637 -0.381719,1.68713 -0.104619,0.146255 -0.261318,0.272819 -0.490321,0.39594 -0.229615,0.123429 -0.388655,0.176567 -0.792888,0.26476 -0.60255,0.131437 -1.179276,0.216452 -1.663234,0.245168 -0.141108,0.0078 -0.475519,0.04702 -0.743149,0.08601 -0.506522,0.07371 -0.999707,0.107253 -1.144863,0.0781 z m 6.977726,-0.903108 c -0.112382,-0.01905 -0.21019,-0.0851 -0.252076,-0.170311 -0.05396,-0.109722 -0.04671,-0.771529 0.01515,-1.374812 0.0924,-0.901258 0.119127,-1.515343 0.119001,-2.729809 -6.4e-5,-0.896088 -0.0076,-1.153947 -0.07077,-2.339669 -0.05855,-1.104882 -0.06987,-1.421459 -0.08171,-2.285476 -0.01146,-0.847514 1.4e-4,-1.14216 0.05652,-1.423375 0.05384,-0.268026 0.113019,-0.373051 0.259624,-0.460356 0.259804,-0.154713 0.638544,-0.22913 1.561645,-0.306822 0.223836,-0.01878 0.629914,-0.06191 0.902394,-0.09547 1.205878,-0.149143 1.726897,-0.196472 2.264829,-0.206099 l 0.442339,-0.0078 0.084,0.04884 c 0.115181,0.0671 0.137225,0.118009 0.137225,0.316939 0,0.29515 -0.0826,1.250099 -0.115818,1.338608 -0.0513,0.136759 -0.611702,0.25168 -1.184725,0.242989 -0.190069,-0.0027 -0.335683,-0.01388 -0.395526,-0.03044 -0.05206,-0.01432 -0.09673,-0.02861 -0.09914,-0.03148 -0.0025,-0.0027 0.02188,-0.297665 0.05395,-0.654706 0.0322,-0.357042 0.04097,-0.26712 0.04544,-0.439385 0.0025,-0.09183 -0.09253,-0.03615 -0.264983,-0.0456 -0.144532,0.0039 -0.545622,0.04118 -0.788879,0.07463 -0.457573,0.0649 -1.218236,0.212888 -1.244034,0.262667 -0.06427,0.124092 -0.01616,1.325033 0.03525,2.297404 0.08196,1.549757 0.109837,2.953211 0.08349,4.19743 -0.02074,0.978887 -0.02914,1.137862 -0.105636,2.006035 -0.07076,0.801909 -0.09775,1.051139 -0.07382,1.096411 0.03957,0.0746 0.231727,0.02564 0.933118,-0.07241 0.238422,-0.03316 0.505874,-0.07125 0.612923,-0.07913 0.469881,-0.0346 0.733299,-0.06983 0.886765,-0.225308 0.162859,-0.16527 0.153492,-0.103372 0.233165,-1.399697 0.03106,-0.506029 0.06835,-2.23875 0.0518,-2.41366 -0.02687,-0.284451 -0.09877,-0.493399 -0.176478,-0.511987 -0.02418,-0.0052 -0.125619,7.64e-4 -0.225389,0.01331 -0.374221,0.05064 -0.726578,0.02875 -0.893916,-0.05543 -0.186851,-0.09404 -0.228711,-0.276614 -0.119001,-0.519228 0.05409,-0.119433 0.183578,-0.290449 0.260452,-0.343597 0.08578,-0.05932 0.489951,-0.117358 1.46787,-0.210735 0.41085,-0.03937 0.509526,-0.01331 0.85977,0.219168 l 0.210713,0.140321 0.01146,0.618062 c 0.0064,0.339944 0.02723,0.864951 0.04697,1.166695 0.08299,1.271291 0.08286,1.873421 -1.9e-4,2.453607 -0.04073,0.284606 -0.133816,0.674343 -0.202098,0.846413 -0.10831,0.273066 -0.376946,0.432003 -0.931297,0.551042 -0.806138,0.173107 -2.135229,0.362198 -3.430961,0.488129 -0.555447,0.05401 -0.871402,0.07098 -0.979292,0.05259 z m 7.340278,-0.890456 c -0.156547,-0.02047 -0.140968,0.05543 -0.164972,-0.804562 -0.02444,-0.877011 -0.04645,-1.306096 -0.144468,-2.819599 -0.139581,-2.155437 -0.162084,-2.675795 -0.16258,-3.760675 -6.1e-4,-1.261835 0.06021,-2.131694 0.21662,-3.100502 0.05511,-0.34107 0.0443,-0.314273 0.146606,-0.363259 0.194283,-0.09313 0.756576,-0.182356 1.188123,-0.188833 0.175204,-0.0027 0.280014,0.0027 0.308383,0.01761 0.115183,0.05777 0.493184,0.790207 0.980069,2.111551 0.150182,0.407562 0.336879,0.845338 0.385625,0.968341 0.231995,0.585485 0.726514,1.832996 1.387688,3.28041 0.707361,1.548503 0.948759,1.965506 0.960646,1.933757 0.021,-0.05624 -0.01539,-2.538981 -0.04085,-3.549603 -0.02049,-0.811801 -0.02252,-1.429201 -0.01018,-3.060878 0.0076,-1.124141 0.02075,-2.058014 0.02762,-2.075258 0.01616,-0.04054 0.101056,-0.09417 0.211618,-0.133451 0.144583,-0.05155 0.403266,-0.08679 0.905158,-0.123303 0.565549,-0.04105 0.542664,-0.04029 0.528857,-0.01657 -0.01461,0.02435 -0.0549,0.527301 -0.08146,1.018523 -0.02992,0.551468 -0.02624,2.20821 0.0079,3.565084 0.03503,1.391794 0.03856,1.487194 0.09202,2.43836 0.101059,1.799742 0.09889,2.630639 -0.0089,3.421286 -0.03604,0.263922 -0.05513,0.324347 -0.118108,0.374297 -0.150565,0.119294 -0.560272,0.202679 -1.03551,0.210812 -0.425857,0.0065 -0.402973,0.02164 -0.502603,-0.313064 -0.203931,-0.684901 -0.623538,-1.26646 -1.283845,-2.534255 -0.549287,-1.054661 -0.420142,-0.874767 -1.59046,-3.548774 -0.484249,-1.106411 -0.825113,-2.045567 -0.833563,-2.05484 -0.02024,-0.02228 0.01616,1.13927 0.03755,2.63872 0.01604,1.118248 0.06134,4.436457 0.07738,5.666568 l 0.0076,0.544902 -0.04454,0.03638 c -0.02457,0.01994 -0.08527,0.04948 -0.13501,0.06527 -0.268663,0.08601 -1.095532,0.184542 -1.311349,0.1562 z"
       id="path3141-3-2-6"
       sodipodi:nodetypes="cssccccssccssscccccsccscssccssccccssccccccsssscccccssscsssccccssscccssccsssssccsssccscscccsssssscccsssscscssssccscccsssssccsssssccccc"
       inkscape:label="logo" />
  </g>
</svg>
