<?xml version="1.0" encoding="UTF-8" standalone="no"?>
<!-- Created with Inkscape (http://www.inkscape.org/) -->

<svg
   width="630mm"
   height="720mm"
   viewBox="0 0 630 720"
   version="1.1"
   id="svg1"
   xml:space="preserve"
   inkscape:version="1.4.4 (dcaf3e7, 2026-05-05)"
   sodipodi:docname="internals.svg"
   inkscape:export-filename="internals.png"
   inkscape:export-xdpi="64.507935"
   inkscape:export-ydpi="64.507935"
   xmlns:inkscape="http://www.inkscape.org/namespaces/inkscape"
   xmlns:sodipodi="http://sodipodi.sourceforge.net/DTD/sodipodi-0.dtd"
   xmlns="http://www.w3.org/2000/svg"
   xmlns:svg="http://www.w3.org/2000/svg"><sodipodi:namedview
     id="namedview1"
     pagecolor="#505050"
     bordercolor="#eeeeee"
     borderopacity="1"
     inkscape:showpageshadow="0"
     inkscape:pageopacity="0"
     inkscape:pagecheckerboard="0"
     inkscape:deskcolor="#505050"
     inkscape:document-units="mm"
     inkscape:zoom="3.1251122"
     inkscape:cx="1175.4778"
     inkscape:cy="1500.9061"
     inkscape:window-width="1920"
     inkscape:window-height="1057"
     inkscape:window-x="-8"
     inkscape:window-y="1072"
     inkscape:window-maximized="1"
     inkscape:current-layer="g1" /><defs
     id="defs1" /><g
     inkscape:label="Layer 1"
     inkscape:groupmode="layer"
     id="layer1"><g
       id="g1"
       inkscape:label="1"
       transform="matrix(-2.6416403,0,0,2.6416403,639.48495,-159.17594)"><path
         id="path37"
         d="m 79.228349,103.03937 -3.401575,3.40158 v 8.22047 l 3.401575,3.40157 h 11.622048 v -15.02362 z"
         style="fill:none;stroke:#e0e0e0;stroke-width:0.56782903;stroke-linecap:round;stroke-linejoin:miter;stroke-miterlimit:10;stroke-dasharray:none;stroke-opacity:1;opacity:0.7"
         transform="matrix(-1.3333333,0,0,-1.3333333,241.88976,332.59843)" /><path
         id="path52"
         d="m 84.897638,30.614173 h 8.787401 V 26.07874 h -8.787401 z"
         style="fill:none;stroke:#e0e0e0;stroke-width:0.56782903;stroke-linecap:round;stroke-linejoin:miter;stroke-miterlimit:10;stroke-dasharray:none;stroke-opacity:1;opacity:0.7"
         transform="matrix(-1.3333333,0,0,-1.3333333,241.88976,332.59843)" /><path
         id="path79"
         d="m 77.244094,171.49606 h -6.519685 v 17.57481 h 6.519685 z"
         style="fill:none;stroke:#e0e0e0;stroke-width:0.56782903;stroke-linecap:round;stroke-linejoin:miter;stroke-miterlimit:10;stroke-dasharray:none;stroke-opacity:1;opacity:0.7"
         transform="matrix(-1.3333333,0,0,-1.3333333,241.88976,332.59843)" /><path
         id="path80"
         d="m 77.244094,173.65039 h -6.519685 v 0.28347 h 6.519685 z"
         style="fill:none;stroke:#e0e0e0;stroke-width:0.56782903;stroke-linecap:round;stroke-linejoin:miter;stroke-miterlimit:10;stroke-dasharray:none;stroke-opacity:1;opacity:0.7"
         transform="matrix(-1.3333333,0,0,-1.3333333,241.88976,332.59843)" /><path
         id="path120"
         d="m 45.382677,166.84724 h -4.535433 v 2.40945 h 4.535433 z"
         style="fill:none;stroke:#e0e0e0;stroke-width:0.56782903;stroke-linecap:round;stroke-linejoin:miter;stroke-miterlimit:10;stroke-dasharray:none;stroke-opacity:1;opacity:0.7"
         transform="matrix(-1.3333333,0,0,-1.3333333,241.88976,332.59843)" /><path
         id="path134"
         d="m 45.113386,134.85827 v 4.53543 h 2.409449 v -4.53543 z"
         style="fill:none;stroke:#e0e0e0;stroke-width:0.56782903;stroke-linecap:round;stroke-linejoin:miter;stroke-miterlimit:10;stroke-dasharray:none;stroke-opacity:1;opacity:0.7"
         transform="matrix(-1.3333333,0,0,-1.3333333,241.88976,332.59843)" /><path
         id="path149"
         d="m 13.634646,150.33543 h 4.535433 v -2.40945 h -4.535433 z"
         style="fill:none;stroke:#e0e0e0;stroke-width:0.56782903;stroke-linecap:round;stroke-linejoin:miter;stroke-miterlimit:10;stroke-dasharray:none;stroke-opacity:1;opacity:0.7"
         transform="matrix(-1.3333333,0,0,-1.3333333,241.88976,332.59843)" /><path
         id="path177"
         d="m 147.55748,145.98425 v 4.53543 h 2.40945 v -4.53543 z"
         style="fill:none;stroke:#e0e0e0;stroke-width:0.56782903;stroke-linecap:round;stroke-linejoin:miter;stroke-miterlimit:10;stroke-dasharray:none;stroke-opacity:1;opacity:0.7"
         transform="matrix(-1.3333333,0,0,-1.3333333,241.88976,332.59843)" /><path
         id="path197"
         d="m 40.847244,146.63622 h 4.535433 v -2.40945 h -4.535433 z"
         style="fill:none;stroke:#e0e0e0;stroke-width:0.56782903;stroke-linecap:round;stroke-linejoin:miter;stroke-miterlimit:10;stroke-dasharray:none;stroke-opacity:1;opacity:0.7"
         transform="matrix(-1.3333333,0,0,-1.3333333,241.88976,332.59843)" /><path
         id="path228"
         d="m 69.023622,46.006299 3.968504,-3.968504 V 31.266142 L 69.023622,27.297638 H 54.283465 v 18.708661 z"
         style="fill:none;stroke:#e0e0e0;stroke-width:0.56782903;stroke-linecap:round;stroke-linejoin:miter;stroke-miterlimit:10;stroke-dasharray:none;stroke-opacity:1;opacity:0.7"
         transform="matrix(-1.3333333,0,0,-1.3333333,241.88976,332.59843)" /><path
         id="path318"
         style="fill:none;stroke:#e0e0e0;stroke-width:0.56782903;stroke-linecap:round;stroke-linejoin:miter;stroke-miterlimit:10;stroke-dasharray:none;stroke-opacity:1;opacity:0.7"
         transform="matrix(-1.3333333,0,0,-1.3333333,241.88976,332.59843)"
         d="m 86.835424,88.25525 0.329925,-0.239496 m -0.639709,0.50453 0.309784,-0.265034 m -0.597455,0.553918 0.287671,-0.288884 m -0.551395,0.59978 0.263724,-0.310896 m -0.501829,0.641826 0.238105,-0.33093 m -0.449071,0.679787 0.210966,-0.348857 m -0.393451,0.713421 0.182485,-0.364564 m -0.33533,0.742516 0.152845,-0.377952 m -0.275075,0.766882 0.12223,-0.38893 m -0.213066,0.78637 0.09084,-0.39744 m -0.149704,0.800853 0.05886,-0.403413 m -0.08538,0.810236 0.02652,-0.406823 m -0.02052,0.814464 -0.006,-0.407641 m 0.04447,0.813506 -0.03847,-0.405865 m 0.109172,0.807376 -0.0707,-0.401511 m 0.173184,0.796105 -0.102484,-0.394594 m 0.236095,0.779765 -0.133611,-0.385171 m 0.297502,0.758466 -0.163891,-0.373295 m 0.357018,0.732334 -0.193127,-0.359039 m 0.41426,0.701543 -0.221133,-0.342504 m 0.468864,0.666289 -0.247731,-0.323785 m 0.520484,0.626794 -0.272753,-0.303009 m 0.568792,0.583311 -0.296039,-0.280302 m 0.613482,0.536111 -0.317443,-0.255809 m 0.654267,0.485498 -0.336824,-0.229689 m 0.690886,0.431799 -0.354062,-0.20211 m 0.723107,0.375355 -0.369045,-0.173245 m 0.750727,0.316517 -0.381682,-0.143272 m 0.773572,0.255662 -0.39189,-0.11239 m 0.79149,0.193186 -0.3996,-0.0808 m 0.80437,0.129483 -0.40477,-0.04868 m 0.812129,0.06494 -0.407359,-0.01626 m 0.814723,-2e-6 -0.407364,0.01626 m 0.812131,-0.06495 -0.404767,0.04869 m 0.804367,-0.129483 -0.3996,0.08079 m 0.79149,-0.193183 -0.39189,0.112393 m 0.773572,-0.255668 -0.381682,0.143275 m 0.750728,-0.316517 -0.369046,0.173242 m 0.723107,-0.375352 -0.354061,0.20211 m 0.690882,-0.431801 -0.336821,0.229691 m 0.654265,-0.485504 -0.317444,0.255813 m 0.613483,-0.536114 -0.296039,0.280301 m 0.568791,-0.583308 -0.272752,0.303007 m 0.520483,-0.626794 -0.247731,0.323787 m 0.468865,-0.666289 -0.221134,0.342502 m 0.414258,-0.701544 -0.193124,0.359042 m 0.357015,-0.732336 -0.163891,0.373294 m 0.297502,-0.758466 -0.133611,0.385172 m 0.236092,-0.779766 -0.102481,0.394594 m 0.173183,-0.796104 -0.0707,0.40151 m 0.109169,-0.807378 -0.03847,0.405868 m 0.04447,-0.813507 -0.006,0.407639 m -0.02052,-0.814462 0.02652,0.406823 m -0.08539,-0.810235 0.05887,0.403412 m -0.149706,-0.800852 0.09084,0.39744 m -0.21307,-0.786371 0.12223,0.388931 m -0.275074,-0.766882 0.152844,0.377951 m -0.33533,-0.742515 0.182486,0.364564 m -0.393455,-0.713421 0.210969,0.348857 m -0.449073,-0.679785 0.238104,0.330928 m -0.501831,-0.641826 0.263727,0.310898 m -0.551396,-0.59978 0.287669,0.288882 m -0.597453,-0.553916 0.309784,0.265034 m -0.639708,-0.504527 0.329924,0.239493 m -5.999216,-0.239496 h 5.669292" /><path
         id="path319"
         d="m 88.866142,93.656693 h 2.267716 L 90,91.672441 Z"
         style="fill:none;stroke:#e0e0e0;stroke-width:0.56782903;stroke-linecap:round;stroke-linejoin:miter;stroke-miterlimit:10;stroke-dasharray:none;stroke-opacity:1;opacity:0.7"
         transform="matrix(-1.3333333,0,0,-1.3333333,241.88976,332.59843)" /><path
         id="path342"
         d="M 35.376378,18.113386 H 18.368504 V 1.105512 h 17.007874 z"
         style="fill:none;stroke:#e0e0e0;stroke-width:0.56782903;stroke-linecap:round;stroke-linejoin:miter;stroke-miterlimit:10;stroke-dasharray:none;stroke-opacity:1;opacity:0.7"
         transform="matrix(-1.3333333,0,0,-1.3333333,241.88976,332.59843)" /><path
         id="path367"
         d="m 142.46929,136.23307 v -3.68504 h -8.22047 v 3.68504 z"
         style="fill:none;stroke:#e0e0e0;stroke-width:0.56782903;stroke-linecap:round;stroke-linejoin:miter;stroke-miterlimit:10;stroke-dasharray:none;stroke-opacity:1;opacity:0.7"
         transform="matrix(-1.3333333,0,0,-1.3333333,241.88976,332.59843)" /><path
         id="path407"
         d="m 39.64252,134.85827 v 4.53543 h 2.409449 v -4.53543 z"
         style="fill:none;stroke:#e0e0e0;stroke-width:0.56782903;stroke-linecap:round;stroke-linejoin:miter;stroke-miterlimit:10;stroke-dasharray:none;stroke-opacity:1;opacity:0.7"
         transform="matrix(-1.3333333,0,0,-1.3333333,241.88976,332.59843)" /><path
         id="path472"
         d="m 29.140157,148.26614 h -4.535433 v 2.40945 h 4.535433 z"
         style="fill:none;stroke:#e0e0e0;stroke-width:0.56782903;stroke-linecap:round;stroke-linejoin:miter;stroke-miterlimit:10;stroke-dasharray:none;stroke-opacity:1;opacity:0.7"
         transform="matrix(-1.3333333,0,0,-1.3333333,241.88976,332.59843)" /><path
         id="path493"
         d="m 109.84252,27.297638 -4.25197,4.251968 v 10.204725 l 4.25197,4.251968 h 14.45669 V 27.297638 Z"
         style="fill:none;stroke:#e0e0e0;stroke-width:0.56782903;stroke-linecap:round;stroke-linejoin:miter;stroke-miterlimit:10;stroke-dasharray:none;stroke-opacity:1;opacity:0.7"
         transform="matrix(-1.3333333,0,0,-1.3333333,241.88976,332.59843)" /><path
         id="path527"
         d="m 153.34016,124.89449 v -4.53544 h -2.40945 v 4.53544 z"
         style="fill:none;stroke:#e0e0e0;stroke-width:0.56782903;stroke-linecap:round;stroke-linejoin:miter;stroke-miterlimit:10;stroke-dasharray:none;stroke-opacity:1;opacity:0.7"
         transform="matrix(-1.3333333,0,0,-1.3333333,241.88976,332.59843)" /><path
         id="path562"
         d="m 135.52441,123.05197 v 3.68504 h 5.66929 v -3.68504 z"
         style="fill:none;stroke:#e0e0e0;stroke-width:0.56782903;stroke-linecap:round;stroke-linejoin:miter;stroke-miterlimit:10;stroke-dasharray:none;stroke-opacity:1;opacity:0.7"
         transform="matrix(-1.3333333,0,0,-1.3333333,241.88976,332.59843)" /><path
         id="path594"
         d="m 58.322835,158.54173 v -4.53543 h -2.409449 v 4.53543 z"
         style="fill:none;stroke:#e0e0e0;stroke-width:0.56782903;stroke-linecap:round;stroke-linejoin:miter;stroke-miterlimit:10;stroke-dasharray:none;stroke-opacity:1;opacity:0.7"
         transform="matrix(-1.3333333,0,0,-1.3333333,241.88976,332.59843)" /><path
         id="path634"
         d="m 29.055118,142.38425 3.401575,-3.40157 v -8.22048 l -3.401575,-3.40157 H 17.433071 v 15.02362 z"
         style="fill:none;stroke:#e0e0e0;stroke-width:0.56782903;stroke-linecap:round;stroke-linejoin:miter;stroke-miterlimit:10;stroke-dasharray:none;stroke-opacity:1;opacity:0.7"
         transform="matrix(-1.3333333,0,0,-1.3333333,241.88976,332.59843)" /><path
         id="path658"
         d="M 93.99685,121.79055 H 89.461417 V 124.2 h 4.535433 z"
         style="fill:none;stroke:#e0e0e0;stroke-width:0.56782903;stroke-linecap:round;stroke-linejoin:miter;stroke-miterlimit:10;stroke-dasharray:none;stroke-opacity:1;opacity:0.7"
         transform="matrix(-1.3333333,0,0,-1.3333333,241.88976,332.59843)" /><path
         id="path687"
         d="m 97.214173,171.43937 h -4.96063 v 9.63779 h 4.96063 z"
         style="fill:none;stroke:#e0e0e0;stroke-width:0.56782903;stroke-linecap:round;stroke-linejoin:miter;stroke-miterlimit:10;stroke-dasharray:none;stroke-opacity:1;opacity:0.7"
         transform="matrix(-1.3333333,0,0,-1.3333333,241.88976,332.59843)" /><path
         id="path688"
         d="m 97.214173,172.77165 h -4.96063 v 0.19843 h 4.96063 z"
         style="fill:none;stroke:#e0e0e0;stroke-width:0.56782903;stroke-linecap:round;stroke-linejoin:miter;stroke-miterlimit:10;stroke-dasharray:none;stroke-opacity:1;opacity:0.7"
         transform="matrix(-1.3333333,0,0,-1.3333333,241.88976,332.59843)" /><path
         id="path719"
         d="m 145.60157,120.35905 v 4.53544 h 2.40945 v -4.53544 z"
         style="fill:none;stroke:#e0e0e0;stroke-width:0.56782903;stroke-linecap:round;stroke-linejoin:miter;stroke-miterlimit:10;stroke-dasharray:none;stroke-opacity:1;opacity:0.7"
         transform="matrix(-1.3333333,0,0,-1.3333333,241.88976,332.59843)" /><path
         id="path753"
         d="m 29.140157,159.09449 h -4.535433 v 2.40945 h 4.535433 z"
         style="fill:none;stroke:#e0e0e0;stroke-width:0.56782903;stroke-linecap:round;stroke-linejoin:miter;stroke-miterlimit:10;stroke-dasharray:none;stroke-opacity:1;opacity:0.7"
         transform="matrix(-1.3333333,0,0,-1.3333333,241.88976,332.59843)" /><path
         id="path775"
         d="m 37.474016,163.82835 h 11.28189 v -14.17323 h -11.28189 z"
         style="fill:none;stroke:#e0e0e0;stroke-width:0.56782903;stroke-linecap:round;stroke-linejoin:miter;stroke-miterlimit:10;stroke-dasharray:none;stroke-opacity:1;opacity:0.7"
         transform="matrix(-1.3333333,0,0,-1.3333333,241.88976,332.59843)" /><path
         id="path776"
         d="M 39.288189,163.82835 V 149.65512 Z"
         style="fill:none;stroke:#e0e0e0;stroke-width:0.56782903;stroke-linecap:round;stroke-linejoin:miter;stroke-miterlimit:10;stroke-dasharray:none;stroke-opacity:1;opacity:0.7"
         transform="matrix(-1.3333333,0,0,-1.3333333,241.88976,332.59843)" /><path
         id="path800"
         d="m 143.5748,146.83465 -1.98425,-1.98426 h -8.22047 l -1.98425,1.98426 v 10.20472 h 12.18897 z"
         style="fill:none;stroke:#e0e0e0;stroke-width:0.56782903;stroke-linecap:round;stroke-linejoin:miter;stroke-miterlimit:10;stroke-dasharray:none;stroke-opacity:1;opacity:0.7"
         transform="matrix(-1.3333333,0,0,-1.3333333,241.88976,332.59843)" /><path
         id="path821"
         d="m 13.492913,153.60945 v 3.68504 h 5.669292 v -3.68504 z"
         style="fill:none;stroke:#e0e0e0;stroke-width:0.56782903;stroke-linecap:round;stroke-linejoin:miter;stroke-miterlimit:10;stroke-dasharray:none;stroke-opacity:1;opacity:0.7"
         transform="matrix(-1.3333333,0,0,-1.3333333,241.88976,332.59843)" /><path
         id="path847"
         d="m 93.685039,42.689764 h -8.787401 v 4.535433 h 8.787401 z"
         style="fill:none;stroke:#e0e0e0;stroke-width:0.56782903;stroke-linecap:round;stroke-linejoin:miter;stroke-miterlimit:10;stroke-dasharray:none;stroke-opacity:1;opacity:0.7"
         transform="matrix(-1.3333333,0,0,-1.3333333,241.88976,332.59843)" /><path
         id="path865"
         d="m 135.66614,119.77795 h 4.53543 v -2.40945 h -4.53543 z"
         style="fill:none;stroke:#e0e0e0;stroke-width:0.56782903;stroke-linecap:round;stroke-linejoin:miter;stroke-miterlimit:10;stroke-dasharray:none;stroke-opacity:1;opacity:0.7"
         transform="matrix(-1.3333333,0,0,-1.3333333,241.88976,332.59843)" /><path
         id="path881"
         d="m 81.467717,189.07087 h 6.519685 v -17.57481 h -6.519685 z"
         style="fill:none;stroke:#e0e0e0;stroke-width:0.56782903;stroke-linecap:round;stroke-linejoin:miter;stroke-miterlimit:10;stroke-dasharray:none;stroke-opacity:1;opacity:0.7"
         transform="matrix(-1.3333333,0,0,-1.3333333,241.88976,332.59843)" /><path
         id="path882"
         d="m 81.467717,186.91653 h 6.519685 v -0.28346 h -6.519685 z"
         style="fill:none;stroke:#e0e0e0;stroke-width:0.56782903;stroke-linecap:round;stroke-linejoin:miter;stroke-miterlimit:10;stroke-dasharray:none;stroke-opacity:1;opacity:0.7"
         transform="matrix(-1.3333333,0,0,-1.3333333,241.88976,332.59843)" /><path
         id="path907"
         d="m 93.685039,34.384252 h -8.787401 v 4.535433 h 8.787401 z"
         style="fill:none;stroke:#e0e0e0;stroke-width:0.56782903;stroke-linecap:round;stroke-linejoin:miter;stroke-miterlimit:10;stroke-dasharray:none;stroke-opacity:1;opacity:0.7"
         transform="matrix(-1.3333333,0,0,-1.3333333,241.88976,332.59843)" /><path
         id="path941"
         d="m 72.737008,124.31339 h 4.535433 v -2.40945 h -4.535433 z"
         style="fill:none;stroke:#e0e0e0;stroke-width:0.56782903;stroke-linecap:round;stroke-linejoin:miter;stroke-miterlimit:10;stroke-dasharray:none;stroke-opacity:1;opacity:0.7"
         transform="matrix(-1.3333333,0,0,-1.3333333,241.88976,332.59843)" /><path
         id="path975"
         d="m 24.604724,156.14646 h 4.535433 v -2.40945 h -4.535433 z"
         style="fill:none;stroke:#e0e0e0;stroke-width:0.56782903;stroke-linecap:round;stroke-linejoin:miter;stroke-miterlimit:10;stroke-dasharray:none;stroke-opacity:1;opacity:0.7"
         transform="matrix(-1.3333333,0,0,-1.3333333,241.88976,332.59843)" /><path
         id="path1010"
         d="m 101.46614,181.07716 h 4.96063 v -9.63779 h -4.96063 z"
         style="fill:none;stroke:#e0e0e0;stroke-width:0.56782903;stroke-linecap:round;stroke-linejoin:miter;stroke-miterlimit:10;stroke-dasharray:none;stroke-opacity:1;opacity:0.7"
         transform="matrix(-1.3333333,0,0,-1.3333333,241.88976,332.59843)" /><path
         id="path1011"
         d="m 101.46614,179.74488 h 4.96063 v -0.19842 h -4.96063 z"
         style="fill:none;stroke:#e0e0e0;stroke-width:0.56782903;stroke-linecap:round;stroke-linejoin:miter;stroke-miterlimit:10;stroke-dasharray:none;stroke-opacity:1;opacity:0.7"
         transform="matrix(-1.3333333,0,0,-1.3333333,241.88976,332.59843)" /><path
         id="path1035"
         d="M 160.10079,18.113386 H 143.09291 V 1.105512 h 17.00788 z"
         style="fill:none;stroke:#e0e0e0;stroke-width:0.56782903;stroke-linecap:round;stroke-linejoin:miter;stroke-miterlimit:10;stroke-dasharray:none;stroke-opacity:1;opacity:0.7"
         transform="matrix(-1.3333333,0,0,-1.3333333,241.88976,332.59843)" /><path
         id="path1081"
         d="m 29.055118,122.59843 1.984252,-1.98426 v -8.22047 l -1.984252,-1.98425 H 18.850394 v 12.18898 z"
         style="fill:none;stroke:#e0e0e0;stroke-width:0.56782903;stroke-linecap:round;stroke-linejoin:miter;stroke-miterlimit:10;stroke-dasharray:none;stroke-opacity:1;opacity:0.7"
         transform="matrix(-1.3333333,0,0,-1.3333333,241.88976,332.59843)" /><path
         id="path1161"
         style="fill:none;stroke:#e0e0e0;stroke-width:0.56782903;stroke-linecap:round;stroke-linejoin:miter;stroke-miterlimit:10;stroke-dasharray:none;stroke-opacity:1;opacity:0.7"
         transform="matrix(-1.3333333,0,0,-1.3333333,241.88976,332.59843)"
         d="m 79.558277,97.130577 -0.329925,0.239496 m 0.639709,-0.50453 -0.309784,0.265034 m 0.597455,-0.553918 -0.287671,0.288884 m 0.551395,-0.59978 -0.263724,0.310896 m 0.501829,-0.641827 -0.238105,0.330931 m 0.44907,-0.679788 -0.210965,0.348857 m 0.393451,-0.71342 -0.182486,0.364563 m 0.33533,-0.742515 -0.152844,0.377952 m 0.275074,-0.766883 -0.12223,0.388931 m 0.213067,-0.786371 -0.09084,0.39744 m 0.149704,-0.800852 -0.05886,0.403412 m 0.08538,-0.810235 -0.02652,0.406823 m 0.02052,-0.814465 0.006,0.407642 m -0.04447,-0.813506 0.03847,0.405864 m -0.109171,-0.807375 0.0707,0.401511 m -0.173184,-0.796105 0.102484,0.394594 m -0.236095,-0.779766 0.133611,0.385172 m -0.297502,-0.758466 0.163891,0.373294 m -0.357018,-0.732333 0.193127,0.359039 m -0.414261,-0.701544 0.221134,0.342505 m -0.468865,-0.666289 0.247731,0.323784 m -0.520483,-0.626794 0.272752,0.30301 m -0.568791,-0.583311 0.296039,0.280301 m -0.613483,-0.53611 0.317444,0.255809 m -0.654267,-0.485498 0.336823,0.229689 m -0.690885,-0.431799 0.354062,0.20211 m -0.723107,-0.375355 0.369045,0.173245 m -0.750727,-0.316517 0.381682,0.143272 m -0.773572,-0.255663 0.39189,0.112391 m -0.79149,-0.193187 0.3996,0.0808 m -0.804371,-0.129482 0.404771,0.04868 m -0.812129,-0.06494 0.407358,0.01626 m -0.814722,2e-6 0.407364,-0.01626 m -0.812132,0.06494 0.404768,-0.04868 m -0.804368,0.129473 0.3996,-0.08079 m -0.791489,0.193184 0.391889,-0.112394 m -0.773572,0.255668 0.381683,-0.143274 m -0.750728,0.316517 0.369045,-0.173243 m -0.723106,0.375353 0.354061,-0.20211 m -0.690883,0.431801 0.336822,-0.229691 m -0.654265,0.485504 0.317443,-0.255813 m -0.613482,0.536114 0.296039,-0.280301 m -0.568792,0.583307 0.272753,-0.303006 m -0.520484,0.626794 0.247731,-0.323788 m -0.468864,0.66629 0.221133,-0.342502 m -0.414257,0.701544 0.193124,-0.359042 m -0.357015,0.732336 0.163891,-0.373294 m -0.297502,0.758466 0.133611,-0.385172 m -0.236092,0.779766 0.102481,-0.394594 m -0.173183,0.796104 0.0707,-0.40151 m -0.109169,0.807378 0.03847,-0.405868 m -0.04447,0.813507 0.006,-0.407639 m 0.02052,0.814461 -0.02652,-0.406822 m 0.08539,0.810235 -0.05887,-0.403413 m 0.149706,0.800853 -0.09084,-0.39744 m 0.21307,0.78637 -0.12223,-0.38893 m 0.275074,0.766882 -0.152844,-0.377952 m 0.33533,0.742516 -0.182486,-0.364564 m 0.393455,0.713421 -0.210969,-0.348857 m 0.449073,0.679785 -0.238104,-0.330928 m 0.501831,0.641826 -0.263727,-0.310898 m 0.551395,0.59978 -0.287668,-0.288882 m 0.597453,0.553915 -0.309785,-0.265033 m 0.639709,0.504527 -0.329924,-0.239494 m 5.999215,0.239497 h -5.669291" /><path
         id="path1162"
         d="m 77.527559,91.729134 h -2.267716 l 1.133858,1.984252 z"
         style="fill:none;stroke:#e0e0e0;stroke-width:0.56782903;stroke-linecap:round;stroke-linejoin:miter;stroke-miterlimit:10;stroke-dasharray:none;stroke-opacity:1;opacity:0.7"
         transform="matrix(-1.3333333,0,0,-1.3333333,241.88976,332.59843)" /><path
         id="path1175"
         d="M 58.110236,3.883465 H 120.47244 V 17.206299 H 58.110236 Z"
         style="fill:none;stroke:#e0e0e0;stroke-width:0.56782903;stroke-linecap:round;stroke-linejoin:miter;stroke-miterlimit:10;stroke-dasharray:none;stroke-opacity:1;opacity:0.7"
         transform="matrix(-1.3333333,0,0,-1.3333333,241.88976,332.59843)" /><g
         id="g2"
         style="fill:#9575cd;fill-opacity:1;stroke:#e0e0e0;stroke-opacity:1;stroke-width:0.75710535;stroke-dasharray:none"><path
           id="path444"
           d="m 111.11811,97.795276 h -10.20472 v 25.511814 h 10.20472 z"
           style="fill:#9575cd;stroke:#e0e0e0;stroke-width:0.56782903;stroke-linecap:round;stroke-linejoin:miter;stroke-miterlimit:10;stroke-dasharray:none;stroke-opacity:1;fill-opacity:1"
           transform="matrix(-1.3333333,0,0,-1.3333333,241.88976,332.59843)" /></g></g></g></svg>
